<svg width="837" height="600" viewBox="0 0 837 600" fill="none" xmlns="http://www.w3.org/2000/svg">
<path d="M890.885 426.756L844.616 400.891C834.237 395.089 825.11 382.314 821.905 369.103L781.834 203.809C777.098 184.266 761.356 170.167 750.194 169.737C744.606 169.509 740.608 172.57 738.661 178.551L726.589 215.594C725.194 219.88 722.559 222.871 718.976 224.242C714.654 225.902 709.209 225.046 703.645 221.834L695.291 217.019C685.467 211.361 676.855 199.57 673.346 186.988C668.07 168.072 653.411 155.395 642.856 154.502C637.627 154.037 633.647 156.41 631.335 161.302L618.086 189.331C616.463 192.771 613.868 195.129 610.584 196.153C606.396 197.465 601.201 196.522 595.962 193.501L586.399 187.99C575.906 181.94 566.853 168.94 563.869 155.64L523.82 -22.9167C519.429 -42.5038 503.739 -56.9788 492.403 -57.7161C486.849 -58.0427 482.778 -55.2467 480.681 -49.521L415.651 127.895C414.177 131.919 411.555 134.715 408.061 135.979C403.768 137.541 398.395 136.657 392.926 133.497L360.039 114.541L360.592 113.589L393.479 132.545C398.661 135.529 403.709 136.387 407.684 134.942C410.859 133.792 413.257 131.223 414.616 127.517L479.645 -49.8996C481.895 -56.0434 486.433 -59.1958 492.478 -58.8172C504.2 -58.0526 520.403 -43.2189 524.901 -23.1592L564.942 155.398C567.814 168.213 576.862 181.223 586.944 187.033L596.508 192.546C601.474 195.411 606.356 196.324 610.249 195.102C613.231 194.171 615.593 192.014 617.085 188.864L630.333 160.834C632.824 155.564 637.295 152.919 642.945 153.404C653.869 154.329 669.004 167.322 674.407 186.694C677.787 198.82 686.402 210.626 695.839 216.064L704.193 220.882C709.464 223.918 714.567 224.749 718.579 223.21C721.841 221.961 724.247 219.209 725.538 215.248L737.61 178.204C739.696 171.8 744.214 168.443 750.237 168.633C762.038 169.089 777.981 183.222 782.91 203.544L822.981 368.841C826.118 381.775 835.028 394.265 845.154 399.926L891.426 425.788L890.885 426.756Z" fill="#42E8E0"/>
<path d="M855.773 446.902L809.504 421.04C799.123 415.235 789.995 402.46 786.793 389.252L746.72 223.955C741.984 204.413 726.242 190.314 715.082 189.883C709.457 189.685 705.494 192.719 703.546 198.697L691.477 235.74C690.079 240.026 687.447 243.015 683.866 244.388C679.537 246.049 674.094 245.192 668.531 241.981L660.177 237.171C650.504 231.591 641.684 219.521 638.232 207.137C632.958 188.22 618.299 175.544 607.742 174.648C602.517 174.193 598.535 176.556 596.223 181.448L582.971 209.478C581.348 212.917 578.756 215.275 575.472 216.299C571.281 217.613 566.087 216.668 560.848 213.647L551.287 208.136C540.796 202.089 531.741 189.089 528.754 175.789L488.716 -2.76802C484.324 -22.355 468.632 -36.8325 457.296 -37.5699C451.752 -37.8915 447.671 -35.098 445.574 -29.3748L380.544 148.044C379.07 152.067 376.448 154.863 372.954 156.13C368.671 157.687 363.291 156.806 357.821 153.646L324.932 134.693L325.485 133.737L358.374 152.691C363.556 155.68 368.594 156.526 372.582 155.094C375.754 153.943 378.153 151.375 379.511 147.668L444.541 -29.7509C446.793 -35.8947 451.378 -39.0644 457.373 -38.6685C469.1 -37.9014 485.301 -23.0677 489.799 -3.00803L529.837 175.549C532.712 188.366 541.763 201.374 551.842 207.181L561.403 212.692C566.372 215.557 571.254 216.465 575.147 215.248C578.129 214.317 580.491 212.16 581.98 209.01L595.231 180.98C597.719 175.71 602.203 173.085 607.843 173.55C618.765 174.478 633.902 187.468 639.302 206.842C642.682 218.967 651.297 230.772 660.734 236.215L669.088 241.026C674.36 244.067 679.47 244.891 683.477 243.359C686.739 242.109 689.145 239.355 690.436 235.394L702.505 198.35C704.594 191.947 709.14 188.547 715.134 188.78C726.933 189.235 742.876 203.371 747.805 223.69L787.879 388.987C791.014 401.918 799.923 414.411 810.052 420.075L856.321 445.937L855.773 446.902Z" fill="#42E8E0"/>
<path d="M635.363 155.009L599.536 175.611L600.087 176.567L635.915 155.966L635.363 155.009Z" fill="#42E8E0"/>
<path d="M708.014 191.929L707.464 190.972L744.794 169.583L745.347 170.541L708.014 191.929Z" fill="#42E8E0"/>
<path d="M890.885 426.756L844.616 400.891C834.237 395.089 825.11 382.314 821.905 369.103L781.834 203.809C777.098 184.266 761.356 170.167 750.194 169.737C744.606 169.509 740.608 172.57 738.661 178.551L726.589 215.594C725.194 219.88 722.559 222.871 718.976 224.242C714.654 225.902 709.209 225.046 703.645 221.834L695.291 217.019C685.467 211.361 676.855 199.57 673.346 186.988C668.07 168.072 653.411 155.395 642.856 154.502C637.627 154.037 633.647 156.41 631.335 161.302L618.086 189.331C616.463 192.771 613.868 195.129 610.584 196.153C606.396 197.465 601.201 196.522 595.962 193.501L586.399 187.99C575.906 181.94 566.853 168.94 563.869 155.64L523.82 -22.9167C519.429 -42.5038 503.739 -56.9788 492.403 -57.7161C486.849 -58.0427 482.778 -55.2467 480.681 -49.521L415.651 127.895C414.177 131.919 411.555 134.715 408.061 135.979C403.768 137.541 398.395 136.657 392.926 133.497L360.039 114.541L360.592 113.589L393.479 132.545C398.661 135.529 403.709 136.387 407.684 134.942C410.859 133.792 413.257 131.223 414.616 127.517L479.645 -49.8996C481.895 -56.0434 486.433 -59.1958 492.478 -58.8172C504.2 -58.0526 520.403 -43.2189 524.901 -23.1592L564.942 155.398C567.814 168.213 576.862 181.223 586.944 187.033L596.508 192.546C601.474 195.411 606.356 196.324 610.249 195.102C613.231 194.171 615.593 192.014 617.085 188.864L630.333 160.834C632.824 155.564 637.295 152.919 642.945 153.404C653.869 154.329 669.004 167.322 674.407 186.694C677.787 198.82 686.402 210.626 695.839 216.064L704.193 220.882C709.464 223.918 714.567 224.749 718.579 223.21C721.841 221.961 724.247 219.209 725.538 215.248L737.61 178.204C739.696 171.8 744.214 168.443 750.237 168.633C762.038 169.089 777.981 183.222 782.91 203.544L822.981 368.841C826.118 381.775 835.028 394.265 845.154 399.926L891.426 425.788L890.885 426.756Z" fill="#42E8E0"/>
<path d="M855.773 446.902L809.504 421.04C799.123 415.235 789.995 402.46 786.793 389.252L746.72 223.955C741.984 204.413 726.242 190.314 715.082 189.883C709.457 189.685 705.494 192.719 703.546 198.697L691.477 235.74C690.079 240.026 687.447 243.015 683.866 244.388C679.537 246.049 674.094 245.192 668.531 241.981L660.177 237.171C650.504 231.591 641.684 219.521 638.232 207.137C632.958 188.22 618.299 175.544 607.742 174.648C602.517 174.193 598.535 176.556 596.223 181.448L582.971 209.478C581.348 212.917 578.756 215.275 575.472 216.299C571.281 217.613 566.087 216.668 560.848 213.647L551.287 208.136C540.796 202.089 531.741 189.089 528.754 175.789L488.716 -2.76802C484.324 -22.355 468.632 -36.8325 457.296 -37.5699C451.752 -37.8915 447.671 -35.098 445.574 -29.3748L380.544 148.044C379.07 152.067 376.448 154.863 372.954 156.13C368.671 157.687 363.291 156.806 357.821 153.646L324.932 134.693L325.485 133.737L358.374 152.691C363.556 155.68 368.594 156.526 372.582 155.094C375.754 153.943 378.153 151.375 379.511 147.668L444.541 -29.7509C446.793 -35.8947 451.378 -39.0644 457.373 -38.6685C469.1 -37.9014 485.301 -23.0677 489.799 -3.00803L529.837 175.549C532.712 188.366 541.763 201.374 551.842 207.181L561.403 212.692C566.372 215.557 571.254 216.465 575.147 215.248C578.129 214.317 580.491 212.16 581.98 209.01L595.231 180.98C597.719 175.71 602.203 173.085 607.843 173.55C618.765 174.478 633.902 187.468 639.302 206.842C642.682 218.967 651.297 230.772 660.734 236.215L669.088 241.026C674.36 244.067 679.47 244.891 683.477 243.359C686.739 242.109 689.145 239.355 690.436 235.394L702.505 198.35C704.594 191.947 709.14 188.547 715.134 188.78C726.933 189.235 742.876 203.371 747.805 223.69L787.879 388.987C791.014 401.918 799.923 414.411 810.052 420.075L856.321 445.937L855.773 446.902Z" fill="#42E8E0"/>
<path opacity="0.5" d="M360.314 114.064L393.201 133.02C403.079 138.713 411.877 136.583 415.131 127.705L480.161 -49.714C487.588 -69.9766 517.939 -51.6564 524.358 -23.038L564.399 155.519C567.326 168.569 576.384 181.584 586.666 187.51L596.23 193.023C605.524 198.38 613.922 196.836 617.583 189.096L630.831 161.067C639.044 143.694 666.409 160.082 673.874 186.84C677.316 199.182 685.943 210.994 695.564 216.542L703.918 221.357C714.049 227.196 723.01 224.794 726.064 215.418L738.133 178.375C744.945 157.467 775.388 174.876 782.37 203.675L822.443 368.97C825.593 381.96 834.693 394.711 844.886 400.407L891.155 426.269L360.314 114.064Z" fill="url(#paint0_linear_6005_16250)"/>
<path opacity="0.5" d="M325.205 133.703L358.091 152.659C367.97 158.352 376.768 156.222 380.022 147.344L445.051 -30.0751C452.478 -50.3376 482.83 -32.0174 489.248 -3.39899L529.29 175.158C532.217 188.208 541.275 201.223 551.557 207.149L561.12 212.662C570.414 218.019 578.813 216.475 582.471 208.735L595.719 180.706C603.932 163.333 631.3 179.718 638.762 206.479C642.204 218.821 650.831 230.633 660.452 236.181L668.806 240.996C678.937 246.835 687.898 244.433 690.952 235.057L703.021 198.014C709.833 177.106 740.276 194.515 747.258 223.314L787.329 388.609C790.479 401.599 799.579 414.35 809.772 420.046L856.041 445.908L325.205 133.703Z" fill="url(#paint1_linear_6005_16250)"/>
<path d="M546.618 592.402C541.847 592.402 537.076 591.177 532.819 588.723L221.405 409.267C218.136 407.384 216.181 404.009 216.176 400.241C216.171 396.47 218.117 393.088 221.383 391.195L412.94 280.15L413.198 280.301L738.192 467.583C741.461 469.468 743.416 472.844 743.421 476.614C743.426 480.383 741.481 483.765 738.212 485.658L560.476 588.691C556.208 591.162 551.413 592.402 546.618 592.402ZM533.337 587.827C541.552 592.56 551.755 592.548 559.961 587.79L737.696 484.758C740.638 483.053 742.393 480.004 742.388 476.607C742.383 473.21 740.623 470.169 737.677 468.469L412.943 281.338L221.903 392.083C218.964 393.788 217.207 396.836 217.212 400.233C217.217 403.631 218.979 406.672 221.923 408.369L533.337 587.827Z" fill="#42E8E0"/>
<path d="M569.997 504.265C569.997 508.966 566.181 512.775 561.475 512.775C556.768 512.775 552.952 508.964 552.952 504.265C552.952 499.564 556.768 495.756 561.475 495.756C566.181 495.756 569.997 499.566 569.997 504.265Z" fill="#24126A"/>
<path d="M653.941 409.19C653.941 413.889 650.124 417.7 645.418 417.7C640.712 417.7 636.895 413.889 636.895 409.19C636.895 404.489 640.712 400.681 645.418 400.681C650.124 400.681 653.941 404.492 653.941 409.19Z" fill="#24126A"/>
<path d="M672.28 474.165C672.28 478.866 668.464 482.674 663.757 482.674C659.051 482.674 655.235 478.863 655.235 474.165C655.235 469.466 659.051 465.655 663.757 465.655C668.464 465.655 672.28 469.466 672.28 474.165Z" fill="#24126A"/>
<path d="M488.118 458.126C488.118 462.827 484.301 466.635 479.595 466.635C474.889 466.635 471.073 462.825 471.073 458.126C471.073 453.425 474.889 449.617 479.595 449.617C484.301 449.617 488.118 453.425 488.118 458.126Z" fill="#24126A"/>
<path d="M540.811 400.637C540.811 405.338 536.994 409.146 532.288 409.146C527.579 409.146 523.765 405.335 523.765 400.637C523.765 395.938 527.582 392.127 532.288 392.127C536.994 392.125 540.811 395.935 540.811 400.637Z" fill="#24126A"/>
<path d="M573.576 432.155L479.873 450.176C479.471 450.213 479.092 450.275 478.72 450.351L478.805 449.733L474.299 448.597V453.907L474.319 453.91C474.317 454.115 474.321 454.325 474.381 454.536C474.951 456.612 478.336 458.029 481.94 457.7L575.643 439.679L573.576 432.155Z" fill="url(#paint2_linear_6005_16250)"/>
<path d="M652.06 400.062L649.207 402.463C646.754 401.399 642.992 401.639 640.427 403.118L573.692 432.123L583.035 437.507L649.77 408.503C651.336 407.599 652.085 406.436 652.03 405.345L652.06 405.358V400.062Z" fill="url(#paint3_linear_6005_16250)"/>
<path d="M538.605 393.587C536.95 391.714 532.97 390.967 529.721 391.922C529.334 392.036 528.98 392.169 528.65 392.318C528.491 392.063 528.305 391.793 528.075 391.563C527.483 390.972 526.117 390.163 526.117 390.163L526.112 395.45L526.134 395.433C526.162 395.977 526.375 396.527 526.833 397.044L569.906 436.307L581.677 432.85L538.605 393.587Z" fill="url(#paint4_linear_6005_16250)"/>
<path d="M669.908 465.17L668.325 465.725L667.418 467.61C667.076 467.454 666.704 467.313 666.3 467.194L581.766 432.9L575.769 439.687L660.303 473.982C663.554 474.937 667.532 474.192 669.187 472.316C669.688 471.75 669.888 471.146 669.879 470.55L669.908 470.574V465.17Z" fill="url(#paint5_linear_6005_16250)"/>
<path d="M569.925 436.381L556.045 495.761L555.006 495.231L555.004 500.719L555.026 500.695C555.214 502.437 557.462 503.934 560.577 504.218C564.181 504.547 567.566 503.129 568.136 501.054L582.976 437.574L569.925 436.381Z" fill="url(#paint6_linear_6005_16250)"/>
<path d="M666.3 461.909L587.9 430.104L649.767 403.215C652.541 401.616 652.841 399.199 650.439 397.816L649.79 397.442C647.388 396.059 643.195 396.232 640.424 397.831L578.555 424.719L538.603 388.302C536.947 386.429 532.967 385.684 529.718 386.637C526.467 387.592 525.175 389.885 526.831 391.759L566.78 428.174L479.87 444.888C476.267 445.217 473.808 447.167 474.378 449.245C474.948 451.324 478.334 452.739 481.937 452.41L568.847 435.696L555.083 494.573C554.513 496.649 556.971 498.601 560.575 498.93C564.178 499.26 567.564 497.842 568.134 495.766L581.898 436.888L660.303 468.696C663.554 469.651 667.532 468.907 669.187 467.031C670.845 465.158 669.551 462.864 666.3 461.909ZM579.499 430.183L578.039 431.836L574.862 431.546L574.359 429.715L577.226 428.874L579.499 430.183Z" fill="url(#paint7_linear_6005_16250)"/>
<path d="M576.795 435.052C573.021 435.052 569.958 431.997 569.958 428.228V349.2H583.63V428.228C583.633 431.997 580.572 435.052 576.795 435.052Z" fill="#24126A"/>
<path d="M540.432 255.327L540.399 255.337C540.238 253.551 539.076 251.866 536.848 250.582L535.413 249.755C530.105 246.694 520.831 247.078 514.702 250.611L471.489 275.521C468.235 277.396 466.54 279.779 466.438 282.063L466.416 282.073V289.587L466.428 289.592C466.426 291.54 467.591 293.398 469.999 294.786L471.432 295.612C476.74 298.673 486.014 298.29 492.143 294.756L535.356 269.847C538.506 268.031 540.201 265.739 540.397 263.522L540.427 263.51V255.327H540.432Z" fill="#5351AF"/>
<path d="M471.437 288.286L470.004 287.459C464.696 284.399 465.36 279.054 471.491 275.521L514.705 250.611C520.834 247.078 530.107 246.694 535.416 249.755L536.851 250.582C542.159 253.642 541.492 258.987 535.364 262.52L492.15 287.43C486.019 290.963 476.745 291.347 471.437 288.286Z" fill="url(#paint8_linear_6005_16250)"/>
<path d="M562.927 323.048L472.413 375.17C467.93 377.756 464.294 375.012 464.294 369.041C464.294 363.071 467.93 356.135 472.413 353.552L576.099 293.836V297.921C576.099 307.606 570.203 318.854 562.927 323.048Z" fill="#515151"/>
<path d="M569.593 100.351L569.591 100.356C566.446 98.6683 562.399 98.8885 557.978 101.437L555.274 102.996C545.267 108.766 537.153 124.241 537.153 137.565V316.288L561.197 302.429V308.105L532.355 331.57L466.832 375.433L558.927 427.412L611.877 386.726L642.033 361.02L660.823 151.867L569.593 100.351Z" fill="url(#paint9_linear_6005_16250)"/>
<path d="M502.133 395.351C502.133 395.351 499.684 388.878 504.524 384.046C509.362 379.216 534.823 368.517 536.667 367.366C538.511 366.216 547.661 359.488 547.661 359.488L550.454 353.25C550.454 353.25 498.762 358.28 498.073 359.085C497.382 359.889 473.88 380.941 474.572 381.859C475.263 382.779 490.772 386.533 490.772 386.533L493.766 390.628L502.133 395.351Z" fill="#2D2D2D"/>
<path d="M649.661 153.168L646.957 154.727C636.95 160.495 628.836 175.972 628.836 189.297V367.997L564.094 405.283C559.608 407.869 555.975 414.805 555.975 420.773C555.975 426.743 559.611 429.488 564.094 426.902L654.608 374.78C661.881 370.585 667.78 359.337 667.78 349.652V345.567V166.844C667.782 153.522 659.668 147.398 649.661 153.168Z" fill="#5351AF"/>
<path d="M477.64 434.065C477.64 434.065 464.304 442.607 459.796 447.642C455.286 452.677 446.354 462.981 450.03 467.89C453.705 472.799 466.114 475.543 479.452 463.28C492.79 451.017 489 450.287 500.358 444.21C511.713 438.133 514.846 431.517 513.478 427.736C512.113 423.952 506.497 417.264 503.436 418.704C500.375 420.144 477.64 434.065 477.64 434.065Z" fill="#160A5B"/>
<path d="M542.494 469.943C542.494 469.943 537.706 480.462 535.24 483.951C532.771 487.44 520.809 507.566 527.056 512.196C533.304 516.825 545.145 515.541 554.503 505.394C563.861 495.246 565.943 482.897 568.25 478.841C570.557 474.786 576.307 463.963 573.581 457.72C570.857 451.477 570.248 450.401 570.248 450.401L542.494 469.943Z" fill="#160A5B"/>
<path d="M494.071 320.165C494.071 320.165 454.448 359.201 447.953 378.8C447.953 378.8 445.209 389.391 452.87 397.697C460.53 406.003 476.792 433.157 476.792 433.157C476.792 433.157 488.931 447.818 504.603 436.097C504.603 436.097 511.691 424.791 507.334 417.274C502.978 409.757 491.387 385.746 491.387 385.746C491.387 385.746 516.796 368.289 529.336 363.882C541.876 359.473 548.57 356.066 548.57 356.066C548.57 356.066 546.288 367.879 537.113 379.407C527.941 390.935 512.578 409.45 517.691 422.339C522.804 435.228 525.768 439.217 530.576 446.635C535.383 454.053 539.928 469.528 544.028 471.139C548.127 472.747 567.073 474.603 570.146 462.285C573.219 449.968 563.683 426.026 559.388 417.927C559.388 417.927 610.633 358.897 615.513 352.409C620.395 345.916 509.929 310.154 494.071 320.165Z" fill="#24126A"/>
<path d="M507.337 417.272C502.98 409.755 491.389 385.743 491.389 385.743C491.389 385.743 516.799 368.287 529.339 363.88C541.881 359.471 548.573 356.063 548.573 356.063C550.979 352.75 558.763 340.052 562.245 330.006C533.346 321.554 501.969 315.18 494.071 320.168C496.871 327.079 511.602 327.019 511.602 327.019C511.602 327.019 517.106 340.391 520.752 342.098C524.4 343.805 533.138 341.937 533.138 341.937C533.138 341.937 531.725 344.14 525.5 348.628C519.272 353.116 480.277 385.013 480.277 385.013C480.277 385.013 482.5 386.278 492.881 405.016C503.263 423.754 504.606 436.099 504.606 436.099C504.606 436.099 511.694 424.789 507.337 417.272Z" fill="#160A5B"/>
<path d="M594.934 340.878C572.022 338.696 545.344 338.5 551.348 350.513C561.534 370.887 582.024 371.798 582.024 371.798C581.893 379.283 550.454 415.433 550.454 415.433C550.454 415.433 550.454 415.433 557.779 429.658C565.105 443.883 564.186 469.783 564.186 469.783C567.011 468.243 569.254 465.866 570.148 462.28C573.221 449.963 563.685 426.021 559.39 417.922C559.39 417.922 610.636 358.892 615.515 352.404C616.963 350.481 608.279 345.988 594.934 340.878Z" fill="#160A5B"/>
<path d="M454.007 216.111L460.104 211.39C460.104 211.39 492.956 193.176 503.887 187.275C509.805 184.081 515.949 178.367 520.338 173.8C524.615 169.348 530.548 166.862 536.729 166.829L594.287 166.542C594.287 166.542 600.99 177.266 603.251 179.379C604.911 180.931 620.532 194 631.733 204.761C637.934 210.717 642.439 218.182 644.786 226.447C651.198 249.015 651.103 294.494 652.075 327.012C652.075 327.012 648.107 328.559 638.254 330.659C628.462 332.748 629.671 331.411 629.671 331.411C629.671 331.411 614.983 364.402 595.062 367.589C575.142 370.776 548.298 361.472 543.51 330.241C543.51 330.241 504.668 324.431 494.135 320.113C493.161 319.715 492.822 318.522 493.454 317.681C498.15 311.456 515.664 287.331 517.332 271.609C519.257 253.437 518.668 227.058 517.223 219.85C517.223 219.85 487.932 230.868 478.594 232.821C478.594 232.821 442.937 271.943 428.04 282.59C428.04 282.59 433.14 274.583 422.895 269.147L454.007 216.111Z" fill="#453C9E"/>
<path d="M638.251 330.659C639.745 330.34 641.089 330.036 642.32 329.746L640.251 325.688L586.215 319.98L554.657 321.608L543.805 331.904C544.417 335.247 545.279 338.337 546.372 341.168C546.427 341.175 559.789 343.095 565.992 341.772C572.2 340.445 620.289 347.505 620.385 347.519C625.83 339.713 629.208 332.431 629.624 331.513C629.582 331.775 630.167 332.384 638.251 330.659Z" fill="#24126A"/>
<path d="M565.326 311.815C565.266 311.614 565.098 311.476 564.887 311.471C562.285 311.406 545.398 310.909 539.016 308.709C532.092 306.324 524.757 306.762 524.382 307.163C524.008 307.564 512.484 312.448 511.795 314.432C511.183 316.194 510.078 322.301 511.604 324.555C513.131 326.812 513.855 328.321 513.855 328.321L515.057 328.447C515.057 328.447 516.606 331.493 517.483 332.572C517.867 333.044 518.169 333.564 518.427 334.118C519.156 335.69 520.434 338.28 520.967 338.335C521.733 338.416 525.302 339.124 526.209 338.889C526.95 338.698 527.619 336.434 527.312 335.44C527.227 335.167 527.364 334.918 527.646 334.871C529.289 334.601 533.748 334.039 539.914 334.603C547.425 335.291 558.042 330.39 559.004 329.937C559.053 329.912 559.103 329.9 559.16 329.895L569.752 328.94C570.054 328.912 570.255 328.615 570.171 328.326L565.326 311.815Z" fill="#FCD1C5"/>
<path d="M552.573 200.379C552.573 200.379 543.559 233.548 553.088 267.635C553.088 267.635 587.764 203.049 591.526 192.568C595.288 182.086 596.653 174.643 593.139 170.88C589.623 167.116 558.297 186.557 558.297 186.557L552.573 200.379Z" fill="#F0F6FF"/>
<path d="M561.504 252.393C561.504 252.393 568.109 232.209 566.959 225.694C565.809 219.177 564.168 214.52 564.168 214.52L570.124 209.035L572.751 214.471C572.751 214.471 585.863 204.865 586.733 203.079C586.733 203.079 576.173 210.314 572.855 211.395C572.855 211.395 571.288 208.804 569.209 207.924C567.13 207.043 561.965 214.105 561.965 214.105L560.999 226.35L555.817 254.912L557.616 259.155L561.504 252.393Z" fill="#C4CCD6"/>
<path d="M555.703 200.755C555.703 200.755 554.451 213.788 555.532 214.711C556.612 215.634 560.654 215.693 562.533 214.642C564.411 213.59 569.209 207.924 569.209 207.924C569.209 207.924 563.346 197.588 555.703 200.755Z" fill="#24126A"/>
<path d="M562.781 212.316C562.781 212.316 566.312 221.362 562.927 233.867C559.539 246.373 558.24 257.99 558.24 257.99L553.091 267.632C553.091 267.632 546.664 248.76 548.776 229.804C549.725 221.29 556.226 213.753 556.226 213.753L562.781 212.316Z" fill="#24126A"/>
<path d="M536.375 147.485C536.375 147.485 534.784 155.549 535.359 157.08C535.934 158.612 537.978 159.636 537.478 162.781C536.979 165.926 538.798 175.324 539.735 178.456C539.735 178.456 539.049 181.802 539.988 182.839C540.927 183.875 542.147 183.838 543.026 185.419C543.909 187 544.206 195.136 547.505 197.855C550.806 200.575 555.108 201.139 557.323 200.548C559.539 199.954 561.817 198.266 561.817 198.266L566.788 200.335C566.788 200.335 592.574 193.045 591.769 174.95L591.751 173.038C591.751 173.038 593.583 170.484 594.113 168.804C594.644 167.124 598.916 159.609 596.758 156.368C596.758 156.368 606.747 116.996 575.93 114.62C545.118 112.245 540.476 133.807 536.375 147.485Z" fill="#FCD1C5"/>
<path d="M591.774 174.95L591.771 174.733C590.488 173.965 589.231 173.481 588.23 173.656C584.703 174.277 585.514 166.975 585.514 166.975C585.514 166.975 584.859 168.299 583.058 177.632C581.256 186.963 561.822 198.266 561.822 198.266L566.793 200.335C566.793 200.335 592.579 193.045 591.774 174.95Z" fill="#E2B1A6"/>
<path d="M536.514 130.392C533.5 136.781 532.06 144.456 538.36 149.608C538.36 149.608 543.656 151.05 553.72 146.379C560.503 143.231 567.286 144.625 570.986 145.869C572.696 146.443 573.819 148.064 573.769 149.865L573.62 155.47C573.581 156.927 574.438 158.258 575.782 158.83L580.461 160.819L581.387 166.27C581.66 167.879 583.32 168.849 584.859 168.299L586.044 167.876C586.044 167.876 586.74 155.747 596.76 156.365C596.76 156.365 604.876 138.847 596.562 122.825C588.247 106.804 565.462 107.947 560.602 109.763C554.208 112.156 555.1 111.8 551.433 114.064C545.031 118.015 539.72 123.592 536.514 130.392Z" fill="#AA8383"/>
<path d="M618.517 253.932C618.517 253.932 613.848 288.278 611.932 297.998L596.852 305.938L623.632 304.305L618.517 253.932Z" fill="#24126A"/>
<path d="M596.76 156.365C596.76 156.365 599.503 150.432 600.163 142.316C587.707 152.171 573.769 149.863 573.769 149.863L573.621 155.467C573.581 156.925 574.438 158.256 575.782 158.827L580.461 160.817L581.387 166.268C581.66 167.874 583.32 168.846 584.859 168.297L586.044 167.874C586.044 167.874 586.74 155.747 596.76 156.365Z" fill="#936D6D"/>
<path d="M603.429 186.538C603.429 186.538 595.446 213.907 593.784 219.182L587.362 218.504L588.52 227.164L553.933 272.685L592.336 228.669L590.815 220.954L596.646 221.57L603.429 186.538Z" fill="#24126A"/>
<path d="M569.472 335.299C569.472 335.299 650.593 332.661 652.662 331.189C654.731 329.716 655.101 308.88 654.907 296.805C654.771 288.333 654.87 255.189 647.629 231.94C653.319 251.626 650.323 321.249 647.745 324.79C645.16 328.338 568 330.377 568 330.377C568.832 333.27 569.472 335.299 569.472 335.299Z" fill="#263649"/>
<path d="M410.083 270.513C410.083 270.513 409.775 272.556 406.251 274.553C402.727 276.55 393.696 280.999 392.237 282.278C390.774 283.557 384.262 289.263 384.073 290.015C383.882 290.768 381.927 297.231 381.942 297.619C381.957 298.008 382.579 300.994 382.579 300.994L380.571 310.54C380.571 310.54 378.026 314.242 380.792 315.249C383.555 316.258 385.131 313.391 385.176 312.955C385.176 312.955 389.362 310.971 392.43 308.595C395.498 306.217 407.81 296.327 409.899 296.934C411.988 297.54 410.068 301.086 409.064 301.697C408.06 302.308 401.533 308.675 404.266 313.099C407 317.523 408.784 310.6 410.588 309.192C412.395 307.784 416.293 302.241 418.685 301.558C421.076 300.873 425.425 291.96 425.995 287.979C426.565 283.998 429.413 281.432 430.434 280.143C431.455 278.854 428.233 268.959 428.233 268.959L416.045 265.17L411.773 267.942L410.083 270.513Z" fill="#FCD1C5"/>
<mask id="mask0_6005_16250" style="mask-type:luminance" maskUnits="userSpaceOnUse" x="590" y="318" width="75" height="44">
<path d="M595.424 359.364L593.989 358.538C588.681 355.477 589.348 350.132 595.476 346.599L638.69 321.69C644.818 318.156 654.092 317.773 659.401 320.834L660.835 321.66C666.144 324.721 665.477 330.065 659.349 333.599L616.135 358.508C610.006 362.039 600.733 362.423 595.424 359.364Z" fill="white"/>
</mask>
<g mask="url(#mask0_6005_16250)">
<path d="M641.644 218.296C639.094 214.275 637.924 217.244 634.502 220.56C629.885 225.036 624.085 231.979 621.092 240.748C615.644 256.713 617.6 296.612 619.424 302.318C619.424 302.318 568.627 310.622 565.11 310.471C561.594 310.32 569.469 335.299 569.469 335.299C569.469 335.299 650.59 332.661 652.66 331.189C654.729 329.716 655.098 308.88 654.905 296.805C654.741 286.452 654.935 239.254 641.644 218.296Z" fill="#334659"/>
</g>
<mask id="mask1_6005_16250" style="mask-type:luminance" maskUnits="userSpaceOnUse" x="590" y="318" width="75" height="44">
<path d="M595.424 359.364L593.989 358.538C588.681 355.477 589.348 350.132 595.476 346.599L638.69 321.69C644.818 318.156 654.092 317.773 659.401 320.834L660.835 321.66C666.144 324.721 665.477 330.065 659.349 333.599L616.135 358.508C610.006 362.039 600.733 362.423 595.424 359.364Z" fill="white"/>
</mask>
<g mask="url(#mask1_6005_16250)">
<path d="M569.472 335.299C569.472 335.299 650.593 332.661 652.662 331.189C654.732 329.716 655.101 308.88 654.907 296.805C654.771 288.333 654.87 255.189 647.629 231.94C653.319 251.626 650.323 321.249 647.745 324.79C645.16 328.338 568 330.377 568 330.377C568.833 333.27 569.472 335.299 569.472 335.299Z" fill="#263649"/>
</g>
<path d="M664.419 326.403L664.387 326.413C664.226 324.629 663.063 322.942 660.835 321.658L659.401 320.831C654.092 317.77 644.818 318.154 638.69 321.687L595.476 346.597C592.225 348.472 590.527 350.855 590.428 353.139L590.406 353.149V360.663L590.418 360.668C590.416 362.616 591.58 364.474 593.989 365.862L595.424 366.688C600.733 369.749 610.004 369.366 616.135 365.832L659.349 340.923C662.498 339.107 664.193 336.815 664.389 334.598L664.419 334.586V326.403Z" fill="#5351AF"/>
<path d="M595.424 359.364L593.989 358.538C588.681 355.477 589.348 350.132 595.476 346.599L638.69 321.69C644.818 318.156 654.092 317.773 659.401 320.834L660.835 321.66C666.144 324.721 665.477 330.065 659.349 333.599L616.135 358.508C610.006 362.039 600.733 362.423 595.424 359.364Z" fill="url(#paint10_linear_6005_16250)"/>
<path opacity="0.5" d="M568.989 502.558L206.791 293.836L348.793 211.979L710.99 420.701L568.989 502.558Z" fill="url(#paint11_linear_6005_16250)"/>
<path d="M206.791 281.194V293.836L568.989 502.558L710.99 420.701V408.06L568.989 489.916L206.791 281.194Z" fill="url(#paint12_linear_6005_16250)"/>
<path d="M568.989 489.916L206.791 281.194L348.793 199.34L710.99 408.06L568.989 489.916Z" fill="url(#paint13_linear_6005_16250)"/>
<path d="M568.989 488.625L207.911 280.548L206.791 281.194L568.989 489.916L710.99 408.06L709.873 407.414L568.989 488.625Z" fill="white"/>
<path opacity="0.3" d="M525.879 337.399C525.879 337.399 536.04 341.017 543.805 339.728C551.569 338.436 588.936 337.706 588.936 337.706L583.063 334.319L569.96 325.208L537.485 327.396L524.957 331.879L525.879 337.399Z" fill="#180D5B"/>
<path d="M565.326 311.815C565.266 311.614 565.098 311.476 564.887 311.471C562.285 311.406 545.398 310.909 539.016 308.709C532.092 306.324 524.757 306.762 524.382 307.163C524.008 307.564 512.484 312.448 511.795 314.432C511.183 316.194 510.078 322.301 511.605 324.555C513.131 326.812 513.855 328.321 513.855 328.321L515.057 328.447C515.057 328.447 516.606 331.493 517.483 332.572C517.867 333.044 518.169 333.564 518.427 334.118C519.156 335.69 520.435 338.28 520.967 338.335C521.733 338.416 525.302 339.124 526.209 338.889C526.95 338.698 527.619 336.434 527.312 335.44C527.227 335.167 527.364 334.918 527.646 334.871C529.289 334.601 533.748 334.039 539.914 334.603C547.425 335.291 558.042 330.39 559.004 329.937C559.053 329.912 559.103 329.9 559.16 329.895L569.752 328.94C570.054 328.912 570.255 328.615 570.171 328.326L565.326 311.815Z" fill="#FCD1C5"/>
<path d="M641.644 218.296C639.094 214.275 637.924 217.244 634.502 220.56C629.885 225.036 624.085 231.979 621.092 240.748C615.644 256.713 617.6 296.612 619.424 302.318C619.424 302.318 568.627 310.622 565.11 310.471C561.594 310.32 569.469 335.299 569.469 335.299C569.469 335.299 650.59 332.661 652.66 331.189C654.729 329.716 655.098 308.88 654.905 296.805C654.741 286.452 654.935 239.254 641.644 218.296Z" fill="#4846A5"/>
<path d="M569.472 335.299C569.472 335.299 650.593 332.661 652.662 331.189C654.731 329.716 655.101 308.88 654.907 296.805C654.771 288.333 654.87 255.189 647.629 231.94C653.319 251.626 650.323 321.249 647.745 324.79C645.16 328.338 568 330.377 568 330.377C568.832 333.27 569.472 335.299 569.472 335.299Z" fill="#24126A"/>
<path opacity="0.3" d="M424.067 293.836C424.067 293.836 453.068 271.208 457.214 269.02C461.363 266.831 463.107 265.17 463.107 265.17L453.398 259.573L436.979 266.314L416.298 286.776L384.46 309.308V314.541C384.46 314.541 410.727 303.285 413.664 301.363C416.603 299.44 424.067 293.836 424.067 293.836Z" fill="#180D5B"/>
<path opacity="0.63" d="M406.774 314.326C406.774 314.326 412.95 308.816 416.937 306.975C420.925 305.134 427.262 300.247 428.04 296.508C428.818 292.769 435.413 284.495 435.413 284.495L424.843 290.585L409.537 299.411L384.058 314.165C384.058 314.165 385.615 315.949 388.839 314.855C392.066 313.762 398.113 309.909 400.935 309.565C403.758 309.221 408.425 308.358 408.425 308.358L406.774 314.326Z" fill="#2D2D2D"/>
<path d="M410.083 270.513C410.083 270.513 409.775 272.556 406.251 274.553C402.727 276.55 393.696 280.999 392.237 282.278C390.774 283.557 384.262 289.263 384.073 290.015C383.882 290.768 381.927 297.231 381.942 297.619C381.957 298.008 382.579 300.994 382.579 300.994L380.571 310.54C380.571 310.54 378.026 314.242 380.792 315.249C383.555 316.258 385.131 313.391 385.176 312.955C385.176 312.955 389.362 310.971 392.43 308.595C395.498 306.217 407.81 296.327 409.899 296.934C411.988 297.54 410.068 301.086 409.064 301.697C408.06 302.308 401.533 308.675 404.266 313.099C407 317.523 408.784 310.6 410.588 309.192C412.395 307.784 416.293 302.241 418.685 301.558C421.076 300.873 425.425 291.96 425.995 287.979C426.565 283.998 429.413 281.432 430.434 280.143C431.455 278.854 428.233 268.959 428.233 268.959L416.045 265.17L411.773 267.942L410.083 270.513Z" fill="#FCD1C5"/>
<path d="M520.107 203.717C520.107 203.717 519.661 185.575 522.757 171.657C521.909 172.315 521.089 173.015 520.335 173.8C515.946 178.367 509.805 184.081 503.885 187.275C492.953 193.176 460.101 211.39 460.101 211.39L454.005 216.111C434.736 231.195 413.21 264.007 410.08 270.515C411.589 268.506 415.46 265.205 422.89 269.149C433.135 274.588 428.256 282.756 428.256 282.756C443.152 272.108 478.589 232.823 478.589 232.823C487.337 230.992 513.607 221.203 516.881 219.979C518.98 214.518 520.216 209.032 520.107 203.717Z" fill="#4846A5"/>
<path d="M335.799 327.324L342.837 330.993L413.403 290.317C414.583 289.637 416.645 289.721 418.01 290.508L539.715 360.663C540.88 360.012 546.191 357.464 546.191 357.464L543.616 364.164L543.606 364.157C543.5 364.454 543.272 364.734 542.888 364.954L468.567 407.795C467.387 408.475 465.323 408.391 463.96 407.604L339.415 335.811C338.855 335.489 338.513 335.098 338.372 334.702L338.362 334.71L335.799 327.324Z" fill="url(#paint14_linear_6005_16250)"/>
<path d="M336.887 328.479L464.527 402.057C465.925 402.863 468.039 402.95 469.249 402.252L545.415 358.345C546.625 357.647 546.474 356.43 545.076 355.623L417.438 282.048C416.04 281.241 413.926 281.155 412.717 281.852L336.548 325.76C335.338 326.455 335.492 327.675 336.887 328.479Z" fill="url(#paint15_linear_6005_16250)"/>
<path d="M336.887 327.744L464.527 401.322C465.925 402.126 468.039 402.215 469.249 401.517L545.415 357.61C545.812 357.382 546.047 357.095 546.156 356.788C546.347 357.36 546.119 357.941 545.415 358.345L469.249 402.252C468.039 402.95 465.925 402.861 464.527 402.057L336.887 328.479C335.948 327.937 335.586 327.212 335.809 326.579C335.948 326.995 336.302 327.408 336.887 327.744Z" fill="white"/>
<path d="M502.475 368.326L396.405 307.182C395.699 306.774 394.826 306.774 394.12 307.182L356.349 329.001C355.806 329.316 355.806 330.098 356.349 330.409L462.369 391.523C463.075 391.932 463.945 391.932 464.651 391.523L502.475 369.732C503.017 369.423 503.017 368.641 502.475 368.326Z" fill="#ADB1F2"/>
<path d="M502.475 369.737L502.095 369.954L396.405 309.031C395.699 308.622 394.826 308.622 394.12 309.031L356.728 330.629L356.349 330.412C355.806 330.1 355.806 329.318 356.349 329.004L394.12 307.185C394.826 306.777 395.699 306.777 396.405 307.185L502.475 368.329C503.017 368.64 503.017 369.422 502.475 369.737Z" fill="#9198DB"/>
<path d="M391.27 312.713L488.973 369.032L493.816 367.102L395.367 310.35L391.27 312.713Z" fill="#24126A"/>
<path d="M381.226 318.5L467.645 368.316L471.742 365.956L385.322 316.14L381.226 318.5Z" fill="#24126A"/>
<path d="M374.683 322.271L476.436 380.926L480.532 378.563L378.78 319.911L374.683 322.271Z" fill="#24126A"/>
<path d="M368.143 326.042L469.893 384.697L473.989 382.334L372.239 323.681L368.143 326.042Z" fill="#24126A"/>
<path d="M361.6 329.813L463.353 388.468L467.449 386.105L365.697 327.452L361.6 329.813Z" fill="#24126A"/>
<path d="M488.973 369.032L493.07 371.392L497.166 369.032L493.07 366.671L488.973 369.032Z" fill="#24126A"/>
<path d="M462.676 365.454L483.025 377.182L487.122 374.822L466.627 363.006L462.676 365.454Z" fill="#24126A"/>
<path d="M464.713 340.928L436.114 324.441C434.997 323.798 434.997 322.751 436.114 322.108L455.673 310.835C456.79 310.191 458.602 310.191 459.72 310.835L488.319 327.321C489.436 327.965 489.436 329.011 488.319 329.655L468.76 340.928C467.643 341.571 465.831 341.571 464.713 340.928Z" fill="url(#paint16_linear_6005_16250)"/>
<path d="M488.318 328.274L459.719 311.787C458.602 311.144 456.79 311.144 455.672 311.787L436.114 323.06C435.77 323.258 435.544 323.498 435.41 323.751C435.115 323.187 435.341 322.553 436.114 322.108L455.672 310.835C456.79 310.189 458.602 310.191 459.719 310.835L488.318 327.321C489.092 327.767 489.317 328.403 489.022 328.967C488.889 328.712 488.663 328.474 488.318 328.274Z" fill="#9198DB"/>
<path d="M336.002 325.436L352.138 229.859L350.842 229.314L352.793 228.198L352.79 228.211C353.169 227.958 353.702 227.976 354.292 228.315L483.243 302.649C484.301 303.261 485.104 304.824 484.919 305.921L468.656 402.257C468.572 402.76 468.322 403.091 467.977 403.237H467.98L466.071 404.338L465.744 402.559L465.853 402.591L337.683 328.707C336.617 328.096 335.816 326.529 336.002 325.436Z" fill="url(#paint17_linear_6005_16250)"/>
<path d="M482.522 305.26L484.641 304.322C484.879 304.864 484.995 305.436 484.914 305.916L468.651 402.252C468.567 402.755 468.317 403.086 467.972 403.232H467.975L466.066 404.333L465.739 402.554L465.848 402.586L459.363 398.848L482.522 305.26Z" fill="url(#paint18_linear_6005_16250)"/>
<path d="M335.655 329.865L464.607 404.197C465.603 404.771 466.456 404.44 466.629 403.41L482.894 307.074C483.08 305.98 482.279 304.414 481.219 303.802L352.267 229.47C351.271 228.896 350.418 229.228 350.245 230.257L333.983 326.594C333.794 327.687 334.595 329.254 335.655 329.865Z" fill="#453C9E"/>
<g opacity="0.6">
<path d="M323.646 510.612L306.447 500.698L310.196 498.535L327.398 508.45L323.646 510.612Z" fill="#42E8E0"/>
<path d="M338.327 519.075L329.725 514.116L333.477 511.953L342.077 516.912L338.327 519.075Z" fill="#42E8E0"/>
<path d="M319.928 518.607L312.6 514.383L316.35 512.221L323.68 516.447L319.928 518.607Z" fill="#42E8E0"/>
<path d="M332.203 525.684L323.604 520.725L327.353 518.565L335.955 523.521L332.203 525.684Z" fill="#42E8E0"/>
<path d="M337.603 538.936L303.805 519.453L307.557 517.291L341.355 536.774L337.603 538.936Z" fill="#42E8E0"/>
<path d="M241.152 577.494L207.353 558.011L211.103 555.849L244.901 575.332L241.152 577.494Z" fill="#42E8E0"/>
<path d="M254.15 584.987L245.548 580.028L249.3 577.865L257.9 582.824L254.15 584.987Z" fill="#42E8E0"/>
<path d="M302.34 528.747L295.012 524.523L298.762 522.361L306.09 526.584L302.34 528.747Z" fill="#42E8E0"/>
<path d="M314.615 535.824L306.015 530.865L309.765 528.702L318.367 533.661L314.615 535.824Z" fill="#42E8E0"/>
<path d="M304.799 540.302L286.217 529.591L289.966 527.431L308.548 538.14L304.799 540.302Z" fill="#42E8E0"/>
<path d="M317.234 547.473L308.635 542.514L312.384 540.352L320.986 545.31L317.234 547.473Z" fill="#42E8E0"/>
<path d="M329.737 554.678L321.138 549.72L324.887 547.559L333.487 552.516L329.737 554.678Z" fill="#42E8E0"/>
<path d="M349.913 566.308L333.638 556.927L337.39 554.765L353.665 564.148L349.913 566.308Z" fill="#42E8E0"/>
<path d="M322.57 570.826L313.971 565.867L317.72 563.705L326.32 568.663L322.57 570.826Z" fill="#42E8E0"/>
<path d="M342.746 582.455L326.471 573.073L330.223 570.912L346.498 580.293L342.746 582.455Z" fill="#42E8E0"/>
<path d="M277.228 544.689L268.628 539.731L272.378 537.568L280.98 542.527L277.228 544.689Z" fill="#42E8E0"/>
<path d="M289.731 551.895L281.131 546.936L284.881 544.776L293.48 549.732L289.731 551.895Z" fill="#42E8E0"/>
<path d="M309.906 563.524L293.631 554.144L297.384 551.981L313.658 561.364L309.906 563.524Z" fill="#42E8E0"/>
<path d="M343.576 572.795L334.976 567.837L338.726 565.674L347.325 570.633L343.576 572.795Z" fill="#42E8E0"/>
<path d="M356.079 580.001L347.477 575.045L351.229 572.882L359.828 577.838L356.079 580.001Z" fill="#42E8E0"/>
<path d="M376.254 591.63L359.979 582.25L363.729 580.087L380.004 589.47L376.254 591.63Z" fill="#42E8E0"/>
<path d="M267.605 592.744L259.005 587.785L262.755 585.622L271.357 590.581L267.605 592.744Z" fill="#42E8E0"/>
<path d="M287.78 604.373L271.508 594.99L275.258 592.83L291.532 602.211L287.78 604.373Z" fill="#42E8E0"/>
<path d="M259.64 554.827L251.04 549.868L254.79 547.708L263.389 552.664L259.64 554.827Z" fill="#42E8E0"/>
<path d="M279.815 566.456L263.54 557.076L267.293 554.913L283.567 564.296L279.815 566.456Z" fill="#42E8E0"/>
<path d="M269.743 604.113L261.141 599.155L264.894 596.995L273.493 601.951L269.743 604.113Z" fill="#42E8E0"/>
<path d="M363.315 553.755L354.713 548.799L358.465 546.637L367.065 551.593L363.315 553.755Z" fill="#42E8E0"/>
<path d="M350.312 546.26L341.71 541.302L345.462 539.142L354.061 544.098L350.312 546.26Z" fill="#42E8E0"/>
<path d="M383.491 565.387L367.216 556.004L370.968 553.842L387.24 563.225L383.491 565.387Z" fill="#42E8E0"/>
<path d="M285.183 539.134L277.421 534.661L281.173 532.498L288.933 536.972L285.183 539.134Z" fill="#42E8E0"/>
<path d="M308.194 552.399L289.332 541.525L293.081 539.364L311.943 550.237L308.194 552.399Z" fill="#42E8E0"/>
<path d="M331.202 565.662L312.342 554.79L316.092 552.627L334.954 563.499L331.202 565.662Z" fill="#42E8E0"/>
<path d="M395.443 572.276L387.684 567.802L391.434 565.642L399.193 570.113L395.443 572.276Z" fill="#42E8E0"/>
<path d="M418.454 585.541L399.592 574.668L403.344 572.506L422.204 583.378L418.454 585.541Z" fill="#42E8E0"/>
<path d="M441.465 598.803L422.603 587.931L426.355 585.771L445.214 596.643L441.465 598.803Z" fill="#42E8E0"/>
<path d="M278.861 555.769L260.001 544.897L263.751 542.734L282.613 553.607L278.861 555.769Z" fill="#42E8E0"/>
<path d="M288.804 561.5L283.012 558.16L286.762 555.997L292.553 559.337L288.804 561.5Z" fill="#42E8E0"/>
<path d="M298.769 567.243L292.975 563.903L296.727 561.742L302.519 565.08L298.769 567.243Z" fill="#42E8E0"/>
<path d="M317.19 577.863L302.94 569.648L306.689 567.485L320.939 575.7L317.19 577.863Z" fill="#42E8E0"/>
<path d="M321.061 580.095L306.811 571.88L310.563 569.717L324.813 577.932L321.061 580.095Z" fill="#42E8E0"/>
<path d="M359.531 571.853L353.739 568.515L357.489 566.352L363.283 569.69L359.531 571.853Z" fill="#42E8E0"/>
<path d="M377.954 582.473L363.704 574.258L367.454 572.095L381.704 580.31L377.954 582.473Z" fill="#42E8E0"/>
<path d="M381.825 584.704L367.575 576.49L371.325 574.327L385.577 582.542L381.825 584.704Z" fill="#42E8E0"/>
<path d="M238.802 596.418L220.223 585.707L223.973 583.544L242.554 594.256L238.802 596.418Z" fill="#42E8E0"/>
<path d="M251.241 603.586L242.641 598.63L246.391 596.468L254.99 601.426L251.241 603.586Z" fill="#42E8E0"/>
<path d="M195.725 591.863L187.123 586.904L190.875 584.744L199.475 589.7L195.725 591.863Z" fill="#42E8E0"/>
<path d="M208.226 599.071L199.626 594.112L203.376 591.949L211.978 596.908L208.226 599.071Z" fill="#42E8E0"/>
<path d="M228.404 610.7L212.129 601.32L215.879 599.157L232.153 608.538L228.404 610.7Z" fill="#42E8E0"/>
<path d="M219.187 595.25L211.428 590.777L215.18 588.614L222.939 593.088L219.187 595.25Z" fill="#42E8E0"/>
<path d="M242.198 608.513L223.338 597.64L227.088 595.48L245.95 606.353L242.198 608.513Z" fill="#42E8E0"/>
<path d="M182.144 594.174L163.285 583.302L167.034 581.139L185.894 592.011L182.144 594.174Z" fill="#42E8E0"/>
<path d="M192.087 599.905L186.293 596.567L190.045 594.404L195.837 597.742L192.087 599.905Z" fill="#42E8E0"/>
<path d="M219.564 575.188L213.772 571.848L217.522 569.688L223.313 573.026L219.564 575.188Z" fill="#42E8E0"/>
<path d="M237.985 585.808L223.735 577.593L227.487 575.431L241.737 583.646L237.985 585.808Z" fill="#42E8E0"/>
<path d="M256.807 596.656L242.554 588.441L246.307 586.281L260.557 594.496L256.807 596.656Z" fill="#42E8E0"/>
<path d="M233.256 549.757L227.464 546.419L231.214 544.256L237.006 547.594L233.256 549.757Z" fill="#42E8E0"/>
<path d="M251.677 560.377L237.427 552.162L241.177 549.999L255.429 558.214L251.677 560.377Z" fill="#42E8E0"/>
<path d="M270.499 571.224L256.247 563.009L259.999 560.849L274.249 569.064L270.499 571.224Z" fill="#42E8E0"/>
</g>
<path d="M37.7907 529.813C35.4909 529.813 33.2902 529.348 31.6496 528.403L16.6611 519.765C14.9808 518.795 14.0564 517.434 14.0564 515.925C14.0564 514.143 15.36 512.372 17.6325 511.063L62.2214 485.357C66.3675 482.966 72.6796 482.714 76.2855 484.795L91.274 493.435C92.9518 494.403 93.8762 495.764 93.8762 497.273C93.8762 499.055 92.5751 500.826 90.3026 502.138L45.7112 527.841C43.4535 529.145 40.549 529.813 37.7907 529.813ZM70.1493 484.404C67.5794 484.404 64.8632 485.03 62.7443 486.25L18.1554 511.956C16.2125 513.077 15.0972 514.522 15.0972 515.925C15.0972 517.048 15.8383 518.095 17.184 518.869L32.1725 527.507C35.4933 529.415 41.3346 529.17 45.1982 526.946L89.7896 501.242C91.7325 500.121 92.8453 498.674 92.8453 497.273C92.8453 496.15 92.1043 495.106 90.761 494.331L75.7725 485.691C74.2732 484.827 72.2583 484.404 70.1493 484.404Z" fill="#42E8E0"/>
<path d="M118.255 576.195C115.953 576.195 113.757 575.73 112.114 574.785L62.1396 545.978C60.4594 545.008 59.5349 543.647 59.5349 542.138C59.5349 540.357 60.8385 538.585 63.1086 537.276L107.7 511.57C111.849 509.182 118.156 508.927 121.764 511.008L171.738 539.817C173.416 540.785 174.34 542.146 174.34 543.655C174.34 545.436 173.039 547.208 170.767 548.519L126.175 574.223C123.915 575.527 121.011 576.195 118.255 576.195ZM115.625 510.62C113.055 510.62 110.339 511.246 108.22 512.466L63.629 538.172C61.6886 539.293 60.5733 540.738 60.5733 542.138C60.5733 543.261 61.3143 544.308 62.66 545.083L112.634 573.889C115.955 575.804 121.801 575.557 125.66 573.327L170.251 547.624C172.194 546.503 173.307 545.055 173.307 543.655C173.307 542.534 172.566 541.487 171.223 540.71L121.249 511.904C119.749 511.043 117.737 510.62 115.625 510.62Z" fill="#42E8E0"/>
<path d="M192.1 533.495C189.683 533.495 187.376 533.01 185.651 532.015L90.8552 477.372C89.0981 476.36 88.1292 474.935 88.1292 473.356C88.1292 471.49 89.4947 469.634 91.8763 468.261L184.625 414.798C188.974 412.286 195.599 412.021 199.393 414.209L294.192 468.855C295.949 469.867 296.918 471.292 296.918 472.868C296.918 474.734 295.55 476.59 293.168 477.963L200.419 531.427C198.045 532.795 194.997 533.495 192.1 533.495ZM186.169 531.122C189.671 533.134 195.834 532.877 199.901 530.533L292.65 477.07C294.702 475.885 295.882 474.356 295.882 472.871C295.882 471.681 295.099 470.572 293.674 469.751L198.875 415.105C195.373 413.085 189.215 413.353 185.143 415.693L92.3942 469.157C90.3422 470.342 89.1651 471.871 89.1651 473.356C89.1651 474.549 89.9482 475.657 91.3732 476.479L186.169 531.122Z" fill="#42E8E0"/>
<defs>
<linearGradient id="paint0_linear_6005_16250" x1="360.315" y1="183.988" x2="891.154" y2="183.988" gradientUnits="userSpaceOnUse">
<stop stop-color="#42E8E0"/>
<stop offset="0.1055" stop-color="#37B6BF"/>
<stop offset="0.2197" stop-color="#2C87A1"/>
<stop offset="0.338" stop-color="#235F87"/>
<stop offset="0.4587" stop-color="#1C3F72"/>
<stop offset="0.5824" stop-color="#162561"/>
<stop offset="0.7105" stop-color="#121355"/>
<stop offset="0.8458" stop-color="#10084E"/>
<stop offset="1" stop-color="#0F054C"/>
</linearGradient>
<linearGradient id="paint1_linear_6005_16250" x1="325.204" y1="203.627" x2="856.043" y2="203.627" gradientUnits="userSpaceOnUse">
<stop stop-color="#42E8E0"/>
<stop offset="0.1055" stop-color="#37B6BF"/>
<stop offset="0.2197" stop-color="#2C87A1"/>
<stop offset="0.338" stop-color="#235F87"/>
<stop offset="0.4587" stop-color="#1C3F72"/>
<stop offset="0.5824" stop-color="#162561"/>
<stop offset="0.7105" stop-color="#121355"/>
<stop offset="0.8458" stop-color="#10084E"/>
<stop offset="1" stop-color="#0F054C"/>
</linearGradient>
<linearGradient id="paint2_linear_6005_16250" x1="572.538" y1="432.544" x2="418.166" y2="470.28" gradientUnits="userSpaceOnUse">
<stop stop-color="#5761D7"/>
<stop offset="0.1779" stop-color="#5C66D9"/>
<stop offset="0.3876" stop-color="#6A73DF"/>
<stop offset="0.6134" stop-color="#8289E8"/>
<stop offset="0.849" stop-color="#A3A7F5"/>
<stop offset="1" stop-color="#BCBEFF"/>
</linearGradient>
<linearGradient id="paint3_linear_6005_16250" x1="573.69" y1="418.784" x2="744.62" y2="418.784" gradientUnits="userSpaceOnUse">
<stop stop-color="#5761D7"/>
<stop offset="0.1779" stop-color="#5C66D9"/>
<stop offset="0.3876" stop-color="#6A73DF"/>
<stop offset="0.6134" stop-color="#8289E8"/>
<stop offset="0.849" stop-color="#A3A7F5"/>
<stop offset="1" stop-color="#BCBEFF"/>
</linearGradient>
<linearGradient id="paint4_linear_6005_16250" x1="554.421" y1="415.107" x2="514.529" y2="376.486" gradientUnits="userSpaceOnUse">
<stop stop-color="#5761D7"/>
<stop offset="0.1779" stop-color="#5C66D9"/>
<stop offset="0.3876" stop-color="#6A73DF"/>
<stop offset="0.6134" stop-color="#8289E8"/>
<stop offset="0.849" stop-color="#A3A7F5"/>
<stop offset="1" stop-color="#BCBEFF"/>
</linearGradient>
<linearGradient id="paint5_linear_6005_16250" x1="575.77" y1="453.65" x2="724.189" y2="453.65" gradientUnits="userSpaceOnUse">
<stop stop-color="#5761D7"/>
<stop offset="0.1779" stop-color="#5C66D9"/>
<stop offset="0.3876" stop-color="#6A73DF"/>
<stop offset="0.6134" stop-color="#8289E8"/>
<stop offset="0.849" stop-color="#A3A7F5"/>
<stop offset="1" stop-color="#BCBEFF"/>
</linearGradient>
<linearGradient id="paint6_linear_6005_16250" x1="555.003" y1="470.323" x2="582.975" y2="470.323" gradientUnits="userSpaceOnUse">
<stop stop-color="#5761D7"/>
<stop offset="0.1779" stop-color="#5C66D9"/>
<stop offset="0.3876" stop-color="#6A73DF"/>
<stop offset="0.6134" stop-color="#8289E8"/>
<stop offset="0.849" stop-color="#A3A7F5"/>
<stop offset="1" stop-color="#BCBEFF"/>
</linearGradient>
<linearGradient id="paint7_linear_6005_16250" x1="564.061" y1="442.599" x2="759.673" y2="442.599" gradientUnits="userSpaceOnUse">
<stop stop-color="#C0BFF6"/>
<stop offset="0.2938" stop-color="#C5C4F7"/>
<stop offset="0.6399" stop-color="#D3D2F9"/>
<stop offset="1" stop-color="#E9E9FD"/>
</linearGradient>
<linearGradient id="paint8_linear_6005_16250" x1="466.42" y1="269.02" x2="540.432" y2="269.02" gradientUnits="userSpaceOnUse">
<stop stop-color="#E9E9FD"/>
<stop offset="0.3601" stop-color="#D3D2F9"/>
<stop offset="0.7062" stop-color="#C5C4F7"/>
<stop offset="1" stop-color="#C0BFF6"/>
</linearGradient>
<linearGradient id="paint9_linear_6005_16250" x1="627.756" y1="147.579" x2="557.683" y2="328.184" gradientUnits="userSpaceOnUse">
<stop offset="0.3548" stop-color="#BCBEFF"/>
<stop offset="0.4438" stop-color="#B5B8FC"/>
<stop offset="0.5698" stop-color="#A3A7F5"/>
<stop offset="0.6975" stop-color="#898FEB"/>
<stop offset="0.8593" stop-color="#6069DB"/>
<stop offset="0.8925" stop-color="#5761D7"/>
</linearGradient>
<linearGradient id="paint10_linear_6005_16250" x1="590.407" y1="340.098" x2="664.42" y2="340.098" gradientUnits="userSpaceOnUse">
<stop stop-color="#E9E9FD"/>
<stop offset="0.3601" stop-color="#D3D2F9"/>
<stop offset="0.7062" stop-color="#C5C4F7"/>
<stop offset="1" stop-color="#C0BFF6"/>
</linearGradient>
<linearGradient id="paint11_linear_6005_16250" x1="206.79" y1="357.268" x2="710.991" y2="357.268" gradientUnits="userSpaceOnUse">
<stop stop-color="#42E8E0"/>
<stop offset="0.1507" stop-color="#43E3E0"/>
<stop offset="0.3285" stop-color="#45D5DF"/>
<stop offset="0.5199" stop-color="#49BDDD"/>
<stop offset="0.7209" stop-color="#4E9CDB"/>
<stop offset="0.9274" stop-color="#5472D8"/>
<stop offset="1" stop-color="#5761D7"/>
</linearGradient>
<linearGradient id="paint12_linear_6005_16250" x1="132.125" y1="391.876" x2="636.326" y2="391.876" gradientUnits="userSpaceOnUse">
<stop offset="0.3548" stop-color="#BCBEFF"/>
<stop offset="0.4438" stop-color="#B5B8FC"/>
<stop offset="0.5698" stop-color="#A3A7F5"/>
<stop offset="0.6975" stop-color="#898FEB"/>
<stop offset="0.8593" stop-color="#6069DB"/>
<stop offset="0.8925" stop-color="#5761D7"/>
</linearGradient>
<linearGradient id="paint13_linear_6005_16250" x1="206.79" y1="344.627" x2="710.991" y2="344.627" gradientUnits="userSpaceOnUse">
<stop stop-color="#E9E9FD"/>
<stop offset="0.3601" stop-color="#D3D2F9"/>
<stop offset="0.7062" stop-color="#C5C4F7"/>
<stop offset="1" stop-color="#C0BFF6"/>
</linearGradient>
<linearGradient id="paint14_linear_6005_16250" x1="546.19" y1="349.057" x2="335.8" y2="349.057" gradientUnits="userSpaceOnUse">
<stop stop-color="#5761D7"/>
<stop offset="0.1779" stop-color="#5C66D9"/>
<stop offset="0.3876" stop-color="#6A73DF"/>
<stop offset="0.6134" stop-color="#8289E8"/>
<stop offset="0.849" stop-color="#A3A7F5"/>
<stop offset="1" stop-color="#BCBEFF"/>
</linearGradient>
<linearGradient id="paint15_linear_6005_16250" x1="475.498" y1="342.053" x2="264.996" y2="342.053" gradientUnits="userSpaceOnUse">
<stop stop-color="#C0BFF6"/>
<stop offset="0.2938" stop-color="#C5C4F7"/>
<stop offset="0.6399" stop-color="#D3D2F9"/>
<stop offset="1" stop-color="#E9E9FD"/>
</linearGradient>
<linearGradient id="paint16_linear_6005_16250" x1="489.156" y1="325.88" x2="435.273" y2="325.88" gradientUnits="userSpaceOnUse">
<stop stop-color="#C0BFF6"/>
<stop offset="0.2938" stop-color="#C5C4F7"/>
<stop offset="0.6399" stop-color="#D3D2F9"/>
<stop offset="1" stop-color="#E9E9FD"/>
</linearGradient>
<linearGradient id="paint17_linear_6005_16250" x1="484.943" y1="316.185" x2="335.976" y2="316.185" gradientUnits="userSpaceOnUse">
<stop stop-color="#C0BFF6"/>
<stop offset="0.2938" stop-color="#C5C4F7"/>
<stop offset="0.6399" stop-color="#D3D2F9"/>
<stop offset="1" stop-color="#E9E9FD"/>
</linearGradient>
<linearGradient id="paint18_linear_6005_16250" x1="484.942" y1="354.328" x2="459.363" y2="354.328" gradientUnits="userSpaceOnUse">
<stop stop-color="#5761D7"/>
<stop offset="0.1779" stop-color="#5C66D9"/>
<stop offset="0.3876" stop-color="#6A73DF"/>
<stop offset="0.6134" stop-color="#8289E8"/>
<stop offset="0.849" stop-color="#A3A7F5"/>
<stop offset="1" stop-color="#BCBEFF"/>
</linearGradient>
</defs>
</svg>
