<svg width="1880" height="491" viewBox="0 0 1880 491" fill="none" xmlns="http://www.w3.org/2000/svg">
<g opacity="0.1">
<g clip-path="url(#clip0_12008_16662)">
<path d="M1725.71 532.572C1520.48 650.11 1409.84 1054.71 1492.26 1261.55C1583.33 1489.97 2152.75 1455.27 2218.09 1399.58C2283.42 1343.88 1749.26 1165.65 1822.15 955.479C1903.11 722.195 2309.6 721.875 2298.53 622.262C2287.65 524.249 1962.94 396.724 1725.71 532.572Z" stroke="#8F9AD5" stroke-miterlimit="10"/>
<path d="M1661.47 503.829C1420.91 606.259 1316.54 1096 1422.57 1326.72C1542.76 1588.05 2161.39 1491.19 2253.22 1449.83C2332.38 1414.24 1818.51 1174.55 1879.94 920.59C1946.62 644.67 2313.25 599.857 2285.86 535.839C2256.42 467.211 1943.74 383.923 1661.47 503.829Z" stroke="#8F9AD5" stroke-miterlimit="10"/>
<path d="M1597.22 475.151C1321.72 562.152 1223.43 1137.23 1352.89 1391.83C1502.44 1686.32 2165.1 1526.27 2288.36 1500.15C2377.95 1480.95 1888.2 1183.77 1937.67 885.574C1990.46 567.53 2325.15 474.255 2273.19 449.864C2234.41 406.651 1925.57 371.377 1597.22 475.151Z" stroke="#8F9AD5" stroke-miterlimit="10"/>
<path d="M1532.97 446.215C1222.72 518.428 1130.51 1178.2 1283.39 1456.81C1462.57 1783.82 2177.58 1607.58 2323.68 1550.28C2415.19 1514.36 1958.34 1192.86 1995.58 850.62C2034.81 490.452 2333.09 350.379 2260.71 363.631C2207.79 347.818 1907.33 359.213 1532.97 446.215Z" stroke="#8F9AD5" stroke-miterlimit="10"/>
<path d="M1468.71 417.662C1123.85 475.279 1037.71 1219.43 1213.5 1522.17C1422.38 1881.96 2173.42 1646.24 2358.62 1600.73C2462.54 1575.12 2028.28 1202.4 2053.17 815.921C2078.77 413.629 2347.54 242.891 2247.84 277.653C2183.97 299.868 1889.22 347.37 1468.71 417.662Z" stroke="#8F9AD5" stroke-miterlimit="10"/>
<path d="M1404.53 388.918C1024.98 432.258 944.991 1260.53 1143.82 1587.28C1382.58 1979.78 2170.42 1616.35 2393.82 1651.3C2509.59 1669.29 2098.68 1212 2110.97 781.223C2123.76 336.934 2357.34 116.006 2235.18 191.804C2159.15 238.666 1871.18 335.718 1404.53 388.918Z" stroke="#8F9AD5" stroke-miterlimit="10"/>
<path d="M1340.29 360.238C926.116 389.303 852.33 1301.31 1074.07 1652.45C1342.85 2077.54 2173.17 1642.72 2428.89 1701.3C2554 1729.98 2169.01 1221.16 2168.63 746.078C2168.24 259.537 2365.09 -10.6212 2222.45 105.38C2132.98 178.17 1853.14 324.196 1340.29 360.238Z" stroke="#8F9AD5" stroke-miterlimit="10"/>
<path d="M1276.02 331.493C827.232 346.473 759.847 1342.47 1004.37 1717.62C1302.97 2175.29 2176.61 1668.14 2464.01 1751.62C2598.78 1790.73 2239.52 1230.38 2226.4 711.187C2213.03 182.65 2372.31 -136.226 2209.76 19.2747C2106.35 118.119 1834.95 312.864 1276.02 331.493Z" stroke="#8F9AD5" stroke-miterlimit="10"/>
<path d="M1211.78 302.748C728.368 303.708 667.061 1383.45 934.685 1782.79C1263.23 2273.05 2180.65 1693.17 2499.15 1802C2643.91 1851.49 2310.11 1239.79 2284.13 676.361C2257.83 105.699 2379.42 -261.255 2197.1 -66.831C2079.48 58.4533 1816.97 301.596 1211.78 302.748Z" stroke="#8F9AD5" stroke-miterlimit="10"/>
<path d="M1147.53 274.068C629.174 261.265 574.459 1424.35 864.993 1847.9C1223.36 2370.68 2185.19 1717.5 2534.28 1852.19C2689.28 1911.98 2380.7 1249.01 2341.85 641.407C2302.69 28.6212 2386.65 -386.155 2184.36 -153.063C2052.53 -1.01935 1798.86 290.457 1147.53 274.068Z" stroke="#8F9AD5" stroke-miterlimit="10"/>
<path d="M1083.28 245.324C530.496 218.372 481.732 1465.26 795.304 1913.07C1183.88 2468.37 2190.38 1741.76 2569.42 1902.51C2734.84 1972.54 2451.41 1258.29 2399.64 606.516C2347.61 -48.4575 2393.62 -510.736 2171.69 -239.169C2025.53 -60.3651 1780.69 279.381 1083.28 245.324Z" stroke="#8F9AD5" stroke-miterlimit="10"/>
<path d="M1019.02 216.578C431.558 175.734 389.385 1506.17 725.611 1978.24C1144.26 2566 2195.3 1765.83 2604.55 1952.63C2780.47 2033.04 2522.06 1267.63 2457.36 571.433C2392.53 -125.666 2400.72 -635.381 2159.02 -325.467C1998.58 -119.648 1762.51 268.305 1019.02 216.578Z" stroke="#8F9AD5" stroke-miterlimit="10"/>
<path d="M954.783 187.897C332.567 133.161 296.858 1547.33 655.93 2043.35C1104.66 2663.62 2200.75 1789.83 2639.75 2003.08C2826.36 2093.73 2592.84 1276.79 2515.15 536.671C2437.47 -203.448 2407.84 -759.642 2146.36 -411.637C1971.59 -178.865 1744.34 257.357 954.783 187.897Z" stroke="#8F9AD5" stroke-miterlimit="10"/>
<path d="M890.533 159.153C233.569 90.5894 204.323 1587.92 586.177 2108.52C1065.05 2761.51 2206.45 1814.03 2674.82 2053.4C2872.24 2154.36 2663.56 1286.01 2572.88 501.781C2482.45 -279.694 2415 -883.901 2133.62 -497.613C1944.58 -238.018 1726.17 246.347 890.533 159.153Z" stroke="#8F9AD5" stroke-miterlimit="10"/>
<path d="M826.272 130.41C134.559 48.0183 112.801 1628.06 516.668 2173.69C1026.89 2857.92 2212.52 1837.59 2710.13 2103.65C2918.37 2214.98 2734.52 1295.23 2630.78 466.892C2527.62 -356.771 2422.35 -1008.22 2121.13 -583.781C1917.57 -297.17 1707.86 235.465 826.272 130.41Z" stroke="#8F9AD5" stroke-miterlimit="10"/>
<path d="M762.03 101.73C35.5675 5.50975 20.2089 1668.97 446.794 2238.73C986.97 2955.74 2218.22 1861.02 2745.08 2153.84C2964.26 2275.48 2805.11 1304.32 2688.32 431.745C2572.49 -434.17 2429.34 -1132.68 2108.28 -670.206C1890.57 -356.323 1689.63 224.517 762.03 101.73Z" stroke="#8F9AD5" stroke-miterlimit="10"/>
<path d="M697.78 72.9847C-63.7511 -36.9992 -72.4543 1709.94 377.105 2303.97C947.23 3052.99 2224.23 1885.22 2780.22 2204.23C3010.6 2336.3 2877.42 1313.47 2746.04 397.047C2619.01 -511.249 2436.5 -1256.68 2095.61 -756.056C1863.56 -415.413 1671.32 213.634 697.78 72.9847Z" stroke="#8F9AD5" stroke-miterlimit="10"/>
<path d="M633.533 44.2427C-162.747 -78.0968 -165.114 1750.91 307.419 2369.14C907.493 3151.06 2230.38 1909.04 2815.42 2254.55C3056.48 2396.92 2947.88 1322.69 2803.83 362.159C2663.75 -588.325 2443.67 -1380.81 2082.87 -842.223C1836.56 -474.5 1652.77 204.545 633.533 44.2427Z" stroke="#8F9AD5" stroke-miterlimit="10"/>
<path d="M569.272 15.5606C-261.757 -120.927 -257.661 1791.82 237.718 2434.31C867.677 3248.75 2236.58 1932.79 2850.54 2304.86C3102.61 2457.61 3018.39 1331.78 2861.54 327.267C2708.47 -665.405 2450.89 -1505.01 2070.19 -928.329C1809.35 -533.271 1634.52 193.276 569.272 15.5606Z" stroke="#8F9AD5" stroke-miterlimit="10"/>
<path d="M505.025 -13.1832C-360.753 -163.755 -350.386 1832.79 168.031 2499.42C827.94 3346.26 2242.92 1956.6 2885.67 2355.12C3148.82 2518.3 3089.24 1341.19 2919.27 292.569C2752.89 -742.291 2457.04 -1629.65 2057.52 -1014.31C1781.77 -593.128 1616.28 181.945 505.025 -13.1832Z" stroke="#8F9AD5" stroke-miterlimit="10"/>
<path d="M440.781 -41.9286C-459.745 -206.776 -443.235 1873.83 98.3483 2564.59C788.206 3444.14 2249.26 1980.42 2920.81 2405.18C3195.09 2578.8 3159.45 1350.16 2977.06 257.23C2797.94 -819.626 2464.79 -1753.59 2044.86 -1100.67C1755.16 -651.898 1598.18 170.933 440.781 -41.9286Z" stroke="#8F9AD5" stroke-miterlimit="10"/>
<path d="M2032.12 -1186.77C1728.53 -710.73 1579.75 159.346 376.527 -70.6087C-558.812 -249.413 -535.71 1914.67 28.5906 2629.76C748.462 3541.9 2255.59 2004.23 2955.94 2455.69C3522.29 2820.85 2919.91 -2578.98 2032.12 -1186.77Z" stroke="#8F9AD5" stroke-miterlimit="10"/>
</g>
</g>
<defs>
<clipPath id="clip0_12008_16662">
<rect y="-3" width="1880" height="851" rx="50" fill="white"/>
</clipPath>
</defs>
</svg>
