<svg width="1380" height="600" viewBox="0 0 1380 600" fill="none" xmlns="http://www.w3.org/2000/svg">
<g opacity="0.05">
<g clip-path="url(#clip0_6005_16226)">
<path d="M1661.47 506.829C1420.91 609.259 1316.54 1099 1422.57 1329.72C1542.76 1591.05 2161.39 1494.19 2253.22 1452.83C2332.38 1417.24 1818.51 1177.55 1879.94 923.59C1946.62 647.67 2313.25 602.857 2285.86 538.839C2256.42 470.211 1943.74 386.923 1661.47 506.829Z" stroke="white" stroke-miterlimit="10"/>
<path d="M1597.22 478.151C1321.72 565.152 1223.43 1140.23 1352.89 1394.83C1502.44 1689.32 2165.1 1529.27 2288.36 1503.15C2377.95 1483.95 1888.2 1186.77 1937.67 888.574C1990.46 570.53 2325.15 477.255 2273.19 452.864C2234.41 409.651 1925.57 374.377 1597.22 478.151Z" stroke="white" stroke-miterlimit="10"/>
<path d="M1532.97 449.215C1222.72 521.428 1130.51 1181.2 1283.39 1459.81C1462.57 1786.82 2177.58 1610.58 2323.68 1553.28C2415.19 1517.36 1958.34 1195.86 1995.58 853.62C2034.81 493.452 2333.09 353.379 2260.71 366.631C2207.79 350.818 1907.33 362.214 1532.97 449.215Z" stroke="white" stroke-miterlimit="10"/>
<path d="M1468.71 420.662C1123.85 478.279 1037.71 1222.43 1213.5 1525.17C1422.38 1884.96 2173.42 1649.24 2358.62 1603.73C2462.54 1578.12 2028.28 1205.4 2053.17 818.921C2078.77 416.629 2347.54 245.891 2247.84 280.653C2183.97 302.868 1889.22 350.37 1468.71 420.662Z" stroke="white" stroke-miterlimit="10"/>
<path d="M1404.53 391.917C1024.98 435.258 944.991 1263.53 1143.82 1590.28C1382.58 1982.78 2170.42 1619.35 2393.82 1654.3C2509.59 1672.29 2098.68 1215 2110.97 784.223C2123.76 339.934 2357.34 119.006 2235.18 194.804C2159.15 241.666 1871.18 338.718 1404.53 391.917Z" stroke="white" stroke-miterlimit="10"/>
<path d="M1340.29 363.238C926.116 392.303 852.33 1304.31 1074.07 1655.45C1342.85 2080.54 2173.17 1645.72 2428.89 1704.3C2554 1732.98 2169.01 1224.16 2168.63 749.078C2168.24 262.537 2365.09 -7.62157 2222.45 108.38C2132.98 181.169 1853.14 327.196 1340.29 363.238Z" stroke="white" stroke-miterlimit="10"/>
<path d="M1276.02 334.493C827.232 349.473 759.847 1345.47 1004.37 1720.62C1302.97 2178.29 2176.61 1671.14 2464.01 1754.62C2598.78 1793.73 2239.52 1233.38 2226.4 714.187C2213.03 185.65 2372.31 -133.227 2209.76 22.2744C2106.35 121.119 1834.95 315.864 1276.02 334.493Z" stroke="white" stroke-miterlimit="10"/>
<path d="M1211.78 305.748C728.368 306.708 667.061 1386.45 934.685 1785.79C1263.23 2276.05 2180.65 1696.17 2499.15 1805C2643.91 1854.49 2310.11 1242.79 2284.13 679.36C2257.83 108.699 2379.42 -258.256 2197.1 -63.8315C2079.48 61.4528 1816.97 304.595 1211.78 305.748Z" stroke="white" stroke-miterlimit="10"/>
<path d="M1147.53 277.069C629.174 264.265 574.459 1427.35 864.993 1850.9C1223.36 2373.68 2185.19 1720.5 2534.28 1855.19C2689.28 1914.98 2380.7 1252.01 2341.85 644.407C2302.69 31.6216 2386.65 -383.155 2184.36 -150.063C2052.53 1.98101 1798.86 293.457 1147.53 277.069Z" stroke="white" stroke-miterlimit="10"/>
<path d="M1083.28 248.324C530.496 221.372 481.732 1468.26 795.304 1916.07C1183.88 2471.37 2190.38 1744.76 2569.42 1905.51C2734.84 1975.54 2451.41 1261.29 2399.64 609.517C2347.61 -45.4573 2393.62 -507.735 2171.69 -236.169C2025.53 -57.3648 1780.69 282.382 1083.28 248.324Z" stroke="white" stroke-miterlimit="10"/>
<path d="M1019.02 219.578C431.558 178.734 389.385 1509.17 725.611 1981.24C1144.26 2569 2195.3 1768.83 2604.55 1955.63C2780.47 2036.04 2522.06 1270.64 2457.36 574.433C2392.53 -122.665 2400.72 -632.381 2159.02 -322.467C1998.58 -116.647 1762.51 271.305 1019.02 219.578Z" stroke="white" stroke-miterlimit="10"/>
<path d="M954.783 190.898C332.567 136.162 296.858 1550.33 655.93 2046.35C1104.66 2666.62 2200.75 1792.83 2639.75 2006.08C2826.36 2096.73 2592.84 1279.79 2515.15 539.671C2437.47 -200.448 2407.84 -756.641 2146.36 -408.636C1971.59 -175.865 1744.34 260.358 954.783 190.898Z" stroke="white" stroke-miterlimit="10"/>
<path d="M890.533 162.153C233.569 93.5894 204.323 1590.92 586.177 2111.52C1065.05 2764.51 2206.45 1817.03 2674.82 2056.4C2872.24 2157.36 2663.56 1289.01 2572.88 504.781C2482.45 -276.694 2415 -880.901 2133.62 -494.613C1944.58 -235.018 1726.17 249.347 890.533 162.153Z" stroke="white" stroke-miterlimit="10"/>
<path d="M826.272 133.411C134.559 51.0187 112.801 1631.06 516.668 2176.69C1026.89 2860.92 2212.52 1840.59 2710.13 2106.65C2918.37 2217.98 2734.52 1298.23 2630.78 469.892C2527.62 -353.771 2422.35 -1005.22 2121.13 -580.78C1917.57 -294.169 1707.86 238.465 826.272 133.411Z" stroke="white" stroke-miterlimit="10"/>
<path d="M762.03 104.729C35.5675 8.50945 20.2089 1671.97 446.794 2241.73C986.97 2958.74 2218.22 1864.02 2745.08 2156.84C2964.26 2278.48 2805.11 1307.32 2688.32 434.745C2572.49 -431.17 2429.34 -1129.68 2108.28 -667.207C1890.57 -353.324 1689.63 227.517 762.03 104.729Z" stroke="white" stroke-miterlimit="10"/>
<path d="M697.78 75.9843C-63.7511 -33.9996 -72.4543 1712.94 377.105 2306.97C947.23 3055.99 2224.23 1888.22 2780.22 2207.23C3010.6 2339.3 2877.42 1316.47 2746.04 400.046C2619.01 -508.249 2436.5 -1253.68 2095.61 -753.056C1863.56 -412.413 1671.32 216.633 697.78 75.9843Z" stroke="white" stroke-miterlimit="10"/>
<path d="M633.533 47.243C-162.747 -75.0965 -165.114 1753.91 307.419 2372.14C907.493 3154.06 2230.38 1912.04 2815.42 2257.55C3056.48 2399.93 2947.88 1325.69 2803.83 365.159C2663.75 -585.325 2443.67 -1377.81 2082.87 -839.222C1836.56 -471.5 1652.77 207.545 633.533 47.243Z" stroke="white" stroke-miterlimit="10"/>
<path d="M569.272 18.5605C-261.757 -117.927 -257.661 1794.82 237.718 2437.31C867.677 3251.75 2236.58 1935.79 2850.54 2307.86C3102.61 2460.61 3018.39 1334.78 2861.54 330.267C2708.47 -662.405 2450.89 -1502.01 2070.19 -925.329C1809.35 -530.271 1634.52 196.276 569.272 18.5605Z" stroke="white" stroke-miterlimit="10"/>
<path d="M505.025 -10.1832C-360.753 -160.755 -350.386 1835.79 168.031 2502.42C827.94 3349.26 2242.92 1959.6 2885.67 2358.12C3148.82 2521.3 3089.24 1344.19 2919.27 295.569C2752.89 -739.291 2457.04 -1626.65 2057.52 -1011.31C1781.77 -590.128 1616.28 184.945 505.025 -10.1832Z" stroke="white" stroke-miterlimit="10"/>
<path d="M440.781 -38.9285C-459.745 -203.776 -443.235 1876.83 98.3483 2567.59C788.206 3447.14 2249.26 1983.42 2920.81 2408.18C3195.09 2581.8 3159.45 1353.16 2977.06 260.23C2797.94 -816.626 2464.79 -1750.59 2044.86 -1097.67C1755.16 -648.897 1598.18 173.933 440.781 -38.9285Z" stroke="white" stroke-miterlimit="10"/>
<path d="M2032.12 -1183.77C1728.53 -707.73 1579.75 162.346 376.527 -67.6087C-558.812 -246.413 -535.71 1917.67 28.5906 2632.76C748.462 3544.9 2255.59 2007.23 2955.94 2458.69C3522.29 2823.85 2919.91 -2575.98 2032.12 -1183.77Z" stroke="white" stroke-miterlimit="10"/>
</g>
</g>
<defs>
<clipPath id="clip0_6005_16226">
<rect width="1920" height="717" rx="50" fill="white"/>
</clipPath>
</defs>
</svg>
