<svg width="160" height="59" viewBox="0 0 160 59" fill="none" xmlns="http://www.w3.org/2000/svg">
<g clip-path="url(#clip0_6005_16497)">
<g clip-path="url(#clip1_6005_16497)">
<g clip-path="url(#clip2_6005_16497)">
<path d="M74.3211 23.4661C76.023 23.4661 77.5584 23.8468 78.9286 24.6096C80.2988 25.371 81.3723 26.4207 82.1505 27.7587C82.9287 29.0954 83.3178 30.6 83.3178 32.2697C83.3178 33.9394 82.9287 35.4426 82.1505 36.7807C81.3723 38.1187 80.2988 39.1684 78.9286 39.9298C77.5584 40.6912 76.023 41.0733 74.3211 41.0733C72.7969 41.0733 71.4029 40.7682 70.1376 40.1607C68.8738 39.5533 67.8311 38.7009 67.0123 37.6078C66.1935 36.5133 65.6714 35.2607 65.4447 33.8499H63.2067V40.7808H59.292V23.7586H63.2067V30.446H65.4923C65.7526 29.0842 66.2915 27.8721 67.1102 26.8098C67.929 25.7489 68.9619 24.9259 70.2104 24.3423C71.4589 23.7586 72.8291 23.4661 74.3211 23.4661ZM74.3211 37.717C75.2602 37.717 76.1112 37.4903 76.874 37.0354C77.6354 36.5819 78.2358 35.9409 78.6739 35.1151C79.1106 34.288 79.3303 33.339 79.3303 32.2697C79.3303 31.199 79.1106 30.2515 78.6739 29.4243C78.2358 28.5971 77.6354 27.9575 76.874 27.5026C76.1112 27.0491 75.2602 26.8224 74.3211 26.8224C73.3805 26.8224 72.5296 27.0491 71.7668 27.5026C71.0054 27.9575 70.4049 28.5971 69.9669 29.4243C69.5302 30.2515 69.3104 31.199 69.3104 32.2697C69.3104 33.339 69.5302 34.288 69.9669 35.1151C70.4049 35.9409 71.0054 36.5819 71.7668 37.0354C72.5296 37.4903 73.3805 37.717 74.3211 37.717ZM93.7506 23.7586C95.2579 23.7586 96.568 24.0092 97.6779 24.5116C98.7892 25.0141 99.6443 25.7279 100.243 26.6516C100.844 27.5768 101.143 28.6699 101.143 29.9351C101.143 31.1836 100.844 32.2739 100.243 33.206C99.6443 34.1382 98.7892 34.8506 97.6779 35.3461C96.568 35.8401 95.2579 36.0879 93.7506 36.0879H90.3215V40.7808H86.3816V23.7586H93.7506ZM93.5322 32.8771C94.7149 32.8771 95.6148 32.6224 96.2307 32.1115C96.8465 31.6007 97.1558 30.8757 97.1558 29.9351C97.1558 28.9778 96.8465 28.2444 96.2307 27.7335C95.6148 27.2241 94.7149 26.968 93.5322 26.968H90.3215V32.8771H93.5322ZM110.458 33.2914H106.907V40.7808H104.523V23.7586H106.907V31.1514H110.505L115.856 23.7586H118.458L112.378 32.0024L118.749 40.7808H115.978L110.458 33.2914ZM128.866 40.9753C127.148 40.9753 125.599 40.5988 124.222 39.8444C122.843 39.09 121.761 38.0487 120.975 36.7191C120.188 35.3908 119.796 33.9073 119.796 32.2697C119.796 30.6322 120.188 29.1486 120.975 27.8189C121.761 26.4893 122.843 25.448 124.222 24.695C125.599 23.9406 127.148 23.5641 128.866 23.5641C130.569 23.5641 132.108 23.9406 133.487 24.695C134.864 25.448 135.942 26.4865 136.72 27.8077C137.498 29.129 137.887 30.6154 137.887 32.2697C137.887 33.9227 137.498 35.4104 136.72 36.7317C135.942 38.0529 134.864 39.09 133.487 39.8444C132.108 40.5988 130.569 40.9753 128.866 40.9753ZM128.866 38.8115C130.114 38.8115 131.236 38.5274 132.234 37.9605C133.231 37.3923 134.018 36.6099 134.593 35.6134C135.168 34.6169 135.456 33.5014 135.456 32.2697C135.456 31.038 135.168 29.9225 134.593 28.926C134.018 27.9281 133.231 27.1471 132.234 26.5789C131.236 26.012 130.114 25.7279 128.866 25.7279C127.617 25.7279 126.488 26.012 125.474 26.5789C124.461 27.1471 123.666 27.9281 123.091 28.926C122.515 29.9225 122.227 31.038 122.227 32.2697C122.227 33.5014 122.515 34.6169 123.091 35.6134C123.666 36.6099 124.461 37.3923 125.474 37.9605C126.488 38.5274 127.617 38.8115 128.866 38.8115ZM157.609 40.7808L157.586 28.3788L151.433 38.7135H150.315L144.162 28.4516V40.7808H141.827V23.7586H143.822L150.922 35.7226L157.926 23.7586H159.92L159.944 40.7808H157.609Z" fill="#262D53" stroke="#262D53" stroke-width="0.111969" stroke-miterlimit="22.9256"/>
<path d="M63.0191 52.0365H59.646V58.4677H59.2751V45.4933H59.646V51.6838H63.0009L68.0605 45.4933H68.5238L63.334 51.8503L68.9129 58.4677H68.4496L63.0191 52.0365ZM76.8823 58.5223C75.6353 58.5223 74.5044 58.2382 73.4911 57.67C72.4777 57.1017 71.6813 56.3207 71.1005 55.3256C70.5197 54.3319 70.2285 53.2164 70.2285 51.9805C70.2285 50.7447 70.5197 49.6292 71.1005 48.6354C71.6813 47.6403 72.4777 46.8593 73.4911 46.2911C74.5044 45.7228 75.6353 45.4387 76.8823 45.4387C78.1308 45.4387 79.2617 45.7228 80.2736 46.2911C81.2869 46.8593 82.0847 47.6403 82.6655 48.6354C83.2464 49.6292 83.5361 50.7447 83.5361 51.9805C83.5361 53.2164 83.2464 54.3319 82.6655 55.3256C82.0847 56.3207 81.2869 57.1017 80.2736 57.67C79.2617 58.2382 78.1308 58.5223 76.8823 58.5223ZM76.8823 58.171C78.0566 58.171 79.1217 57.9023 80.0791 57.3648C81.0378 56.8274 81.7908 56.0856 82.3408 55.1408C82.8909 54.1947 83.1652 53.1422 83.1652 51.9805C83.1652 50.8188 82.8909 49.7663 82.3408 48.8202C81.7908 47.8754 81.0378 47.1336 80.0791 46.5962C79.1217 46.0587 78.0566 45.79 76.8823 45.79C75.7094 45.79 74.6429 46.0587 73.6856 46.5962C72.7283 47.1336 71.9739 47.8754 71.4238 48.8202C70.8752 49.7663 70.5994 50.8188 70.5994 51.9805C70.5994 53.1422 70.8752 54.1947 71.4238 55.1408C71.9739 56.0856 72.7283 56.8274 73.6856 57.3648C74.6429 57.9023 75.7094 58.171 76.8823 58.171ZM100.161 45.4933V58.4677H99.7898V46.2911L93.8779 56.6328H93.6553L87.7433 46.3275V58.4677H87.3725V45.4933H87.6874L93.7673 56.1318L99.8458 45.4933H100.161ZM115.6 45.4933V58.4677H115.229V45.846H105.609V58.4677H105.239V45.4933H115.6ZM128.74 54.5572H120.808L118.991 58.4677H118.564L124.588 45.4933H124.959L130.982 58.4677H130.556L128.74 54.5572ZM128.573 54.2045L124.773 45.9944L120.974 54.2045H128.573ZM144.141 45.4933V58.4677H143.77V52.0547H134.318V58.4677H133.948V45.4933H134.318V51.702H143.77V45.4933H144.141ZM149.219 45.4933H149.59V57.7623L159.171 45.4933H159.45V58.4677H159.079V46.1987L149.497 58.4677H149.219V45.4933Z" fill="#262D53" stroke="#262D53" stroke-width="0.111969" stroke-miterlimit="22.9256"/>
<path fill-rule="evenodd" clip-rule="evenodd" d="M26.2973 51.562C38.2137 51.562 47.8738 53.187 47.8738 55.1912C47.8738 57.1955 38.2137 58.8204 26.2973 58.8204C14.381 58.8204 4.72086 57.1955 4.72086 55.1912C4.72086 53.187 14.381 51.562 26.2973 51.562Z" fill="#8A8A8A" fill-opacity="0.54902"/>
<path fill-rule="evenodd" clip-rule="evenodd" d="M52.0419 36.4069C52.27 36.8548 52.4044 37.3096 52.3512 37.7421C51.9005 41.4231 40.6966 44.4575 26.3183 44.4575H26.1993H26.1811H26.1629H26.044C11.6671 44.4575 0.461783 41.4231 0.0111062 37.7421C-0.0420793 37.3096 0.0922839 36.8548 0.320421 36.4069C0.628337 35.7995 1.77602 35.2368 3.3338 34.7078C5.20508 37.5672 14.4677 39.794 26.0594 39.794H26.1657H26.1811H26.1965H26.3029C37.8959 39.794 47.1572 37.5672 49.0285 34.7078C50.5877 35.2368 51.7339 35.7995 52.0419 36.4069ZM19.8367 27.7265C20.1586 27.1008 20.4623 26.373 20.7562 25.5333C20.9844 24.8768 21.1999 24.1085 21.4042 23.2575C22.4903 23.5626 24.2259 23.7586 26.1811 23.7586C28.1364 23.7586 29.8719 23.5626 30.958 23.2575C31.1624 24.1085 31.3779 24.8768 31.6061 25.5333C31.9 26.373 32.2037 27.1008 32.5256 27.7265C33.0015 28.6502 33.5165 29.3514 34.0904 29.8637C34.3087 30.0596 34.5382 30.2374 34.7776 30.4025C33.3836 31.2773 30.0609 31.8917 26.1811 31.8917C22.3014 31.8917 18.9787 31.2773 17.5861 30.4025C17.824 30.2374 18.0536 30.0596 18.2719 29.8637C18.8457 29.3514 19.3608 28.6502 19.8367 27.7265ZM23.0026 13.6029C23.158 12.3517 23.3007 11.1088 23.4337 9.92054C24.2315 9.95973 25.1734 9.98212 26.1811 9.98212C27.1889 9.98212 28.1308 9.95973 28.93 9.92054C29.0616 11.1088 29.2043 12.3517 29.3611 13.6029C29.4241 14.111 29.4898 14.6205 29.557 15.1299C28.6459 15.2741 27.4674 15.3608 26.1811 15.3608C24.8949 15.3608 23.7164 15.2741 22.8053 15.1299C22.8738 14.6205 22.9382 14.111 23.0026 13.6029ZM23.9767 4.87492C24.1923 2.89306 24.363 1.47945 24.503 1.07636C24.643 0.673272 24.9747 0.31497 25.4323 0.130221C25.6493 0.0434446 25.8746 0.00145608 26.093 0.0028557C26.1168 0.00145608 26.1406 -0.00134315 26.1629 -0.00274277L26.1811 -0.00134315L26.1993 -0.00274277C26.2231 -0.00134315 26.2455 0.00145608 26.2693 0.0028557C26.4877 0.00145608 26.713 0.0434446 26.9299 0.130221C27.389 0.31497 27.7193 0.673272 27.8593 1.07636C27.9992 1.47945 28.17 2.89306 28.3855 4.87492C27.7165 4.85113 26.9691 4.83713 26.1811 4.83713C25.3932 4.83713 24.6472 4.85113 23.9767 4.87492Z" fill="#B80003"/>
<path fill-rule="evenodd" clip-rule="evenodd" d="M26.2218 56.4817H26.261C28.5675 56.4845 29.2939 52.0449 30.1281 50.3052C30.6768 49.1575 31.392 47.8866 32.4991 46.9125C30.5186 47.0371 28.4486 47.1029 26.3184 47.1029H26.1994H26.079C23.967 47.1029 21.9152 47.0385 19.9487 46.9153C21.0544 47.8894 21.7668 49.1589 22.3169 50.3052C23.151 52.0449 23.876 56.4845 26.1826 56.4817H26.2218Z" fill="#8E2425"/>
</g>
</g>
</g>
<defs>
<clipPath id="clip0_6005_16497">
<rect width="160" height="58.8178" fill="white"/>
</clipPath>
<clipPath id="clip1_6005_16497">
<rect width="160" height="58.8178" fill="white"/>
</clipPath>
<clipPath id="clip2_6005_16497">
<rect width="160" height="58.8231" fill="white" transform="translate(0 -0.00274277)"/>
</clipPath>
</defs>
</svg>
