<svg width="24" height="24" viewBox="0 0 24 24" fill="none" xmlns="http://www.w3.org/2000/svg">
<path d="M9.684 15.6143C10.9976 15.6142 12.2738 15.1773 13.3117 14.3722L18.9697 20.0303C19.0392 20.1001 19.1219 20.1556 19.2129 20.1934C19.3039 20.2313 19.4014 20.2508 19.5 20.2508C19.5986 20.2508 19.6961 20.2313 19.7871 20.1934C19.8781 20.1556 19.9608 20.1001 20.0302 20.0303C20.1 19.9607 20.1553 19.878 20.193 19.787C20.2307 19.696 20.2501 19.5985 20.2501 19.5C20.2501 19.4015 20.2307 19.304 20.193 19.213C20.1553 19.122 20.1 19.0393 20.0302 18.9697L14.3722 13.3118C15.1807 12.2752 15.619 10.9978 15.6172 9.68325C15.6172 8.09925 15 6.60825 13.8795 5.48775C12.759 4.36725 11.2687 3.75 9.684 3.75C8.09925 3.75 6.609 4.36725 5.4885 5.48775C4.93571 6.03739 4.49743 6.69121 4.19901 7.41137C3.9006 8.13152 3.74798 8.90372 3.75 9.68325C3.75 11.268 4.36725 12.759 5.48775 13.8795C6.03853 14.4307 6.69275 14.8677 7.41286 15.1654C8.13297 15.4631 8.90478 15.6156 9.684 15.6143ZM6.54825 6.54825C7.386 5.71125 8.49975 5.25 9.684 5.25C10.8682 5.25 11.9812 5.71125 12.819 6.54825C13.6567 7.38525 14.1172 8.49975 14.1172 9.68325C14.1172 10.8675 13.656 11.9812 12.819 12.819C11.982 13.6567 10.8682 14.1173 9.684 14.1173C8.49975 14.1173 7.38675 13.656 6.549 12.819C5.71125 11.982 5.25 10.8675 5.25 9.68325C5.25 8.49975 5.71125 7.386 6.54825 6.54825Z" fill="#A7ADCA"/>
</svg>
