<svg width="310" height="290" viewBox="0 0 310 290" fill="none" xmlns="http://www.w3.org/2000/svg">
<path d="M186.949 358.664C182.114 358.664 177.497 357.69 174.053 355.703L5.24956 258.242C1.86476 256.289 0 253.568 0 250.583C0 247.002 2.67887 243.401 7.35085 240.702L329.296 54.8312C338.049 49.7742 351.348 49.2315 358.945 53.6174L527.75 151.076C531.135 153.029 533 155.75 533 158.733C533 162.314 530.321 165.915 525.647 168.615L203.702 354.489C198.919 357.248 192.776 358.664 186.949 358.664ZM174.416 355.072C181.811 359.339 194.784 358.796 203.338 353.858L525.281 167.984C529.722 165.42 532.27 162.048 532.27 158.733C532.268 156.021 530.536 153.526 527.384 151.707L358.578 54.2482C351.187 49.9778 338.214 50.5223 329.657 55.462L7.71573 241.335C3.27478 243.898 0.727933 247.27 0.727933 250.585C0.727933 253.299 2.46251 255.794 5.61445 257.613L174.416 355.072Z" fill="#42E8E0"/>
<path d="M532.633 113.717L508.386 117.892L358.762 31.5062C351.255 27.1735 338.145 27.7162 329.477 32.7201L43.2305 197.985L0.366702 205.365L0.363037 220.562L0.383209 220.558C0.36304 223.329 2.00961 225.978 5.43108 227.953L174.237 325.412C181.743 329.745 194.853 329.202 203.521 324.198L525.464 138.324C530.13 135.63 532.534 132.194 532.609 128.917L532.633 128.914V113.717Z" fill="url(#paint0_linear_6005_16048)"/>
<path d="M174.235 310.114L5.42934 212.655C-2.07737 208.321 -1.1349 200.752 7.53247 195.748L329.477 9.87167C338.145 4.86781 351.257 4.32506 358.762 8.65783L527.565 106.117C535.072 110.449 534.13 118.02 525.462 123.024L203.521 308.9C194.854 313.904 181.742 314.447 174.235 310.114Z" fill="#24126A"/>
<path d="M525.464 123.026L203.521 308.9C194.854 313.904 181.742 314.449 174.237 310.114L5.43112 212.655C2.42037 210.917 0.792139 208.656 0.452925 206.253C-0.0128063 209.373 1.60809 212.421 5.43112 214.628L174.237 312.087C181.743 316.42 194.854 315.877 203.521 310.873L525.464 124.999C530.655 122.001 533.051 118.086 532.545 114.494C532.096 117.498 529.716 120.571 525.464 123.026Z" fill="white"/>
<path opacity="0.51" d="M174.569 306.337L11.7809 212.325C4.51802 208.132 5.42748 200.807 13.8161 195.964L329.787 13.5865C338.174 8.74399 350.861 8.21776 358.125 12.4112L520.913 106.423C528.176 110.616 527.265 117.941 518.878 122.784L202.907 305.162C194.52 310.004 181.831 310.53 174.569 306.337Z" fill="#453C9E"/>
<path opacity="0.5" d="M174.569 302.14L11.7809 208.128C4.51802 203.935 5.42748 196.61 13.8161 191.767L329.787 9.38942C338.174 4.54691 350.861 4.02067 358.125 8.21409L520.913 102.226C528.176 106.419 527.265 113.744 518.878 118.587L202.907 300.965C194.52 305.807 181.831 306.333 174.569 302.14Z" fill="url(#paint1_radial_6005_16048)"/>
<path opacity="0.8" d="M186.872 305.481C182.161 305.481 177.664 304.533 174.306 302.595L11.5168 208.583C8.18697 206.66 6.35156 203.973 6.35156 201.023C6.35156 197.495 8.97542 193.955 13.552 191.312L329.523 8.9347C338.042 4.01702 350.991 3.49079 358.386 7.75938L521.173 101.771C524.505 103.695 526.339 106.381 526.339 109.333C526.339 112.861 523.715 116.399 519.138 119.042L203.167 301.419C198.515 304.106 192.54 305.481 186.872 305.481ZM174.831 301.685C181.938 305.787 194.413 305.261 202.644 300.51L518.616 118.132C522.858 115.684 525.292 112.476 525.292 109.333C525.292 106.771 523.643 104.408 520.651 102.681L357.863 8.66884C350.758 4.56527 338.28 5.09334 330.051 9.84417L14.0783 192.222C9.83537 194.672 7.4022 197.88 7.4022 201.023C7.40404 203.583 9.0506 205.946 12.043 207.674L174.831 301.685Z" fill="url(#paint2_linear_6005_16048)"/>
<g opacity="0.4">
<path d="M254.605 231.963L153.906 173.826C150.935 172.111 150.935 167.824 153.906 166.108L302.867 80.1054C308.006 77.1387 314.336 77.1387 319.475 80.1054L420.174 138.243C423.144 139.957 423.144 144.244 420.174 145.961L271.211 231.963C266.074 234.93 259.742 234.93 254.605 231.963Z" fill="#24126A"/>
</g>
<path d="M319.622 89.7593L304.922 81.2734L308.127 79.4233L322.827 87.9092L319.622 89.7593Z" fill="#42E8E0"/>
<path d="M331.55 114.001L302.667 97.3265L305.872 95.4764L334.755 112.151L331.55 114.001Z" fill="#42E8E0"/>
<path d="M249.126 147.002L220.243 130.327L223.449 128.477L252.331 145.152L249.126 147.002Z" fill="#42E8E0"/>
<path d="M260.234 153.416L252.883 149.173L256.088 147.321L263.439 151.566L260.234 153.416Z" fill="#42E8E0"/>
<path d="M301.414 105.281L295.151 101.665L298.356 99.8147L304.619 103.431L301.414 105.281Z" fill="#42E8E0"/>
<path d="M311.904 111.337L304.555 107.094L307.76 105.244L315.109 109.487L311.904 111.337Z" fill="#42E8E0"/>
<path d="M303.514 115.171L287.637 106.003L290.842 104.153L306.719 113.321L303.514 115.171Z" fill="#42E8E0"/>
<path d="M314.143 121.308L306.792 117.063L309.997 115.213L317.348 119.456L314.143 121.308Z" fill="#42E8E0"/>
<path d="M279.956 118.924L272.605 114.681L275.81 112.831L283.161 117.074L279.956 118.924Z" fill="#42E8E0"/>
<path d="M290.638 125.092L283.289 120.85L286.494 118.999L293.843 123.242L290.638 125.092Z" fill="#42E8E0"/>
<path d="M307.88 135.047L293.974 127.018L297.179 125.168L311.085 133.197L307.88 135.047Z" fill="#42E8E0"/>
<path d="M271.732 160.055L264.381 155.811L267.586 153.96L274.937 158.203L271.732 160.055Z" fill="#42E8E0"/>
<path d="M288.973 170.008L275.066 161.979L278.271 160.129L292.179 168.158L288.973 170.008Z" fill="#42E8E0"/>
<path d="M264.926 127.603L257.575 123.36L260.78 121.51L268.129 125.753L264.926 127.603Z" fill="#42E8E0"/>
<path d="M282.167 137.557L268.26 129.528L271.465 127.678L285.371 135.707L282.167 137.557Z" fill="#42E8E0"/>
<path d="M273.559 169.786L266.208 165.543L269.413 163.693L276.764 167.936L273.559 169.786Z" fill="#42E8E0"/>
<path d="M290.8 179.741L276.892 171.711L280.097 169.861L294.005 177.891L290.8 179.741Z" fill="#42E8E0"/>
<path d="M286.751 114.172L280.121 110.343L283.326 108.493L289.956 112.322L286.751 114.172Z" fill="#42E8E0"/>
<path d="M306.414 125.523L290.297 116.218L293.502 114.368L309.62 123.673L306.414 125.523Z" fill="#42E8E0"/>
<path d="M326.078 136.877L309.961 127.571L313.166 125.721L329.283 135.027L326.078 136.877Z" fill="#42E8E0"/>
<path d="M281.351 128.408L265.234 119.102L268.439 117.252L284.556 126.558L281.351 128.408Z" fill="#42E8E0"/>
<path d="M289.846 133.314L284.897 130.456L288.103 128.606L293.051 131.462L289.846 133.314Z" fill="#42E8E0"/>
<path d="M298.361 138.23L293.411 135.372L296.616 133.522L301.566 136.378L298.361 138.23Z" fill="#42E8E0"/>
<path d="M314.105 147.319L301.926 140.287L305.131 138.437L317.31 145.467L314.105 147.319Z" fill="#42E8E0"/>
<path d="M317.412 149.228L305.235 142.198L308.439 140.348L320.617 147.378L317.412 149.228Z" fill="#42E8E0"/>
<path d="M233.865 155.548L217.988 146.38L221.193 144.53L237.07 153.696L233.865 155.548Z" fill="#42E8E0"/>
<path d="M244.494 161.684L237.143 157.441L240.349 155.591L247.699 159.833L244.494 161.684Z" fill="#42E8E0"/>
<path d="M255.177 167.852L247.828 163.609L251.033 161.759L258.382 166.002L255.177 167.852Z" fill="#42E8E0"/>
<path d="M272.418 177.806L258.512 169.777L261.717 167.927L275.623 175.956L272.418 177.806Z" fill="#42E8E0"/>
<path d="M248.693 181.464L241.344 177.221L244.549 175.371L251.898 179.614L248.693 181.464Z" fill="#42E8E0"/>
<path d="M265.934 191.419L252.029 183.39L255.234 181.539L269.14 189.569L265.934 191.419Z" fill="#42E8E0"/>
<path d="M210.307 159.302L202.956 155.059L206.161 153.207L213.512 157.452L210.307 159.302Z" fill="#42E8E0"/>
<path d="M220.99 165.47L213.641 161.227L216.846 159.377L224.195 163.62L220.99 165.47Z" fill="#42E8E0"/>
<path d="M238.231 175.424L224.325 167.395L227.53 165.545L241.436 173.574L238.231 175.424Z" fill="#42E8E0"/>
<path d="M217.104 154.547L210.472 150.719L213.677 148.869L220.308 152.697L217.104 154.547Z" fill="#42E8E0"/>
<path d="M236.768 165.901L220.648 156.595L223.854 154.745L239.971 164.051L236.768 165.901Z" fill="#42E8E0"/>
<path d="M256.431 177.253L240.312 167.947L243.517 166.097L259.634 175.402L256.431 177.253Z" fill="#42E8E0"/>
<path d="M198.702 161.28L182.585 151.975L185.79 150.123L201.907 159.428L198.702 161.28Z" fill="#42E8E0"/>
<path d="M207.199 166.185L202.248 163.326L205.453 161.476L210.404 164.335L207.199 166.185Z" fill="#42E8E0"/>
<path d="M215.713 171.101L210.764 168.242L213.967 166.392L218.918 169.251L215.713 171.101Z" fill="#42E8E0"/>
<path d="M172.645 210.609L167.694 207.751L170.9 205.901L175.85 208.757L172.645 210.609Z" fill="#42E8E0"/>
<path d="M231.456 180.19L219.277 173.158L222.482 171.308L234.661 178.34L231.456 180.19Z" fill="#42E8E0"/>
<path d="M234.763 182.099L222.587 175.069L225.792 173.219L237.968 180.249L234.763 182.099Z" fill="#42E8E0"/>
<path d="M230.678 145.029L225.728 142.172L228.933 140.32L233.883 143.179L230.678 145.029Z" fill="#42E8E0"/>
<path d="M246.421 154.118L234.243 147.088L237.448 145.238L249.625 152.268L246.421 154.118Z" fill="#42E8E0"/>
<path d="M262.504 163.403L250.325 156.373L253.53 154.523L265.709 161.553L262.504 163.403Z" fill="#42E8E0"/>
<path d="M242.378 123.263L237.429 120.406L240.635 118.556L245.583 121.412L242.378 123.263Z" fill="#42E8E0"/>
<path d="M258.122 132.352L245.943 125.322L249.148 123.472L261.327 130.502L258.122 132.352Z" fill="#42E8E0"/>
<path d="M274.204 141.637L262.027 134.607L265.232 132.757L277.409 139.787L274.204 141.637Z" fill="#42E8E0"/>
<path d="M262.907 220.382C259.972 220.382 257.038 219.627 254.421 218.116L153.723 159.978C152.214 159.107 151.313 157.547 151.313 155.805C151.313 154.063 152.214 152.503 153.723 151.632L302.685 65.6293C307.92 62.6112 314.422 62.6112 319.657 65.6293L420.354 123.769C421.863 124.64 422.763 126.198 422.763 127.942C422.763 129.684 421.861 131.244 420.354 132.113L271.393 218.116C268.777 219.627 265.843 220.382 262.907 220.382ZM311.171 64.089C308.362 64.089 305.553 64.8115 303.048 66.2582L154.086 152.261C152.806 153 152.039 154.325 152.039 155.805C152.039 157.285 152.806 158.609 154.086 159.349L254.784 217.487C259.794 220.38 266.019 220.38 271.028 217.487L419.989 131.484C421.271 130.745 422.035 129.422 422.035 127.942C422.035 126.46 421.271 125.138 419.989 124.398L319.292 66.2582C316.789 64.8115 313.98 64.089 311.171 64.089Z" fill="#42E8E0"/>
<path opacity="0.4" d="M205.564 259.821L104.865 201.683C101.894 199.969 101.894 195.682 104.865 193.966L120.238 185.014C125.377 182.047 131.707 182.047 136.846 185.014L237.545 243.152C240.516 244.866 240.516 249.153 237.545 250.869L222.172 259.821C217.035 262.788 210.703 262.788 205.564 259.821Z" fill="#24126A"/>
<path d="M155.154 200.396L139.037 191.091L142.242 189.241L158.36 198.546L155.154 200.396Z" fill="#42E8E0"/>
<path d="M200.589 227.282L195.638 224.423L198.843 222.572L203.794 225.43L200.589 227.282Z" fill="#42E8E0"/>
<path d="M164.489 205.928L159.54 203.069L162.744 201.219L167.694 204.078L164.489 205.928Z" fill="#42E8E0"/>
<path d="M213.868 248.24C210.932 248.24 207.999 247.484 205.382 245.974L104.685 187.836C103.176 186.963 102.276 185.405 102.276 183.663C102.276 181.921 103.176 180.361 104.685 179.49L120.056 170.536C125.291 167.514 131.795 167.514 137.03 170.536L237.728 228.674C239.237 229.546 240.138 231.105 240.138 232.847C240.138 234.589 239.237 236.149 237.728 237.02L222.356 245.974C219.739 247.484 216.803 248.24 213.868 248.24ZM128.544 168.994C125.735 168.994 122.926 169.718 120.421 171.165L105.05 180.118C103.768 180.857 103.004 182.183 103.004 183.663C103.004 185.142 103.768 186.466 105.05 187.207L205.749 245.345C210.758 248.238 216.983 248.238 221.993 245.345L237.365 236.391C238.647 235.652 239.412 234.327 239.412 232.847C239.412 231.367 238.647 230.043 237.365 229.303L136.668 171.165C134.162 169.718 131.353 168.994 128.544 168.994Z" fill="#42E8E0"/>
<path d="M186.872 305.323C182.191 305.323 177.72 304.379 174.387 302.455L11.5975 208.444C8.31719 206.551 6.51294 203.915 6.51294 201.023C6.51294 197.554 9.10747 194.065 13.6328 191.452L329.604 9.07406C338.079 4.18205 350.952 3.65582 358.305 7.89874L521.093 101.91C524.371 103.805 526.179 106.439 526.179 109.333C526.177 112.802 523.585 116.289 519.059 118.902L203.088 301.28C198.458 303.953 192.512 305.323 186.872 305.323ZM174.75 301.825C181.901 305.954 194.452 305.428 202.723 300.649L518.694 118.272C522.989 115.793 525.451 112.534 525.451 109.333C525.451 106.711 523.775 104.3 520.73 102.541L357.942 8.52948C350.793 4.40024 338.244 4.92648 329.969 9.70481L13.9958 192.081C9.70155 194.562 7.23905 197.82 7.23905 201.021C7.23905 203.643 8.91677 206.053 11.9605 207.811L174.75 301.825Z" fill="#42E8E0"/>
<path d="M21.0957 213.448C20.9673 213.448 20.8426 213.38 20.7766 213.259C20.6794 213.081 20.7436 212.861 20.9215 212.764C28.1513 208.799 34.5597 199.971 36.8663 190.796L66.3541 73.5889C69.9773 59.1916 81.3657 49.2572 89.7287 49.0097C94.0358 48.9088 97.1657 51.32 98.5996 55.8728L106.926 82.2728C107.819 85.102 109.515 87.0804 111.827 87.9917C114.667 89.1102 118.309 88.5565 122.075 86.4259L128.032 83.0575C134.769 79.2492 140.963 70.9082 143.442 62.305C147.395 48.5843 158.204 39.4567 165.951 38.8699C169.946 38.5747 173.096 40.4633 174.825 44.213L184.047 64.2156C185.086 66.4709 186.755 68.0258 188.873 68.7079C191.638 69.599 195.11 68.9884 198.66 66.9788L205.481 63.1209C212.678 59.0504 219.187 49.8568 221.309 40.764L250.859 -85.869C254.176 -100.085 265.751 -110.512 274.065 -110.98C278.32 -111.24 281.531 -108.95 283.084 -104.583L328.09 21.9093C329.034 24.5606 330.723 26.407 332.976 27.2468C335.796 28.3011 339.388 27.7272 343.096 25.6314L366.114 12.6148C366.287 12.5158 366.511 12.5763 366.611 12.7523C366.71 12.9283 366.648 13.1502 366.474 13.2492L343.455 26.2659C339.559 28.4625 335.748 29.0566 332.723 27.9289C330.262 27.0103 328.423 25.0117 327.406 22.1531L282.4 -104.339C280.944 -108.431 278.078 -110.465 274.107 -110.256C266.052 -109.801 254.814 -99.6063 251.568 -85.704L222.018 40.929C219.82 50.3537 213.318 59.5271 205.841 63.7554L199.02 67.6133C195.292 69.7219 191.608 70.3563 188.651 69.4028C186.335 68.6566 184.516 66.9678 183.386 64.5218L174.165 44.5192C172.55 41.0152 169.732 39.3283 166.008 39.596C158.503 40.1663 148.009 49.0867 144.142 62.5067C141.616 71.2823 135.284 79.7956 128.394 83.6938L122.436 87.0621C118.476 89.3009 114.614 89.8693 111.565 88.672C109.038 87.6764 107.197 85.5402 106.236 82.4946L97.9101 56.0947C96.5606 51.8187 93.7479 49.5781 89.7525 49.7394C81.8204 49.9741 70.5494 59.9012 67.0619 73.7704L37.5723 190.975C35.218 200.336 28.6665 209.35 21.2698 213.404C21.2148 213.433 21.1543 213.448 21.0957 213.448Z" fill="#42E8E0"/>
<path d="M45.8784 227.988C45.75 227.988 45.6253 227.92 45.5593 227.799C45.4622 227.621 45.5263 227.401 45.7042 227.304C52.934 223.34 59.3424 214.511 61.6491 205.336L91.1368 88.1293C94.76 73.7319 106.148 63.7976 114.513 63.5518C118.8 63.44 121.948 65.864 123.384 70.4131L131.71 96.8131C132.603 99.6423 134.299 101.621 136.612 102.532C139.452 103.652 143.093 103.097 146.86 100.966L152.817 97.5979C159.555 93.7877 165.747 85.4486 168.224 76.8472C172.178 63.1265 182.987 53.997 190.734 53.4103C194.727 53.1023 197.879 55.0037 199.608 58.7534L208.829 78.756C209.869 81.0113 211.539 82.5662 213.653 83.2501C216.419 84.1412 219.893 83.527 223.443 81.5192L230.264 77.6632C237.461 73.5944 243.97 64.4008 246.091 55.3062L275.642 -71.3268C278.96 -85.5426 290.536 -95.9702 298.849 -96.4378C303.092 -96.7092 306.314 -94.408 307.869 -90.0404L352.874 36.4514C353.818 39.1028 355.509 40.9492 357.762 41.7908C360.584 42.8433 364.178 42.2694 367.88 40.1736L391.101 27.0433C391.275 26.9443 391.497 27.0066 391.598 27.1808C391.697 27.3568 391.634 27.5787 391.46 27.6777L368.24 40.8081C364.345 43.0084 360.535 43.5988 357.509 42.4711C355.049 41.5525 353.208 39.5557 352.19 36.6953L307.185 -89.7966C305.729 -93.8891 302.85 -95.9317 298.891 -95.7135C290.836 -95.2588 279.598 -85.0641 276.353 -71.1618L246.803 55.4712C244.603 64.8977 238.103 74.0712 230.625 78.2976L223.804 82.1554C220.073 84.2641 216.391 84.9003 213.433 83.945C211.118 83.1988 209.299 81.51 208.171 79.064L198.95 59.0614C197.336 55.5574 194.511 53.8724 190.792 54.1382C183.287 54.7085 172.794 63.6289 168.927 77.0489C166.4 85.8226 160.072 94.3378 153.178 98.236L147.221 101.604C143.258 103.845 139.399 104.41 136.349 103.214C133.823 102.219 131.982 100.082 131.021 97.0368L122.691 70.6332C121.343 66.3591 118.536 64.1239 114.533 64.2798C106.601 64.5127 95.3302 74.4397 91.8428 88.309L62.355 205.516C60.0007 214.876 53.4493 223.89 46.0526 227.942C45.9976 227.973 45.9371 227.988 45.8784 227.988Z" fill="#42E8E0"/>
<path d="M196.438 55.6326C196.376 55.6326 196.311 55.6161 196.253 55.5831L170.971 40.7053C170.799 40.6027 170.74 40.3808 170.843 40.2085C170.944 40.0361 171.167 39.9792 171.34 40.0801L196.621 54.9578C196.794 55.0605 196.852 55.2824 196.75 55.4547C196.684 55.5684 196.563 55.6326 196.438 55.6326Z" fill="#42E8E0"/>
<path d="M119.735 65.8292C119.673 65.8292 119.609 65.8127 119.552 65.7797L93.2013 50.3409C93.0271 50.24 92.9684 50.0163 93.0711 49.844C93.1719 49.6716 93.3975 49.6129 93.568 49.7156L119.918 65.1544C120.093 65.2553 120.15 65.479 120.049 65.6513C119.983 65.765 119.86 65.8292 119.735 65.8292Z" fill="#42E8E0"/>
<path d="M21.0957 213.448C20.9673 213.448 20.8426 213.38 20.7766 213.259C20.6794 213.081 20.7436 212.861 20.9215 212.764C28.1513 208.799 34.5597 199.971 36.8663 190.796L66.3541 73.5889C69.9773 59.1916 81.3657 49.2572 89.7287 49.0097C94.0358 48.9088 97.1657 51.32 98.5996 55.8728L106.926 82.2728C107.819 85.102 109.515 87.0804 111.827 87.9917C114.667 89.1102 118.309 88.5565 122.075 86.4259L128.032 83.0575C134.769 79.2492 140.963 70.9082 143.442 62.305C147.395 48.5843 158.204 39.4567 165.951 38.8699C169.946 38.5747 173.096 40.4633 174.825 44.213L184.047 64.2156C185.086 66.4709 186.755 68.0258 188.873 68.7079C191.638 69.599 195.11 68.9884 198.66 66.9788L205.481 63.1209C212.678 59.0504 219.187 49.8568 221.309 40.764L250.859 -85.869C254.176 -100.085 265.751 -110.512 274.065 -110.98C278.32 -111.24 281.531 -108.95 283.084 -104.583L328.09 21.9093C329.034 24.5606 330.723 26.407 332.976 27.2468C335.796 28.3011 339.388 27.7272 343.096 25.6314L366.114 12.6148C366.287 12.5158 366.511 12.5763 366.611 12.7523C366.71 12.9283 366.648 13.1502 366.474 13.2492L343.455 26.2659C339.559 28.4625 335.748 29.0566 332.723 27.9289C330.262 27.0103 328.423 25.0117 327.406 22.1531L282.4 -104.339C280.944 -108.431 278.078 -110.465 274.107 -110.256C266.052 -109.801 254.814 -99.6063 251.568 -85.704L222.018 40.929C219.82 50.3537 213.318 59.5271 205.841 63.7554L199.02 67.6133C195.292 69.7219 191.608 70.3563 188.651 69.4028C186.335 68.6566 184.516 66.9678 183.386 64.5218L174.165 44.5192C172.55 41.0152 169.732 39.3283 166.008 39.596C158.503 40.1663 148.009 49.0867 144.142 62.5067C141.616 71.2823 135.284 79.7956 128.394 83.6938L122.436 87.0621C118.476 89.3009 114.614 89.8693 111.565 88.672C109.038 87.6764 107.197 85.5402 106.236 82.4946L97.9101 56.0947C96.5606 51.8187 93.7479 49.5781 89.7525 49.7394C81.8204 49.9741 70.5494 59.9012 67.0619 73.7704L37.5723 190.975C35.218 200.336 28.6665 209.35 21.2698 213.404C21.2148 213.433 21.1543 213.448 21.0957 213.448Z" fill="#42E8E0"/>
<path d="M45.8784 227.988C45.75 227.988 45.6253 227.92 45.5593 227.799C45.4622 227.621 45.5263 227.401 45.7042 227.304C52.934 223.34 59.3424 214.511 61.6491 205.336L91.1368 88.1293C94.76 73.7319 106.148 63.7976 114.513 63.5518C118.8 63.44 121.948 65.864 123.384 70.4131L131.71 96.8131C132.603 99.6423 134.299 101.621 136.612 102.532C139.452 103.652 143.093 103.097 146.86 100.966L152.817 97.5979C159.555 93.7877 165.747 85.4486 168.224 76.8472C172.178 63.1265 182.987 53.997 190.734 53.4103C194.727 53.1023 197.879 55.0037 199.608 58.7534L208.829 78.756C209.869 81.0113 211.539 82.5662 213.653 83.2501C216.419 84.1412 219.893 83.527 223.443 81.5192L230.264 77.6632C237.461 73.5944 243.97 64.4008 246.091 55.3062L275.642 -71.3268C278.96 -85.5426 290.536 -95.9702 298.849 -96.4378C303.092 -96.7092 306.314 -94.408 307.869 -90.0404L352.874 36.4514C353.818 39.1028 355.509 40.9492 357.762 41.7908C360.584 42.8433 364.178 42.2694 367.88 40.1736L391.101 27.0433C391.275 26.9443 391.497 27.0066 391.598 27.1808C391.697 27.3568 391.634 27.5787 391.46 27.6777L368.24 40.8081C364.345 43.0084 360.535 43.5988 357.509 42.4711C355.049 41.5525 353.208 39.5557 352.19 36.6953L307.185 -89.7966C305.729 -93.8891 302.85 -95.9317 298.891 -95.7135C290.836 -95.2588 279.598 -85.0641 276.353 -71.1618L246.803 55.4712C244.603 64.8977 238.103 74.0712 230.625 78.2976L223.804 82.1554C220.073 84.2641 216.391 84.9003 213.433 83.945C211.118 83.1988 209.299 81.51 208.171 79.064L198.95 59.0614C197.336 55.5574 194.511 53.8724 190.792 54.1382C183.287 54.7085 172.794 63.6289 168.927 77.0489C166.4 85.8226 160.072 94.3378 153.178 98.236L147.221 101.604C143.258 103.845 139.399 104.41 136.349 103.214C133.823 102.219 131.982 100.082 131.021 97.0368L122.691 70.6332C121.343 66.3591 118.536 64.1239 114.533 64.2798C106.601 64.5127 95.3302 74.4397 91.8428 88.309L62.355 205.516C60.0007 214.876 53.4493 223.89 46.0526 227.942C45.9976 227.973 45.9371 227.988 45.8784 227.988Z" fill="#42E8E0"/>
<path opacity="0.5" d="M366.294 12.9338L343.275 25.9505C336.231 29.9349 330.002 28.3635 327.748 22.034L282.741 -104.458C277.602 -118.905 255.949 -106.081 251.213 -85.7828L221.663 40.8502C219.503 50.1043 212.993 59.2961 205.661 63.4418L198.842 67.2979C192.213 71.0457 186.263 69.8943 183.718 64.3697L174.497 44.367C168.782 31.9683 149.26 43.4392 143.794 62.4077C141.273 71.1576 135.077 79.4967 128.216 83.3766L122.258 86.7449C115.034 90.8301 108.692 89.0662 106.583 82.3846L98.2566 55.9846C93.5571 41.0831 71.8456 53.2618 66.7097 73.6806L37.222 190.889C34.9043 200.101 28.3658 209.102 21.0974 213.086L366.294 12.9338Z" fill="url(#paint3_linear_6005_16048)"/>
<path opacity="0.5" d="M391.517 26.8673L368.062 40.1296C361.017 44.114 354.788 42.5426 352.535 36.2131L307.528 -90.2788C302.388 -104.726 280.735 -91.9015 275.999 -71.6037L246.449 55.0275C244.289 64.2835 237.78 73.4734 230.447 77.6191L223.628 81.4752C217 85.223 211.05 84.0715 208.505 78.5469L199.284 58.5443C193.568 46.1456 174.046 57.6165 168.58 76.585C166.059 85.3349 159.863 93.674 153.002 97.5539L147.045 100.922C139.82 105.007 133.476 103.244 131.369 96.5619L123.043 70.1619C118.343 55.2604 96.632 67.4391 91.4943 87.8579L62.0065 205.066C59.6889 214.278 53.1503 223.279 45.882 227.264L391.517 26.8673Z" fill="url(#paint4_linear_6005_16048)"/>
<path opacity="0.4" d="M121.459 37.0913C121.426 40.7383 124.356 43.7216 128.003 43.7546C131.65 43.7876 134.633 40.8575 134.666 37.2105C134.699 33.5635 131.769 30.5803 128.122 30.5473C124.475 30.5143 121.492 33.4443 121.459 37.0913Z" fill="#42E8E0"/>
<path d="M125.198 37.1262C125.183 38.7086 126.455 40.0031 128.038 40.0178C129.62 40.0324 130.915 38.7599 130.929 37.1776C130.944 35.5952 129.671 34.3006 128.089 34.286C126.507 34.2713 125.21 35.5438 125.198 37.1262Z" fill="#42E8E0"/>
<path opacity="0.4" d="M33.861 59.3896C33.828 63.0366 36.7581 66.0199 40.4051 66.0529C44.0521 66.0859 47.0353 63.1558 47.0683 59.5088C47.1013 55.8618 44.1713 52.8785 40.5243 52.8455C36.8773 52.8125 33.894 55.7426 33.861 59.3896Z" fill="#42E8E0"/>
<path d="M37.5996 59.4227C37.5849 61.005 38.8574 62.2996 40.4398 62.3142C42.0222 62.3289 43.3167 61.0564 43.3314 59.474C43.3461 57.8916 42.0736 56.5971 40.4912 56.5824C38.907 56.5696 37.6124 57.8403 37.5996 59.4227Z" fill="#42E8E0"/>
<defs>
<linearGradient id="paint0_linear_6005_16048" x1="0.363587" y1="178.46" x2="532.634" y2="178.46" gradientUnits="userSpaceOnUse">
<stop stop-color="#BCBEFF"/>
<stop offset="0.151" stop-color="#A3A7F5"/>
<stop offset="0.3866" stop-color="#8289E8"/>
<stop offset="0.6124" stop-color="#6A73DF"/>
<stop offset="0.8221" stop-color="#5C66D9"/>
<stop offset="1" stop-color="#5761D7"/>
</linearGradient>
<radialGradient id="paint1_radial_6005_16048" cx="0" cy="0" r="1" gradientUnits="userSpaceOnUse" gradientTransform="translate(188.502 185.882) scale(416.611 416.611)">
<stop stop-color="#42E8E0"/>
<stop offset="0.1055" stop-color="#37B6BF"/>
<stop offset="0.2197" stop-color="#2C87A1"/>
<stop offset="0.338" stop-color="#235F87"/>
<stop offset="0.4587" stop-color="#1C3F72"/>
<stop offset="0.5824" stop-color="#162561"/>
<stop offset="0.7105" stop-color="#121355"/>
<stop offset="0.8458" stop-color="#10084E"/>
<stop offset="1" stop-color="#0F054C"/>
</radialGradient>
<linearGradient id="paint2_linear_6005_16048" x1="340.636" y1="253.763" x2="192.057" y2="56.5913" gradientUnits="userSpaceOnUse">
<stop stop-color="#42E8E0"/>
<stop offset="0.1055" stop-color="#37B6BF"/>
<stop offset="0.2197" stop-color="#2C87A1"/>
<stop offset="0.338" stop-color="#235F87"/>
<stop offset="0.4587" stop-color="#1C3F72"/>
<stop offset="0.5824" stop-color="#162561"/>
<stop offset="0.7105" stop-color="#121355"/>
<stop offset="0.8458" stop-color="#10084E"/>
<stop offset="1" stop-color="#0F054C"/>
</linearGradient>
<linearGradient id="paint3_linear_6005_16048" x1="107.792" y1="-37.8108" x2="277.962" y2="260.954" gradientUnits="userSpaceOnUse">
<stop stop-color="#42E8E0"/>
<stop offset="0.1055" stop-color="#37B6BF"/>
<stop offset="0.2197" stop-color="#2C87A1"/>
<stop offset="0.338" stop-color="#235F87"/>
<stop offset="0.4587" stop-color="#1C3F72"/>
<stop offset="0.5824" stop-color="#162561"/>
<stop offset="0.7105" stop-color="#121355"/>
<stop offset="0.8458" stop-color="#10084E"/>
<stop offset="1" stop-color="#0F054C"/>
</linearGradient>
<linearGradient id="paint4_linear_6005_16048" x1="141.818" y1="11.9027" x2="263.924" y2="194.809" gradientUnits="userSpaceOnUse">
<stop stop-color="#42E8E0"/>
<stop offset="0.1055" stop-color="#37B6BF"/>
<stop offset="0.2197" stop-color="#2C87A1"/>
<stop offset="0.338" stop-color="#235F87"/>
<stop offset="0.4587" stop-color="#1C3F72"/>
<stop offset="0.5824" stop-color="#162561"/>
<stop offset="0.7105" stop-color="#121355"/>
<stop offset="0.8458" stop-color="#10084E"/>
<stop offset="1" stop-color="#0F054C"/>
</linearGradient>
</defs>
</svg>
