<svg width="169" height="271" viewBox="0 0 169 271" fill="none" xmlns="http://www.w3.org/2000/svg">
<path d="M37.052 7.71949L50.184 0.159495L50.185 0.182493C50.717 -0.0945067 51.389 -0.0715074 52.132 0.357493L165.225 65.6525C166.926 66.6345 168.304 69.2685 168.304 71.5355V328.783C168.304 330.033 167.876 330.892 167.215 331.263L167.234 331.274L154.111 338.831L153.822 324.528L52.131 265.817C50.43 264.835 49.052 262.201 49.052 259.934V14.4725C48.788 15.3065 48.587 15.9145 48.558 15.9345C48.462 15.9985 37.052 7.71949 37.052 7.71949Z" fill="url(#paint0_linear_6005_16185)"/>
<path d="M168.225 70.5875L134.053 90.3165L128.892 87.3365L165.775 66.0425C166.991 67.0385 167.956 68.8345 168.225 70.5875Z" fill="url(#paint1_linear_6005_16185)"/>
<path d="M39.085 273.33L152.179 338.625C153.88 339.607 155.258 338.565 155.258 336.297V79.0495C155.258 76.7825 153.879 74.1485 152.179 73.1665L39.085 7.87152C37.384 6.88952 36.006 7.93153 36.006 10.1995V267.448C36.006 269.715 37.385 272.349 39.085 273.33Z" fill="url(#paint2_linear_6005_16185)"/>
<path d="M36.006 253.365L155.258 322.216V93.1295L36.006 24.2795V253.365Z" fill="#242993"/>
<path d="M36.006 253.365L155.258 322.216V93.1295L36.006 24.2795V253.365Z" fill="#242993"/>
<g opacity="0.51">
<path d="M36.006 245.333L155.258 314.183V100.468L36.006 31.6185V245.333Z" fill="#4553C7"/>
</g>
<path d="M86.342 46.7425L107.914 59.2405C108.544 59.6045 109.08 59.7125 109.312 59.1205C109.39 58.9205 109.434 58.6765 109.434 58.3935C109.434 57.2715 108.752 55.9675 107.91 55.4815L86.11 42.8955C86.044 42.8575 85.982 42.7815 85.916 42.7995C85.229 42.9915 85.115 43.1245 85.115 44.1595L85.212 44.4505C85.212 45.5715 85.5 46.2565 86.342 46.7425Z" fill="#5778FF"/>
<path d="M85.912 42.8075C85.835 43.0065 85.791 43.2495 85.791 43.5305C85.791 44.6525 86.474 45.9565 87.315 46.4425L109.115 59.0285C109.183 59.0675 109.248 59.0895 109.313 59.1165C109.081 59.7115 108.54 59.9095 107.909 59.5455L86.109 46.9595C85.267 46.4735 84.585 45.1695 84.585 44.0475C84.586 43.0155 85.165 42.5065 85.912 42.8075Z" fill="#BCD5FF"/>
<path d="M162.216 100.401L162.462 100.259C162.862 100.028 163.224 100.016 163.51 100.167L163.509 100.154L164.435 100.686L163.983 100.723C164.067 100.939 164.114 101.202 164.114 101.508V116.404C164.114 117.62 163.374 119.034 162.462 119.56L162.216 119.702C162.101 119.769 161.988 119.817 161.879 119.85L162.116 120.351L161.129 119.785L161.147 119.783C160.793 119.584 160.563 119.123 160.563 118.453V103.557C160.564 102.341 161.304 100.928 162.216 100.401Z" fill="#E9FFFF"/>
<path d="M163.154 120.241L163.4 120.099C164.312 119.572 165.052 118.159 165.052 116.943V102.047C165.052 100.831 164.312 100.271 163.4 100.798L163.154 100.94C162.242 101.467 161.502 102.88 161.502 104.096V118.992C161.502 120.208 162.242 120.768 163.154 120.241Z" fill="#BCD5FF"/>
<path d="M162.216 123.136L162.462 122.994C162.862 122.763 163.224 122.751 163.51 122.902L163.509 122.889L164.435 123.422L163.983 123.459C164.067 123.675 164.114 123.938 164.114 124.244V139.14C164.114 140.356 163.374 141.77 162.462 142.296L162.216 142.438C162.101 142.505 161.988 142.553 161.879 142.586L162.116 143.087L161.129 142.521L161.147 142.519C160.793 142.32 160.563 141.859 160.563 141.189V126.293C160.564 125.076 161.304 123.662 162.216 123.136Z" fill="#E9FFFF"/>
<path d="M163.154 142.976L163.4 142.834C164.312 142.307 165.052 140.894 165.052 139.678V124.781C165.052 123.565 164.312 123.005 163.4 123.532L163.154 123.674C162.242 124.201 161.502 125.614 161.502 126.83V141.726C161.502 142.943 162.242 143.502 163.154 142.976Z" fill="#BCD5FF"/>
<path opacity="0.6" d="M36.006 267.447V122.446C40.407 110.232 49.186 98.5605 59.306 92.7185L138.847 138.642C124.317 147.031 112.539 167.432 112.539 184.208V311.171C112.539 312.604 112.412 314.073 112.218 315.554L39.085 273.33C37.385 272.348 36.006 269.715 36.006 267.447Z" fill="#242993"/>
<path d="M36.864 76.6815L44.957 72.0205V72.0275C45.064 71.9575 45.204 71.9535 45.361 72.0445L146.758 130.586C147.089 130.777 147.357 131.289 147.357 131.73V150.871C147.357 151.083 147.292 151.236 147.191 151.321L147.194 151.323L147.188 151.327C147.18 151.333 147.171 151.337 147.163 151.341L138.989 156.049L138.924 146.801L45.361 92.7825C45.03 92.5915 44.762 92.0785 44.762 91.6375V85.0685L36.864 76.6815Z" fill="url(#paint3_linear_6005_16185)"/>
<path d="M37.225 97.4655L138.622 156.007C138.953 156.198 139.221 155.994 139.221 155.553V136.413C139.221 135.972 138.953 135.459 138.622 135.268L37.225 76.7265C36.894 76.5355 36.626 76.7385 36.626 77.1795V96.3205C36.626 96.7615 36.895 97.2745 37.225 97.4655Z" fill="url(#paint4_linear_6005_16185)"/>
<path opacity="0.6" d="M51.2119 93.5885L130.163 140.012C127.723 142.113 125.412 144.518 123.292 147.157L43.7579 101.238C46.0469 98.3865 48.5559 95.8035 51.2119 93.5885Z" fill="#242993"/>
<path d="M40.118 91.7165L135.729 146.918C135.955 147.049 136.139 146.91 136.139 146.608V141.799C136.139 141.497 135.955 141.147 135.729 141.016L40.118 85.8145C39.892 85.6835 39.708 85.8225 39.708 86.1245V90.9335C39.709 91.2355 39.892 91.5865 40.118 91.7165Z" fill="#242993"/>
<path d="M40.118 85.8155L42.062 86.9385V89.5345C42.062 89.8365 42.245 90.1865 42.472 90.3175L136.139 144.396V146.609C136.139 146.911 135.955 147.049 135.729 146.919L40.118 91.7185C39.892 91.5875 39.708 91.2375 39.708 90.9355V86.1265C39.708 85.8235 39.892 85.6845 40.118 85.8155Z" fill="#4553C7"/>
<path opacity="0.96" d="M79.541 347.981L0 302.058C12.361 294.921 22.382 277.564 22.382 263.292V136.329C22.382 119.552 34.161 99.1505 48.69 90.7625L128.231 136.686C113.701 145.075 101.923 165.475 101.923 182.252V309.215C101.922 323.488 91.902 340.844 79.541 347.981Z" fill="url(#paint5_linear_6005_16185)"/>
<path opacity="0.8" d="M48.689 90.7625L128.23 136.686C127.592 137.054 126.962 137.454 126.335 137.867L126.33 137.862L46.798 91.9395C47.424 91.5275 48.053 91.1295 48.689 90.7625Z" fill="#4553C7"/>
<path d="M138.247 187.005L141.384 188.817V186.715L138.247 184.903V187.005Z" fill="#42FFFF"/>
<path d="M138.247 201.224L141.384 203.035V190.732L138.247 188.922V201.224Z" fill="#42FFFF"/>
<path d="M138.247 208.024L141.384 209.836V204.952L138.247 203.141V208.024Z" fill="#42FFFF"/>
<path d="M138.247 215.072L141.384 216.883V212L138.247 210.188V215.072Z" fill="#42FFFF"/>
<path d="M133.569 191.105L136.706 192.916V188.032L133.569 186.221V191.105Z" fill="#42FFFF"/>
<path d="M133.569 200.44L136.706 202.251V195.08L133.569 193.268V200.44Z" fill="#42FFFF"/>
<path d="M133.569 209.033L136.706 210.844V204.693L133.569 202.882V209.033Z" fill="#42FFFF"/>
<path d="M138.247 222.12L141.384 223.931V219.047L138.247 217.236V222.12Z" fill="#42FFFF"/>
<path d="M133.569 184.304L136.706 186.116V184.014L133.569 182.202V184.304Z" fill="#42FFFF"/>
<path d="M135.909 227.608L141.384 230.77V228.729L135.909 225.568V227.608Z" fill="#42FFFF"/>
<defs>
<linearGradient id="paint0_linear_6005_16185" x1="102.678" y1="338.831" x2="102.678" y2="0" gradientUnits="userSpaceOnUse">
<stop stop-color="#5778FF"/>
<stop offset="0.1779" stop-color="#5C7DFF"/>
<stop offset="0.3876" stop-color="#6A8AFF"/>
<stop offset="0.6134" stop-color="#82A0FF"/>
<stop offset="0.849" stop-color="#A3BEFF"/>
<stop offset="1" stop-color="#BCD5FF"/>
</linearGradient>
<linearGradient id="paint1_linear_6005_16185" x1="148.559" y1="90.3168" x2="148.559" y2="66.0432" gradientUnits="userSpaceOnUse">
<stop stop-color="#C0D6FF"/>
<stop offset="0.2978" stop-color="#C5DBFF"/>
<stop offset="0.6488" stop-color="#D3E9FF"/>
<stop offset="1" stop-color="#E9FFFF"/>
</linearGradient>
<linearGradient id="paint2_linear_6005_16185" x1="95.6322" y1="305.978" x2="210.582" y2="106.886" gradientUnits="userSpaceOnUse">
<stop stop-color="#C0D6FF"/>
<stop offset="0.2978" stop-color="#C5DBFF"/>
<stop offset="0.6488" stop-color="#D3E9FF"/>
<stop offset="1" stop-color="#E9FFFF"/>
</linearGradient>
<linearGradient id="paint3_linear_6005_16185" x1="127.285" y1="167.911" x2="73.6392" y2="71.3148" gradientUnits="userSpaceOnUse">
<stop stop-color="#5778FF"/>
<stop offset="0.0398" stop-color="#5C7DFF"/>
<stop offset="0.0867" stop-color="#6A8AFF"/>
<stop offset="0.1372" stop-color="#82A0FF"/>
<stop offset="0.1899" stop-color="#A3BEFF"/>
<stop offset="0.2237" stop-color="#BCD5FF"/>
</linearGradient>
<linearGradient id="paint4_linear_6005_16185" x1="61.3816" y1="168.254" x2="97.0881" y2="98.4516" gradientUnits="userSpaceOnUse">
<stop stop-color="#C0D6FF"/>
<stop offset="0.2978" stop-color="#C5DBFF"/>
<stop offset="0.6488" stop-color="#D3E9FF"/>
<stop offset="1" stop-color="#E9FFFF"/>
</linearGradient>
<linearGradient id="paint5_linear_6005_16185" x1="9.3925" y1="315.34" x2="121.283" y2="117.08" gradientUnits="userSpaceOnUse">
<stop stop-color="#C0D6FF"/>
<stop offset="0.1196" stop-color="#D0E6FF"/>
<stop offset="0.2627" stop-color="#E9FFFF"/>
<stop offset="0.5143" stop-color="#C0D6FF"/>
<stop offset="0.6239" stop-color="#D0E6FF"/>
<stop offset="0.755" stop-color="#E9FFFF"/>
<stop offset="1" stop-color="#C0D6FF"/>
</linearGradient>
</defs>
</svg>
