<svg width="132" height="175" viewBox="0 0 132 175" fill="none" xmlns="http://www.w3.org/2000/svg">
<path d="M84.3964 79.1003V88.5456L75.4619 93.2673C76.0508 92.332 76.6417 91.3967 77.2326 90.4596L82.7226 87.5578V81.7543C83.2799 80.8678 83.8391 79.985 84.3964 79.1003Z" fill="#FFB133"/>
<path d="M84.3964 5.90308V15.3483C84.3628 15.3302 84.3292 15.3121 84.2936 15.294C83.7699 15.0172 83.2482 14.7386 82.7226 14.4618V8.65648L77.2305 11.5583C76.6416 11.2471 76.0527 10.9359 75.4619 10.623L84.3964 5.90308Z" fill="#FFB133"/>
<path d="M84.3964 5.903L75.4619 10.6247C75.0903 10.4275 74.7188 10.2321 74.3453 10.0349L78.8135 7.67407L83.2798 5.31323L84.3964 5.903Z" fill="#FFEA3B"/>
<path d="M84.3964 15.3484V79.1005C83.8391 79.987 83.2799 80.8698 82.7226 81.7544V87.558L77.2326 90.4597C76.6417 91.3968 76.0508 92.3303 75.4619 93.2674L28.5539 118.059V35.4183L75.4619 10.6266C76.0508 10.9396 76.6396 11.249 77.2305 11.5619L82.7226 8.66016V14.4655C83.2483 14.7423 83.77 15.0209 84.2937 15.2977C84.3292 15.3122 84.3628 15.3303 84.3964 15.3484ZM75.4598 79.1005V57.8492L39.7197 76.7378V97.9873L75.4598 79.1005Z" fill="#D30C44"/>
<path d="M78.8116 7.67401L74.3433 10.0349L28.552 34.2368L21.8506 30.6946C37.115 22.6279 52.3795 14.5594 67.6439 6.49268C69.132 5.70573 70.622 4.91879 72.1101 4.13184C72.8532 4.52622 73.5982 4.91879 74.3433 5.31317C75.8334 6.10012 77.3235 6.88706 78.8116 7.67401Z" fill="#DBF3FF"/>
<path d="M75.4598 57.8491V79.1005L39.7216 97.9891V76.7378L75.4598 57.8491Z" fill="#CFEEFF"/>
<path d="M75.4598 10.6247L28.552 35.4164L17.3822 29.5134L64.2902 4.72168C64.6637 4.91887 65.0352 5.11604 65.4068 5.31142L19.6154 29.5134L21.8485 30.6929L28.5499 34.2351L74.3413 10.0331C74.7168 10.2321 75.0903 10.4293 75.4598 10.6247Z" fill="#FF2453"/>
<path d="M74.3432 0.589844V5.31156C73.5982 4.91718 72.8532 4.5246 72.1101 4.13022C70.62 4.91718 69.13 5.70414 67.6439 6.49109C66.8989 6.09852 66.1537 5.70414 65.4087 5.30976L74.3432 0.589844Z" fill="#FFB133"/>
<path d="M74.3432 0.589741L65.4087 5.31145C65.0372 5.11426 64.6656 4.91709 64.2921 4.72171L73.2267 0L74.3432 0.589741Z" fill="#FFEA3B"/>
<path d="M67.6439 6.49274C52.3795 14.5595 37.115 22.628 21.8506 30.6947L19.6174 29.5151L65.4087 5.31323C66.1538 5.7058 66.8989 6.10017 67.6439 6.49274Z" fill="#D30C44"/>
<path d="M28.552 35.4182V118.059L17.3822 112.156V29.5151L28.552 35.4182ZM26.3188 105.072V105.068C26.3168 104.61 26.2358 104.16 26.1074 103.72C25.9335 103.136 25.6686 102.575 25.3366 102.049C25.0026 101.522 24.5955 101.03 24.1311 100.596C23.6667 100.165 23.141 99.7927 22.5224 99.5539C22.1371 99.4037 21.7142 99.3078 21.3011 99.3422C21.2755 99.344 21.2498 99.3476 21.2241 99.3513C20.9197 99.3892 20.6272 99.4996 20.3901 99.6733C20.1332 99.8614 19.9455 100.126 19.8229 100.41C19.6688 100.764 19.6154 101.149 19.6174 101.529C19.6194 101.985 19.6984 102.438 19.8289 102.877C20.0028 103.461 20.2655 104.022 20.5995 104.549C20.9335 105.075 21.3387 105.567 21.8051 106.001C22.2695 106.432 22.7951 106.803 23.4137 107.043C23.799 107.194 24.222 107.29 24.6351 107.253C24.9651 107.224 25.2892 107.11 25.5461 106.92C25.6528 106.843 25.7457 106.752 25.8287 106.651C25.9453 106.51 26.0421 106.349 26.1133 106.184C26.2654 105.835 26.3188 105.451 26.3188 105.072ZM26.3188 79.1004V41.3212L19.6174 37.7791V75.5582L26.3188 79.1004Z" fill="#BD003C"/>
<path d="M26.3188 105.07C26.3188 105.072 26.3188 105.072 26.3188 105.07C26.3188 105.451 26.2654 105.835 26.1112 106.19C26.0381 106.356 25.9453 106.515 25.8267 106.656C24.9651 106.756 24.0936 106.334 23.3901 105.81C22.6826 105.283 22.147 104.65 21.7142 103.964C21.2814 103.277 20.9494 102.537 20.8031 101.71C20.6589 100.891 20.6964 99.988 21.222 99.3549C21.2477 99.3494 21.2734 99.3458 21.2991 99.344C21.7121 99.3078 22.1332 99.4055 22.5205 99.5556C23.1391 99.7963 23.6647 100.167 24.1291 100.598C24.5935 101.032 25.0007 101.524 25.3347 102.05C25.6667 102.577 25.9314 103.138 26.1053 103.722C26.2358 104.16 26.3168 104.612 26.3188 105.07Z" fill="#01000A"/>
<path d="M26.3188 41.3212V79.1004L19.6174 75.5582V37.7791L26.3188 41.3212Z" fill="#D30C44"/>
<path d="M23.392 105.81C24.0956 106.336 24.9651 106.758 25.8267 106.656C25.7437 106.756 25.6508 106.846 25.5441 106.926C25.2892 107.114 24.9631 107.228 24.6331 107.259C24.22 107.295 23.7972 107.197 23.4118 107.049C22.7932 106.808 22.2675 106.437 21.8031 106.007C21.3367 105.573 20.9316 105.081 20.5976 104.554C20.2636 104.028 20.0008 103.467 19.8269 102.883C19.6964 102.443 19.6174 101.991 19.6154 101.535C19.6134 101.153 19.6668 100.77 19.8209 100.415C19.9435 100.131 20.1312 99.8669 20.3881 99.6787C20.6233 99.5051 20.9177 99.3947 21.2221 99.3567C20.6964 99.9899 20.6589 100.894 20.8032 101.712C20.9494 102.537 21.2794 103.279 21.7142 103.966C22.147 104.65 22.6845 105.283 23.392 105.81Z" fill="#8CA3C0"/>
<path d="M75.5232 10.7225L75.3986 10.5289L84.3352 5.80542L84.4596 5.99898L75.5232 10.7225Z" fill="white"/>
<path d="M65.4699 5.40917L65.3455 5.21561L74.2819 0.493896L74.4065 0.687459L65.4699 5.40917Z" fill="white"/>
<path d="M28.4886 35.5141L17.3209 29.6111L17.4455 29.4175L28.6152 35.3205L28.4886 35.5141Z" fill="white"/>
<path d="M28.6152 35.5141L28.4886 35.3205L75.3986 10.5288L75.5232 10.7224L28.6152 35.5141Z" fill="white"/>
<path d="M19.6787 29.6111L19.5541 29.4175L65.3455 5.21558L65.47 5.40914L19.6787 29.6111Z" fill="white"/>
<path d="M92.2361 9.11768V98.1554L7.53656 142.984V53.9468L92.2361 9.11768Z" fill="#FFF6E2"/>
<path d="M50.5059 62.6341L21.5955 77.9136V75.9544L50.5059 60.6748V62.6341Z" fill="#040F36"/>
<path d="M84.5801 45.1384L72.4796 51.51V49.5508L84.5801 43.1792V45.1384Z" fill="#040F36"/>
<path d="M84.5801 51.7397L72.4796 58.1131V56.1521L84.5801 49.7805V51.7397Z" fill="#040F36"/>
<path d="M84.5801 58.3411L72.4796 64.7145V62.7552L84.5801 56.3818V58.3411Z" fill="#040F36"/>
<path d="M84.5801 64.9424L72.4796 71.3158V69.3566L84.5801 62.9832V64.9424Z" fill="#040F36"/>
<path d="M84.5801 71.5457L72.4796 77.9173V75.958L84.5801 69.5864V71.5457Z" fill="#040F36"/>
<path d="M84.5801 78.147L72.4796 84.5186V82.5593L84.5801 76.1877V78.147Z" fill="#040F36"/>
<path d="M69.7959 52.6045L57.6934 58.9779V57.0187L69.7959 50.6453V52.6045Z" fill="#040F36"/>
<path d="M72.3591 41.958L60.2587 48.3314V46.3722L72.3591 39.9988V41.958Z" fill="#040F36"/>
<path d="M40.097 58.9399L27.9945 65.3115V63.3523L40.097 56.9807V58.9399Z" fill="#040F36"/>
<path d="M69.7959 59.2058L57.6934 65.5792V63.62L69.7959 57.2466V59.2058Z" fill="#040F36"/>
<path d="M69.7959 65.8089L57.6934 72.1804V70.2212L69.7959 63.8496V65.8089Z" fill="#040F36"/>
<path d="M69.7959 72.4104L57.6934 78.782V76.8228L69.7959 70.4512V72.4104Z" fill="#040F36"/>
<path d="M69.7959 79.0117L57.6934 85.3851V83.4241L69.7959 77.0525V79.0117Z" fill="#040F36"/>
<path d="M69.7959 85.613L57.6934 91.9865V90.0272L69.7959 83.6538V85.613Z" fill="#040F36"/>
<path d="M71.6714 99.59L59.569 105.962V104.002L71.6714 97.6289V99.59Z" fill="#040F36"/>
<path d="M50.5059 69.447L21.5955 84.7266V82.7673L50.5059 67.4878V69.447Z" fill="#040F36"/>
<path d="M50.5059 76.26L21.5955 91.5395V89.5803L50.5059 74.3008V76.26Z" fill="#040F36"/>
<path d="M50.5059 83.0713L21.5955 98.3508V96.3916L50.5059 81.1121V83.0713Z" fill="#040F36"/>
<path d="M50.5059 89.8843L21.5955 105.164V103.205L50.5059 87.925V89.8843Z" fill="#040F36"/>
<path d="M50.5059 96.6974L21.5955 111.977V110.016L50.5059 94.7363V96.6974Z" fill="#040F36"/>
<path d="M88.1294 24.5945L79.4004 29.2076V21.2169L88.1294 16.6038V24.5945Z" fill="#617EA1"/>
<path d="M13.6847 78.053L13.576 78.1091V118.321L18.89 115.514H18.9119V115.503L86.086 79.9996L86.1928 79.9435V39.7312L13.6847 78.053ZM85.7659 73.0889L71.2959 80.7359V74.5651L85.7659 66.9163V73.0889ZM56.6243 88.4915V82.3207L70.8651 74.7949V80.9657L56.6243 88.4915ZM70.8651 81.4198V87.5905L56.6243 95.1163V88.9456L70.8651 81.4198ZM14.0088 84.9655L18.4829 82.6011V88.7719L14.0088 91.1364V84.9655ZM56.1935 75.9201V82.0909L18.9119 101.795V95.6247L56.1935 75.9201ZM18.9138 95.1688V88.998L56.1955 69.2953V75.4661L18.9138 95.1688ZM56.6243 75.694L70.8651 68.1682V74.339L56.6243 81.8648V75.694ZM56.6243 75.2381V69.0673L70.8651 61.5415V67.7123L56.6243 75.2381ZM56.6243 68.6114V62.4407L70.8651 54.9149V61.0856L56.6243 68.6114ZM56.6243 61.9848V55.814L70.8651 48.2882V54.459L56.6243 61.9848ZM56.1935 62.2127L18.9119 81.9155V75.7446L56.1935 56.0401V62.2127ZM56.1935 62.6686V68.8394L18.9119 88.5439V82.3731L56.1935 62.6686ZM14.0088 91.5904L18.4829 89.226V95.3967L14.0088 97.7612V91.5904ZM14.0088 98.2171L18.4829 95.8526V102.023L14.0088 104.388V98.2171ZM14.0088 104.844L18.4829 102.479V108.65L14.0088 111.015V104.844ZM18.9138 102.251L56.1955 82.5468V88.7176L18.9138 108.42V102.251ZM85.7659 66.4641L71.2959 74.111V67.9403L85.7659 60.2933V66.4641ZM85.7659 59.8374L71.2959 67.4862V61.3154L85.7659 53.6666V59.8374ZM85.7659 53.2107L71.2959 60.8577V54.6869L85.7659 47.0399V53.2107ZM85.7659 46.584L71.2959 54.231V48.0602L85.7659 40.4114V46.584ZM18.4829 75.9726V82.1434L14.0088 84.5079V78.3371L18.4829 75.9726ZM14.0088 111.47L18.4829 109.106V115.277L14.0088 117.641V111.47ZM18.9138 108.878L56.1955 89.1753V95.3407H56.2093L18.9157 115.052L18.9138 108.878ZM71.2939 87.3644V81.1936L85.764 73.5466V79.7174L71.2939 87.3644Z" fill="#617EA1"/>
<path d="M24.5638 67.9618V64.4739L45.6759 53.3154V56.8033L24.5638 67.9618ZM24.9947 64.7018V67.2797L45.2451 56.5754V53.9975L24.9947 64.7018Z" fill="#617EA1"/>
<path d="M55.7528 51.4866V47.9987L76.867 36.842V40.33L55.7528 51.4866ZM56.1816 48.2284V50.8064L76.4342 40.102V37.5241L56.1816 48.2284Z" fill="#617EA1"/>
<path d="M55.7528 108.701V105.213L76.867 94.0562V97.5441L55.7528 108.701ZM56.1816 105.441V108.019L76.4342 97.3143V94.7364L56.1816 105.441Z" fill="#617EA1"/>
<path d="M122.024 76.9673V95.5429L62.1973 127.162V108.586L122.024 76.9673Z" fill="#E6F8FF"/>
<path d="M62.1973 108.586V127.162L30.289 110.298V91.7222L62.1973 108.586Z" fill="#CFEEFF"/>
<path d="M132 119.79V121.9L72.1713 153.513V151.409L132 119.79Z" fill="#617EA1"/>
<path d="M132 119.79L72.1713 151.409L62.2012 146.14L122.028 114.519L132 119.79Z" fill="#CFEEFF"/>
<path d="M122.028 97.6543V114.519L62.2012 146.14V129.273L122.028 97.6543Z" fill="#FFD738"/>
<path d="M72.1713 151.409V153.513L30.3009 131.383V129.273L62.2012 146.14L72.1713 151.409Z" fill="#617EA1"/>
<path d="M62.2012 129.273V146.14L30.3009 129.273V112.409L62.2012 129.273Z" fill="#FFB133"/>
<path d="M94.9593 116.17V128.821L89.2618 131.831V119.18L94.9593 116.17Z" fill="white"/>
<path d="M89.8113 119.472L94.41 117.042V129.12L89.8113 131.549V119.472Z" fill="#0A366E"/>
<path d="M86.9339 120.423V133.074L81.2364 136.085V123.434L86.9339 120.423Z" fill="white"/>
<path d="M81.7877 123.723L86.3844 121.293V133.373L81.7877 135.802V123.723Z" fill="#0A366E"/>
<path d="M102.082 112.407V125.058L96.3842 128.069V115.418L102.082 112.407Z" fill="white"/>
<path d="M96.9337 115.709L101.532 113.28V125.357L96.9337 127.787V115.709Z" fill="#0A366E"/>
<path d="M85.0268 126.256C85.0268 131.875 85.0268 137.498 85.0268 143.12C85.0268 143.377 84.7461 143.592 84.4655 143.714C84.1849 143.835 83.8984 143.864 83.6138 143.864C83.3332 143.864 83.0466 143.833 82.762 143.714C82.4873 143.592 82.2067 143.377 82.2067 143.12C82.2067 137.501 82.2067 131.889 82.2067 126.276C82.2067 126.355 82.2403 126.442 82.2778 126.513C82.3826 126.71 82.6474 126.82 82.8944 126.896C83.1968 126.987 83.4774 127.017 83.764 126.996C84.0011 126.981 84.2422 126.936 84.4794 126.846C84.6612 126.77 84.843 126.668 84.9418 126.513C84.9853 126.437 85.013 126.352 85.013 126.256H85.0268Z" fill="#617EA1"/>
<path d="M88.499 124.421C88.499 130.04 88.499 135.663 88.499 141.286C88.499 141.543 88.2184 141.758 87.9378 141.879C87.6572 142 87.3706 142.031 87.086 142.031C86.8054 142.031 86.5189 142 86.2343 141.879C85.9596 141.758 85.679 141.541 85.679 141.286C85.679 135.667 85.679 130.055 85.679 124.441C85.679 124.523 85.7126 124.608 85.7501 124.678C85.8549 124.875 86.1197 124.986 86.3667 125.062C86.6691 125.152 86.9497 125.183 87.2363 125.161C87.4734 125.147 87.7145 125.102 87.9517 125.011C88.1335 124.935 88.3152 124.834 88.414 124.678C88.4575 124.602 88.4852 124.517 88.4852 124.421H88.499Z" fill="#617EA1"/>
<path d="M33.7751 108.496V98.5732L40.3125 102.027V111.95L33.7751 108.496Z" fill="white"/>
<path d="M34.3245 108.207V99.4453L39.7631 102.316V111.078L34.3245 108.207Z" fill="#061D47"/>
<path d="M43.2907 113.525V103.603L49.83 107.056V116.979L43.2907 113.525Z" fill="white"/>
<path d="M43.84 113.236V104.475L49.2806 107.347V116.107L43.84 113.236Z" fill="#061D47"/>
<path d="M52.8082 118.555V108.634L59.3476 112.085V122.008L52.8082 118.555Z" fill="white"/>
<path d="M53.3596 118.265V109.504L58.7982 112.376V121.136L53.3596 118.265Z" fill="#061D47"/>
<path d="M90.6196 108.496V98.5732L84.0822 102.027V111.95L90.6196 108.496Z" fill="white"/>
<path d="M90.0702 108.207V99.4453L84.6315 102.316V111.078L90.0702 108.207Z" fill="#0A366E"/>
<path d="M81.104 113.525V103.603L74.5646 107.056V116.979L81.104 113.525Z" fill="white"/>
<path d="M80.5546 113.236V104.475L75.114 107.347V116.107L80.5546 113.236Z" fill="#0A366E"/>
<path d="M71.5865 118.555V108.634L65.0471 112.085V122.008L71.5865 118.555Z" fill="white"/>
<path d="M71.0371 118.265V109.504L65.5965 112.376V121.136L71.0371 118.265Z" fill="#0A366E"/>
<path d="M119.172 93.4084V83.4856L112.633 86.9373V96.8602L119.172 93.4084Z" fill="white"/>
<path d="M118.621 93.1173V84.3577L113.182 87.2287V95.9901L118.621 93.1173Z" fill="#0A366E"/>
<path d="M71.5865 137.369V127.448L65.0471 130.9V140.823L71.5865 137.369Z" fill="white"/>
<path d="M71.0371 137.08V128.318L65.5965 131.191V139.951L71.0371 137.08Z" fill="#0A366E"/>
<path d="M119.172 112.223V102.3L112.633 105.752V115.675L119.172 112.223Z" fill="white"/>
<path d="M118.621 111.932V103.172L113.182 106.043V114.805L118.621 111.932Z" fill="#0A366E"/>
<path d="M109.655 98.4377V88.5149L103.117 91.9666V101.889L109.655 98.4377Z" fill="white"/>
<path d="M109.105 98.1466V89.387L103.667 92.258V101.019L109.105 98.1466Z" fill="#0A366E"/>
<path d="M100.137 103.467V93.5439L93.5997 96.9975V106.92L100.137 103.467Z" fill="white"/>
<path d="M99.5878 103.176V94.416L94.1492 97.287V106.048L99.5878 103.176Z" fill="#0A366E"/>
<path d="M33.7751 127.307V117.384L40.3125 120.836V130.759L33.7751 127.307Z" fill="white"/>
<path d="M34.3245 127.016V118.254L39.7631 121.127V129.887L34.3245 127.016Z" fill="#061D47"/>
<path d="M43.2907 132.336V122.413L49.83 125.865V135.788L43.2907 132.336Z" fill="white"/>
<path d="M43.84 132.045V123.283L49.2806 126.156V134.916L43.84 132.045Z" fill="#061D47"/>
<path d="M52.8082 137.365V127.443L59.3476 130.894V140.817L52.8082 137.365Z" fill="white"/>
<path d="M53.3596 137.074V128.315L58.7982 131.186V139.947L53.3596 137.074Z" fill="#061D47"/>
<path d="M122.024 95.543V97.6524L62.1973 129.272V127.162L122.024 95.543Z" fill="#617EA1"/>
<path d="M62.1973 127.162V129.272L30.289 112.407V110.298L62.1973 127.162Z" fill="#617EA1"/>
<path d="M126.012 74.8599V76.9638L62.1973 110.694V108.585L126.012 74.8599Z" fill="#657A92"/>
<path d="M126.012 74.8598L62.1973 108.585L26.303 89.6165L90.1175 55.8879L126.012 74.8598ZM62.1973 106.475L122.024 74.8598L90.1175 57.9955L30.291 89.6147L62.1973 106.475Z" fill="#CFEEFF"/>
<path d="M122.028 74.8581L121.026 75.3882L62.1993 106.474L30.293 89.6148L90.1137 57.9993L120.032 73.8016L122.028 74.8581Z" fill="#FFFFFA"/>
<path d="M62.1973 108.585V110.694L26.303 91.7205V89.6147L62.1973 108.585Z" fill="#3F4F64"/>
<path d="M90.1156 57.9937V59.0465L31.287 90.1411L30.291 89.6147L60.2033 73.8051L90.1156 57.9937Z" fill="#617EA1"/>
<path d="M122.028 74.8581L121.026 75.3881L90.1136 59.0467V57.9956L120.032 73.8016L122.028 74.8581Z" fill="#617EA1"/>
<path d="M126.012 74.8599C115.508 80.6887 104.839 86.2571 94.2578 91.9648C83.5683 97.4988 72.9658 103.172 62.1973 108.585C72.701 102.754 83.3706 97.1876 93.9514 91.4799C104.643 85.9459 115.245 80.2726 126.012 74.8599Z" fill="white"/>
<path d="M114.498 110.846C114.498 116.463 114.498 122.088 114.498 127.71C114.498 127.967 114.218 128.184 113.937 128.304C113.657 128.425 113.37 128.454 113.085 128.454C112.805 128.454 112.518 128.423 112.234 128.304C111.959 128.183 111.678 127.967 111.678 127.71C111.678 122.091 111.678 116.48 111.678 110.866C111.678 110.948 111.712 111.033 111.75 111.103C111.854 111.298 112.117 111.411 112.366 111.487C112.668 111.577 112.949 111.608 113.236 111.586C113.473 111.572 113.714 111.526 113.951 111.436C114.133 111.36 114.315 111.259 114.413 111.103C114.457 111.027 114.485 110.942 114.485 110.846H114.498Z" fill="#617EA1"/>
<path d="M117.969 109.01C117.969 114.627 117.969 120.252 117.969 125.874C117.969 126.131 117.688 126.348 117.407 126.468C117.127 126.589 116.84 126.618 116.556 126.618C116.275 126.618 115.988 126.587 115.704 126.468C115.429 126.346 115.149 126.131 115.149 125.874C115.149 120.255 115.149 114.644 115.149 109.03C115.149 109.11 115.182 109.196 115.22 109.267C115.324 109.464 115.587 109.574 115.836 109.649C116.139 109.739 116.419 109.77 116.706 109.75C116.943 109.735 117.184 109.69 117.421 109.6C117.603 109.524 117.785 109.422 117.884 109.267C117.927 109.191 117.955 109.106 117.955 109.01H117.969Z" fill="#617EA1"/>
<path d="M121.03 106.615V108.724L83.1415 128.745V126.641L121.03 106.615Z" fill="#617EA1"/>
<path d="M121.03 106.615L83.1415 126.641L73.1694 121.369L111.06 101.345L121.03 106.615Z" fill="#FFFFFA"/>
<path d="M83.1415 126.641V128.745L73.1694 123.479V121.369L83.1415 126.641Z" fill="#617EA1"/>
<path d="M121.03 106.615C114.846 110.161 108.499 113.446 102.238 116.87C95.8685 120.123 89.588 123.513 83.1395 126.641C89.3212 123.094 95.6708 119.808 101.931 116.386C108.303 113.135 114.583 109.744 121.03 106.615Z" fill="white"/>
<path d="M72.1713 151.409C82.011 145.932 92.0148 140.714 101.932 135.357C111.957 130.174 121.895 124.85 131.998 119.79C122.158 125.27 112.155 130.487 102.238 135.842C92.2124 141.025 82.2738 146.348 72.1713 151.409Z" fill="white"/>
<path d="M96.5068 117.169L93.908 115.787L93.8981 112.61L96.4969 113.992L96.5068 117.169Z" fill="#157D5F"/>
<path d="M92.1986 114.37L89.5999 112.988L90.7263 111.096L93.3251 112.478L92.1986 114.37Z" fill="#157D5F"/>
<path d="M96.7972 105.224L99.396 106.606C99.7892 106.816 99.9316 107.235 99.9336 107.901C99.9395 109.66 98.5838 111.235 96.9297 112.109C95.4238 112.905 94.2676 112.945 93.323 112.478L90.7242 111.096C91.6689 111.564 92.823 111.523 94.3309 110.727C95.987 109.851 97.3407 108.276 97.3367 106.519C97.3348 105.851 97.1925 105.432 96.7972 105.224Z" fill="#54C146"/>
<path d="M95.1866 104.583L92.5878 103.201C93.0186 103.431 93.8072 103.396 95.1866 103.116C96.4296 102.863 97.5739 102.723 98.3447 103.134L100.943 104.516C100.173 104.106 99.0304 104.245 97.7853 104.498C96.4059 104.777 95.6174 104.811 95.1866 104.583Z" fill="#54C146"/>
<path d="M98.1214 97.971L95.5226 96.5888C96.9277 95.9954 97.9336 96.0425 98.8783 96.4694L101.477 97.8515C100.532 97.4246 99.5265 97.3776 98.1214 97.971Z" fill="#54C146"/>
<path d="M93.661 106.629L91.0622 105.247C90.4516 104.923 90.1374 104.283 90.1354 103.223C90.1295 101.159 91.6551 98.8738 93.8507 97.4482L96.4495 98.8304C94.2539 100.256 92.7282 102.541 92.7341 104.605C92.7361 105.665 93.0503 106.304 93.661 106.629Z" fill="#54C146"/>
<path d="M96.4396 95.6192L93.8408 94.2371L95.5127 93.3542L98.1094 94.7364L96.4396 95.6192Z" fill="#54C146"/>
<path d="M96.4495 98.8303L93.8507 97.4482L93.8408 94.2371L96.4396 95.6192L96.4495 98.8303Z" fill="#157D5F"/>
<path d="M98.1094 94.7363L98.1193 97.971C99.5244 97.3776 100.53 97.4246 101.475 97.8516L100.372 99.7077C99.4039 99.2771 98.398 99.4273 97.23 100.046C95.8249 100.788 94.7143 102.063 94.7182 103.474C94.7222 104.704 95.2736 105.008 97.7874 104.498C100.026 104.042 101.935 103.959 101.943 106.774C101.949 108.977 100.574 111.358 98.1667 113.044L98.1766 116.288L96.5048 117.171L96.4949 113.992C94.6985 114.859 93.2914 114.917 92.1965 114.37L93.323 112.478C94.2676 112.947 95.4238 112.905 96.9297 112.109C98.5857 111.233 99.9395 109.658 99.9336 107.901C99.9296 106.474 99.2755 106.173 96.8882 106.665C94.1708 107.217 92.74 106.873 92.7321 104.605C92.7262 102.541 94.2518 100.256 96.4474 98.8303L96.4375 95.6192L98.1094 94.7363Z" fill="#2A9457"/>
<path d="M88.8271 57.0115C88.833 58.7355 88.3152 60.7708 86.329 61.82C85.5623 62.2253 85.0129 62.2651 84.6295 62.0606L86.7936 63.2112C87.1769 63.4156 87.8349 63.4609 88.6037 63.0538C90.5898 62.0045 90.9969 59.8843 90.991 58.1602L88.8271 57.0115Z" fill="#BD003C"/>
<path d="M87.9969 54.6272C88.6195 54.9583 88.8231 55.9243 88.8271 57.0116L90.989 58.1621C90.9851 57.0749 90.7835 56.1088 90.1591 55.7778L87.9969 54.6272Z" fill="#BD003C"/>
<path d="M88.4615 53.0768C91.8053 51.3093 94.3942 52.44 94.406 56.3567C94.4179 60.2806 91.8467 64.1375 88.501 65.905C85.1236 67.6906 82.5368 66.5599 82.5229 62.636C82.5111 58.7193 85.0841 54.8623 88.4615 53.0768ZM90.9891 58.1621C90.9832 56.4037 90.4555 54.9619 88.4694 56.0111C86.4516 57.0785 85.9675 59.0956 85.9715 60.8143C85.9774 62.5727 86.4714 64.038 88.4911 62.9725C90.4772 61.9214 90.995 59.8862 90.9891 58.1621Z" fill="#FF2453"/>
<path d="M73.0587 75.3701C73.6812 75.7012 73.8847 76.6672 73.8887 77.7545C73.8946 79.4786 73.3769 81.5138 71.3908 82.5631C70.622 82.9701 70.0745 83.0081 69.6911 82.8037L71.8551 83.9542C72.2385 84.1587 72.7859 84.1188 73.5547 83.7136C75.5408 82.6643 76.0567 80.6291 76.0527 78.9051C76.0488 77.8178 75.8451 76.8518 75.2226 76.5207L73.0587 75.3701Z" fill="#BD003C"/>
<path d="M71.3552 72.6711C67.9779 74.4567 65.4383 78.2955 65.4502 82.214C65.4561 84.1642 66.0905 85.4287 67.1419 85.9877L69.3039 87.1383C68.2525 86.5793 67.6181 85.3148 67.6122 83.3646C67.6003 79.4479 70.1398 75.6072 73.5172 73.8217C75.2247 72.9189 76.7286 72.7615 77.8017 73.3332L75.6377 72.1826C74.5686 71.611 73.0627 71.7684 71.3552 72.6711Z" fill="#BD003C"/>
<path d="M90.5465 51.4559C89.4773 50.8878 87.9832 51.0416 86.2975 51.9335C82.9201 53.719 80.3491 57.576 80.3609 61.4927C80.3669 63.4338 81.0032 64.6911 82.0546 65.2501L84.2166 66.4007C83.1652 65.8417 82.5289 64.5844 82.5229 62.6433C82.5111 58.7266 85.0821 54.8696 88.4595 53.084C90.1452 52.194 91.6413 52.0384 92.7084 52.6065L90.5465 51.4559Z" fill="#BD003C"/>
<path d="M79.4993 77.0834C79.5111 81.0073 76.9401 84.8643 73.5627 86.6499C70.1853 88.4336 67.6301 87.2866 67.6182 83.3627C67.6063 79.4461 70.1458 75.6054 73.5231 73.8198C76.9005 72.0361 79.4874 73.1668 79.4993 77.0834ZM73.5548 83.7155C75.5409 82.6663 76.0567 80.631 76.0528 78.907C76.0469 77.1485 75.5192 75.7067 73.533 76.756C71.5153 77.8233 71.0312 79.8405 71.0351 81.5591C71.0411 83.3157 71.535 84.7829 73.5548 83.7155Z" fill="#FF2453"/>
<path d="M71.4243 62.8858L69.2406 61.7334L85.4734 78.8112L87.6749 79.9617L71.4243 62.8858Z" fill="#BD003C"/>
<path d="M74.3057 59.4177L72.1437 58.2671L69.2406 61.7333L71.4243 62.8857L74.3057 59.4177Z" fill="#BD003C"/>
<path d="M74.3156 59.4177L71.4243 62.8857L87.6749 79.9617L90.5227 76.5082L74.3156 59.4177Z" fill="#FF2453"/>
<path opacity="0.25" d="M32.2811 162.566C37.6624 165.41 37.6624 170.022 32.2811 172.867C26.8998 175.711 18.1748 175.711 12.7935 172.867C7.41218 170.023 7.41218 165.412 12.7935 162.566C18.1748 159.722 26.8998 159.722 32.2811 162.566Z" fill="#ADB8E8"/>
<path d="M27.7317 159.919C27.7317 159.919 28.7475 163.138 31.0044 164.241C32.8067 165.122 35.949 167.753 35.8502 168.585C35.8502 168.585 34.196 170.2 29.5005 168.116C28.9708 167.881 28.4927 167.557 28.0935 167.163C27.5203 166.599 26.4452 165.709 25.0243 165.303L23.9334 165.879C23.9334 165.879 21.7299 165.18 20.6173 164.437V163.008C20.6173 162.188 20.8129 161.378 21.1904 160.634L27.7317 159.919Z" fill="#01000A"/>
<path d="M32.3582 136.434C32.8344 131.484 31.6922 111.248 31.6922 111.248L27.307 114.238L20.566 114.989C20.566 114.989 22.1628 118.531 21.8841 120.442C21.232 124.921 22.637 138.444 22.637 138.444C20.8584 143.665 20.2181 159.737 20.2181 159.737C20.2003 160.366 20.6253 160.999 21.4909 161.479C23.1885 162.42 25.9434 162.42 27.641 161.479C28.4433 161.034 28.8524 160.459 28.8978 159.876H28.9155C28.9136 159.851 28.9137 159.824 28.9117 159.798C28.9117 159.775 28.9097 159.751 28.9077 159.728C28.38 151.632 32.3582 136.434 32.3582 136.434Z" fill="#061D47"/>
<path d="M21.7714 173.415C21.72 173.509 21.7714 172.085 19.8347 168.878C17.898 165.67 17.7676 164.026 17.5126 163.932C17.2577 163.838 11.6787 163.825 11.6787 163.825C11.576 163.966 11.6787 167.21 11.6787 167.21V167.85L12.7321 169.307H13.1055C13.2617 169.719 13.406 170.271 13.4633 170.987C13.6155 172.9 17.8466 174.719 19.8347 174.206C21.8228 173.696 21.8227 173.323 21.7714 173.415Z" fill="#01000A"/>
<path d="M26.7358 114.866C26.7358 114.866 26.55 121.757 26.3879 123.204C26.3148 123.935 25.7279 124.409 25.2022 124.677C25.1054 125.178 25.0085 125.637 24.8998 126.028C22.06 136.713 19.6687 141.923 19.0423 145.572C18.4198 149.215 18.8111 162.648 18.8111 162.648C18.9375 163.279 18.5384 163.941 17.6254 164.422C16.3942 165.07 14.5819 165.225 13.082 164.887C12.8468 164.835 12.6136 164.768 12.3982 164.694C12.1808 164.616 11.9752 164.522 11.7875 164.422C11.0069 164.01 10.6077 163.478 10.59 162.935C10.59 162.935 9.63137 153.034 9.53454 149.177C9.44363 145.315 10.5424 141.765 11.2163 140.01C11.8902 138.257 12.4871 124.561 12.4871 124.561C11.4495 114.893 14.3862 112.398 14.3862 112.398L16.5324 112.686L22.5363 113.766C22.5363 113.766 24.635 112.42 25.8662 114.157C25.9749 114.309 26.0382 114.71 26.0659 115.284L26.7358 114.866Z" fill="#0A3B78"/>
<path d="M17.1589 72.6945C17.1589 72.6945 18.9197 76.8572 18.7853 77.6333C18.7853 77.6333 19.722 77.2805 19.7892 76.7305C20.0224 74.8075 19.645 70.482 19.5502 70.5001C19.4257 70.5236 17.1589 72.6945 17.1589 72.6945Z" fill="#01000A"/>
<path d="M18.3624 78.0112C18.3624 78.0112 18.9257 77.4992 19.3189 77.5064C19.7122 77.5137 18.5008 79.102 18.5008 79.102L18.0126 79.6231L17.8189 78.932L18.3624 78.0112Z" fill="#C92B0D"/>
<path d="M27.2989 100.99C19.5817 97.5856 17.0146 80.2925 17.0146 80.2925C18.6529 79.2288 19.3367 75.3664 19.3367 75.3664C22.6765 74.8725 23.5737 77.6295 25.05 78.9411C26.0085 79.7968 28.3207 80.4572 28.3207 80.4572C29.7416 84.7773 27.2989 100.99 27.2989 100.99Z" fill="#F99B79"/>
<path d="M29.538 99.1793L28.4827 85.689L29.2318 82.8686L28.874 81.3634L28.052 80.1278L27.3998 79.9939C27.3998 79.9939 27.7515 84.0861 25.6014 86.0019C25.6014 86.0019 19.2083 82.8035 17.5641 79.8076L17.3704 79.9958L16.6154 80.6235V83.9414L18.6293 89.4663L19.732 114.801L26.3445 114.58L30.54 112.624L29.538 99.1793Z" fill="#E6F8FF"/>
<path d="M38.3263 110.394C37.7295 109.535 36.7058 107.912 36.9054 107.82L36.4291 107.302L34.113 108.373C34.113 108.373 34.5656 109.869 34.3265 111.226C34.0794 112.587 34.2889 113.625 34.6921 114.479C35.1012 115.331 35.7356 117.375 35.7356 117.375L36.3185 117.645L36.7789 118.479C36.7789 118.479 38.3797 118.017 38.5595 118.108C38.7295 118.197 39.8125 117.013 40.1564 116.52C40.5042 116.018 39.8915 112.786 39.8915 112.786C39.8915 112.786 38.9232 111.253 38.3263 110.394ZM37.5932 116.122L36.7275 116.8C36.7275 116.8 37.0241 116.21 36.7237 115.443C36.4233 114.678 36.281 113.744 36.281 113.744C38.0893 113.77 37.5932 116.122 37.5932 116.122Z" fill="#F99B79"/>
<path d="M30.6447 69.6514C30.6447 69.6514 30.6585 72.4519 30.1763 72.9639C29.6941 73.4758 29.7909 69.324 29.7909 69.324L30.6447 69.6514Z" fill="#01000A"/>
<path d="M39.1445 110.598L37.1761 104.578C35.516 99.516 34.5319 94.2859 34.2315 89.007C34.0556 85.8936 33.6901 83.104 32.366 81.9136L30.868 83.9615L30.2672 98.8484L33.2948 110.834H33.3106C33.3402 111.199 33.5992 111.566 34.115 111.865C35.2434 112.516 37.1128 112.581 38.2927 112.013C39.0515 111.646 39.3342 111.109 39.1445 110.598Z" fill="#157D5F"/>
<path d="M30.4115 73.1322C29.9293 74.3099 29.9234 75.1783 29.9234 75.2199C29.6111 77.635 28.795 79.1872 28.0519 80.1261C27.9492 80.2618 27.8483 80.3812 27.7456 80.4897C27.7179 80.5259 27.6823 80.5621 27.6487 80.5928C27.4214 80.8316 27.218 81.0125 27.0539 81.1374C26.963 81.2097 26.8839 81.2568 26.8266 81.2984C26.3108 81.6096 24.5065 80.6851 22.8504 79.9687C22.0619 79.6358 21.2734 78.6806 20.6548 77.7616C20.6489 77.7508 20.6489 77.7453 20.6489 77.7453C19.396 76.5658 19.2379 74.9395 19.2379 74.9395C18.0699 74.2393 19.3387 74.5107 16.8091 71.2959C17.7853 63.8335 23.8386 64.6747 23.8386 64.6747C31.0242 64.9388 30.4115 73.1322 30.4115 73.1322Z" fill="#FAAB8B"/>
<path d="M15.4257 90.5917C15.4198 91.0006 15.3348 91.3534 15.1846 91.6338C15.2873 91.0386 15.3704 90.5682 15.4139 90.3149C15.4257 90.409 15.4257 90.4977 15.4257 90.5917Z" fill="#868E46"/>
<path d="M15.4495 90.1049C15.4495 90.1049 15.4376 90.1773 15.4139 90.3148C15.4139 90.2207 15.402 90.1321 15.3901 90.0398L15.4495 90.1049Z" fill="#868E46"/>
<path d="M27.4038 81.1013C27.3978 81.284 27.3682 81.8647 27.3385 82.042C25.8484 82.0094 24.465 81.8882 23.5006 81.1085C22.3623 80.1877 20.145 78.053 20.0719 77.8648C20.9711 77.6984 22.3307 78.5504 23.1192 78.8869C24.7753 79.6015 26.5994 81.6241 27.4038 81.1013Z" fill="#F99B79"/>
<path d="M18.7438 144.589C18.7498 144.728 18.7043 144.879 18.6134 145.031C18.5166 145.181 18.3979 145.3 18.2675 145.369L16.0838 146.516C15.9534 146.588 15.8348 146.599 15.7439 146.547C15.653 146.494 15.6016 146.396 15.6016 146.261L15.6984 143.996L15.7321 142.983L16.1234 133.329V133.299C16.1293 133.257 16.1056 133.221 16.0779 133.21L15.6293 132.966L15.651 132.644C15.6787 132.296 15.9455 131.891 16.2636 131.725L17.6134 131.014C17.6193 131.014 17.6311 131.008 17.6351 131.003C17.7438 130.95 17.8387 130.941 17.9177 130.972C17.9296 130.972 17.9355 130.978 17.9514 130.988C17.9691 130.999 17.985 131.01 18.0027 131.025C18.0146 131.039 18.0304 131.055 18.0423 131.077C18.0482 131.088 18.0541 131.099 18.06 131.108C18.066 131.124 18.072 131.139 18.0779 131.16C18.0838 131.186 18.0877 131.218 18.0877 131.249L18.139 132.246L18.1451 132.391L18.7438 144.589Z" fill="#00679C"/>
<path d="M18.7438 144.589C18.7498 144.728 18.7043 144.879 18.6134 145.031C18.5166 145.181 18.3979 145.3 18.2675 145.369L16.0838 146.516C15.9534 146.588 15.8348 146.599 15.7439 146.547C15.653 146.494 15.6016 146.396 15.6016 146.261L15.6984 143.996L15.7321 142.983L16.1234 133.329V133.299C16.1293 133.257 16.1056 133.221 16.0779 133.21L15.6293 132.966L15.651 132.644C15.6787 132.296 15.9455 131.891 16.2636 131.725L17.6134 131.014C17.6193 131.014 17.6311 131.008 17.6351 131.003C17.7438 130.95 17.8387 130.941 17.9177 130.972C17.9296 130.972 17.9355 130.978 17.9514 130.988C17.9691 130.999 17.985 131.01 18.0027 131.025C18.0146 131.039 18.0304 131.055 18.0423 131.077C18.0482 131.088 18.0541 131.099 18.06 131.108C18.066 131.124 18.072 131.139 18.0779 131.16C18.0838 131.186 18.0877 131.218 18.0877 131.249L18.139 132.246L18.1451 132.391L18.7438 144.589Z" fill="#00679C"/>
<path d="M18.7438 144.589C18.7498 144.728 18.7043 144.879 18.6134 145.031C18.5166 145.181 18.3979 145.3 18.2675 145.369L16.0838 146.516C15.9534 146.588 15.8348 146.599 15.7439 146.547C15.653 146.494 15.6016 146.396 15.6016 146.261L15.6984 143.996L15.7321 142.983L16.1234 133.329V133.299C16.1293 133.257 16.1056 133.221 16.0779 133.21L15.6293 132.966L15.651 132.644C15.6787 132.296 15.9455 131.891 16.2636 131.725L17.6134 131.014C17.6193 131.014 17.6311 131.008 17.6351 131.003C17.7438 130.95 17.8387 130.941 17.9177 130.972C17.9296 130.972 17.9355 130.978 17.9514 130.988C17.9691 130.999 17.985 131.01 18.0027 131.025C18.0146 131.039 18.0304 131.055 18.0423 131.077C18.0482 131.088 18.0541 131.099 18.06 131.108C18.066 131.124 18.072 131.139 18.0779 131.16C18.0838 131.186 18.0877 131.218 18.0877 131.249L18.139 132.246L18.1451 132.391L18.7438 144.589Z" fill="#040F36"/>
<path d="M16.0778 133.21C16.0482 133.199 16.0106 133.199 15.9652 133.221C15.894 133.259 15.8308 133.362 15.8268 133.444L15.4494 142.836L15.4079 143.844L15.3189 146.109L15.3111 146.315L15.3071 146.4C15.3031 146.623 15.3822 146.795 15.5284 146.874L0.773827 139.025C0.627585 138.943 0.54656 138.771 0.552489 138.549L0.718462 134.406L3.9635 136.13L14.7854 141.89C14.8111 141.901 14.8565 141.906 14.9019 141.887C14.9731 141.849 15.0403 141.749 15.0442 141.664L15.6055 133.324L15.6213 133.036L15.6253 132.964L16.0778 133.21Z" fill="#040F36"/>
<path d="M14.7954 141.899C14.7875 141.892 14.7696 141.879 14.7657 141.868C14.7756 141.879 14.7835 141.892 14.7954 141.899Z" fill="#868E46"/>
<path d="M14.7954 141.899C14.7875 141.892 14.7696 141.879 14.7657 141.868C14.7756 141.879 14.7835 141.892 14.7954 141.899Z" fill="#868E46"/>
<path d="M18.1312 130.639C18.1273 130.639 18.1272 130.639 18.1233 130.639C18.0304 130.598 17.9178 130.598 17.7933 130.632C17.734 130.647 17.6727 130.67 17.6094 130.705L17.5127 130.755L17.3368 130.847L16.2617 131.419L3.38847 124.57L1.50909 123.569L2.8569 122.857C3.07429 122.745 3.27188 122.734 3.41416 122.806L18.1312 130.639Z" fill="#061D47"/>
<path d="M16.2597 131.415C15.7874 131.665 15.3922 132.262 15.3566 132.776V132.823L15.3507 132.895L15.3329 133.181L14.7539 141.801V141.816C14.7539 141.838 14.7539 141.852 14.7657 141.868C14.7716 141.879 14.7775 141.888 14.7874 141.894L8.5761 138.59L8.25404 138.418L5.62164 137.022L3.96552 136.139L0.720608 134.409L0.0407948 134.046C0.0111512 134.03 -0.00469724 133.999 0.00123147 133.952L0.603969 124.928C0.637565 124.42 1.0407 123.817 1.50512 123.568L3.38848 124.564L16.2597 131.415Z" fill="#061D47"/>
<path d="M19.0423 144.421C19.0502 144.636 18.975 144.891 18.8288 145.134C18.6786 145.374 18.4809 145.566 18.2675 145.678L16.0897 146.832C15.8763 146.945 15.6806 146.959 15.5285 146.878C15.3822 146.798 15.3032 146.624 15.3071 146.404L15.3111 146.319L15.319 146.112L15.408 143.847L15.4495 142.84L15.8269 133.447C15.8308 133.366 15.8941 133.263 15.9652 133.225C16.0107 133.201 16.0483 133.201 16.0779 133.214C16.1075 133.225 16.1293 133.259 16.1234 133.306L15.734 142.99L15.6965 144.001L15.6036 146.259C15.5997 146.393 15.6491 146.496 15.742 146.55C15.8349 146.599 15.9553 146.588 16.0857 146.519L18.2675 145.371C18.3979 145.302 18.5185 145.183 18.6154 145.034C18.7023 144.884 18.7497 144.732 18.7458 144.593L18.0916 131.253C18.0916 131.218 18.0877 131.191 18.0798 131.164C18.0759 131.144 18.0719 131.13 18.064 131.115C18.0601 131.104 18.0561 131.092 18.0482 131.081C18.0403 131.061 18.0225 131.046 18.0106 131.032C17.9948 131.016 17.9771 131.001 17.9553 130.994C17.9435 130.987 17.9336 130.983 17.9257 130.979C17.8466 130.952 17.7498 130.96 17.6411 131.014C17.6332 131.017 17.6253 131.021 17.6154 131.025L16.2676 131.734C15.9495 131.902 15.6807 132.306 15.6569 132.653L15.6332 132.975L15.6293 133.047L15.6135 133.335L15.0523 141.675C15.0483 141.76 14.9811 141.859 14.9099 141.897C14.8645 141.917 14.8269 141.917 14.8013 141.905C14.7894 141.897 14.7815 141.885 14.7716 141.874C14.7637 141.859 14.7598 141.843 14.7598 141.823V141.809L15.3368 133.188L15.3585 132.901L15.3625 132.828L15.3644 132.783C15.398 132.269 15.7953 131.672 16.2637 131.423L17.3387 130.851L17.5146 130.759L17.6115 130.708C17.6747 130.674 17.736 130.65 17.7953 130.636C17.9198 130.601 18.0344 130.605 18.1253 130.643C18.1293 130.643 18.1292 130.643 18.1331 130.643C18.2833 130.708 18.3802 130.858 18.3881 131.079L19.0423 144.421Z" fill="#020024"/>
<path d="M14.7954 141.899C14.7875 141.892 14.7696 141.879 14.7657 141.868C14.7756 141.879 14.7835 141.892 14.7954 141.899Z" fill="#868E46"/>
<path d="M8.25593 138.397L8.25002 139.649C8.25002 139.679 8.24413 139.712 8.2382 139.732C8.22634 139.752 8.22039 139.768 8.20853 139.784C8.2026 139.795 8.1967 139.801 8.18682 139.806L8.16499 139.821C8.1136 139.851 8.03466 139.851 7.94968 139.806L5.91808 138.731C5.75405 138.643 5.61761 138.429 5.61761 138.259L5.62365 137.002L8.25593 138.397Z" fill="#FFD738"/>
<path d="M8.19067 139.799L8.48318 139.676C8.53851 139.645 8.57207 139.584 8.57207 139.491V139.131L8.58401 138.596L8.25786 138.422V138.956L8.24797 139.645C8.24797 139.665 8.248 139.687 8.23615 139.707C8.23615 139.717 8.23615 139.726 8.23615 139.726C8.22429 139.746 8.22432 139.768 8.21444 139.777C8.20258 139.788 8.20253 139.799 8.19067 139.799Z" fill="#FFB133"/>
<path d="M6.51493 124.304L7.23226 123.924L7.22828 125.436L6.51288 125.816L6.51493 124.304Z" fill="#020024"/>
<path d="M6.9793 123.381L7.69663 123C7.41007 123.151 7.23422 123.472 7.23224 123.922L6.51685 124.304C6.51685 123.853 6.69275 123.533 6.9793 123.381Z" fill="#020024"/>
<path d="M6.60382 123.005L7.31922 122.623C7.63739 122.453 8.0742 122.464 8.56233 122.692L7.84693 123.074C7.3588 122.846 6.92199 122.835 6.60382 123.005Z" fill="#35374F"/>
<path d="M7.84692 123.074L8.56232 122.692C8.60975 122.712 8.6571 122.737 8.70453 122.762L7.9872 123.144C7.94175 123.121 7.89238 123.095 7.84692 123.074Z" fill="#35374F"/>
<path d="M7.99506 123.146L8.7125 122.764L11.0978 124.025L10.3824 124.407L7.99506 123.146Z" fill="#061D47"/>
<path d="M12.2895 127.354L13.0068 126.972L13.0049 128.486L12.2874 128.866L12.2895 127.354Z" fill="#00679C"/>
<path d="M10.3823 124.407L11.0977 124.025C11.1452 124.05 11.1926 124.076 11.2401 124.105L10.5226 124.486C10.4772 124.456 10.4298 124.432 10.3823 124.407Z" fill="#061D47"/>
<path d="M10.5247 124.487L11.242 124.105C12.2341 124.689 13.0107 125.952 13.0068 126.972L12.2914 127.354C12.2934 126.332 11.5167 125.071 10.5247 124.487Z" fill="#00679C"/>
<path d="M12.2895 127.354L13.0068 126.972L13.0049 128.486L12.2874 128.866L12.2895 127.354Z" fill="#020024"/>
<path d="M10.5247 124.487L11.242 124.105C12.2341 124.689 13.0107 125.952 13.0068 126.972L12.2914 127.354C12.2934 126.332 11.5167 125.071 10.5247 124.487Z" fill="#061D47"/>
<path d="M10.3823 124.407C10.4298 124.432 10.4772 124.458 10.5247 124.487C11.5187 125.071 12.2934 126.334 12.2914 127.354L12.2895 128.866L11.7954 128.611L11.7973 127.099C11.8092 126.446 11.3152 125.614 10.4476 125.102C10.4061 125.078 10.3626 125.053 10.3191 125.029L7.9358 123.62C7.89233 123.598 7.8488 123.577 7.80927 123.557C6.94171 123.15 6.57017 123.584 6.52274 124.304L6.52081 125.816L6.07416 125.581L6.07609 124.069C6.08004 123.047 6.86075 122.607 7.85282 123.074C7.90025 123.095 7.9476 123.119 7.99503 123.144L10.3823 124.407Z" fill="#040F36"/>
<path d="M16.1234 133.331V133.301C16.1293 133.259 16.1056 133.223 16.0779 133.212L15.6293 132.968L15.651 132.646C15.6787 132.298 15.9455 131.893 16.2637 131.727L17.6134 131.016C17.6193 131.016 17.6312 131.01 17.6351 131.005C17.7438 130.952 17.8387 130.943 17.9177 130.974C17.9296 130.974 17.9356 130.98 17.9514 130.99C17.9692 131.001 17.985 131.012 18.0028 131.027C18.0146 131.041 18.0305 131.057 18.0423 131.079C18.0483 131.09 18.0541 131.101 18.0601 131.11C18.066 131.126 18.072 131.141 18.0779 131.162C18.0838 131.188 18.0877 131.22 18.0877 131.251L18.1391 132.248L18.1451 132.392C17.2578 132.921 16.2143 133.301 16.1234 133.331Z" fill="#020024"/>
<path d="M13.2816 126.392C12.9733 127.879 12.3626 126.721 12.3626 126.721C12.3626 126.721 12.078 124.622 11.3804 123.958C10.9832 123.584 10.2579 124.195 10.2659 124.293C10.2718 124.367 10.3428 124.697 10.5009 125.136L10.6511 125.236C11.4712 125.818 11.659 126.46 11.659 126.46L11.0504 126.518L11.0385 126.513C10.8251 126.408 8.0643 125.118 7.75008 124.858C7.4991 124.65 6.74213 123.785 6.69273 122.972C6.64332 122.16 7.32917 119.253 7.40427 119.229L7.53068 118.942C7.74411 119.04 7.97731 119.116 8.23027 119.166C8.72828 119.258 9.27569 119.269 9.77963 119.195C10.1571 119.132 10.5168 119.021 10.825 118.86C11.0207 118.757 11.171 118.642 11.2856 118.515C11.6512 119.172 12.0029 120.044 12.0602 120.297C12.1471 120.717 13.5899 124.903 13.2816 126.392Z" fill="#FAAB8B"/>
<path d="M31.7514 110.879C31.7514 112.125 30.8482 113.368 29.0498 114.321C25.4511 116.223 19.6193 116.223 16.0186 114.321C14.3763 113.451 13.4831 112.342 13.3467 111.204C13.3289 111.094 13.3231 110.989 13.3231 110.879C13.3231 110.633 13.3645 110.387 13.4317 110.141C13.7183 111.13 14.5759 112.084 16.0186 112.843C19.6193 114.745 25.4491 114.745 29.0498 112.843C30.4925 112.084 31.3561 111.13 31.6427 110.141C31.7119 110.387 31.7514 110.635 31.7514 110.879Z" fill="#020024"/>
<path d="M32.6249 109.305C33.1644 113.652 32.6921 118.85 32.6921 118.85C30.3562 119.758 29.7159 117.715 29.4472 116.169C29.3464 115.591 29.2455 114.423 29.2455 114.423L28.4077 91.6355L27.4196 80.8262L28.052 80.1279C28.052 80.1279 32.3621 81.8936 32.368 81.9153C32.5498 82.1957 33.7909 82.7674 32.6289 90.8721C32.6012 91.1416 32.5498 91.4166 32.4925 91.7024C32.028 93.8987 31.7553 96.1257 31.864 98.3653C32.0399 101.942 32.3127 106.77 32.6249 109.305Z" fill="#2A9457"/>
<path d="M23.2022 118.339C23.1963 118.345 23.1963 118.356 23.1963 118.361C23.1172 119.405 22.2496 120.271 21.1133 120.413C18.7438 120.704 16.7973 120.479 15.2993 120.241C13.6887 119.982 12.3606 119.669 11.8152 118.839C11.748 118.735 11.6907 118.625 11.6453 118.506C11.6512 118.242 11.748 117.265 11.8428 116.252C11.8488 116.226 11.8487 116.199 11.8487 116.174V116.158C11.9456 115.119 12.0483 114.07 12.0543 113.789C12.0938 112.154 12.1333 110.403 12.163 108.67C12.1748 107.725 12.1848 106.779 12.1907 105.855C12.2362 100.055 10.1314 90.6621 9.167 86.6677C8.90614 85.5822 8.72428 84.8912 8.70056 84.788C12.4159 82.2897 17.2558 79.4132 17.6629 79.1853C19.7676 81.7759 21.2083 84.6632 23.1371 89.1027C24.8979 93.2744 23.8089 110.671 23.2022 118.339Z" fill="#2A9457"/>
<path d="M15.4258 90.2009C15.3803 90.456 15.3013 90.9281 15.1985 91.5197C14.9772 92.7825 14.6649 94.5988 14.3981 96.1202C14.2558 96.9452 14.1254 97.6833 14.0306 98.1916C14.0246 98.2278 14.0247 98.2441 14.0247 98.2441C14.0128 98.3002 14.0029 98.3689 13.991 98.4358C13.991 98.4413 13.991 98.4413 13.991 98.4413C13.9851 98.4576 13.9851 98.4775 13.9792 98.4992C13.5879 100.612 12.6235 104.637 12.1651 108.672C12.1473 108.76 12.1433 108.849 12.1314 108.936C11.9832 110.265 11.8982 111.673 11.8646 112.992C11.8587 113.028 11.8587 113.059 11.8587 113.095C11.8192 114.45 11.831 115.322 11.8528 116.159V116.176C11.8706 116.917 11.8864 117.634 11.8824 118.636C11.8824 118.703 11.8586 118.772 11.8191 118.839C11.7519 118.969 11.6255 119.088 11.5188 119.186C11.4733 119.228 11.416 119.275 11.3606 119.311C11.2875 119.369 11.2006 119.414 11.1176 119.461C10.5722 119.747 9.86273 119.886 9.15523 119.883C8.71849 119.877 8.29358 119.821 7.9003 119.711C7.88845 119.711 7.88838 119.711 7.88245 119.705C7.67297 119.638 7.46949 119.561 7.28768 119.461C7.15132 119.389 7.03861 119.311 6.92992 119.228C6.92399 119.222 6.92403 119.222 6.9181 119.222C6.89043 119.202 6.86085 119.175 6.83318 119.144C6.77587 119.097 6.73037 119.045 6.69085 118.994C6.57227 118.839 6.50314 118.672 6.49918 118.506C6.49918 118.506 5.88061 104.147 5.89247 104.107C5.84108 103.011 5.89249 101.906 6.04071 100.815L8.00898 86.3837C8.02479 85.6619 8.28176 85.1119 8.70665 84.7899C8.75803 84.7483 8.80933 84.7176 8.86466 84.6868C9.31327 84.4227 9.90809 84.3539 10.5998 84.5204C10.6057 84.5258 10.6058 84.5258 10.6117 84.5258C10.9872 84.6144 11.3824 84.77 11.7915 84.9925C13.6413 86.0201 15.1609 88.1241 15.406 89.9259C15.4139 90.02 15.4258 90.1068 15.4258 90.2009Z" fill="#54C146"/>
<path d="M23.2932 89.5316C22.3347 86.078 19.9059 82.3043 18.9593 80.7865C18.0581 79.3537 18.3288 78.1434 18.3585 78.0186L16.3961 79.9398L17.7063 84.8008H19.5502L18.2616 86.0165C18.2616 86.0165 20.7971 89.7505 21.807 92.8657C23.2418 97.8932 24.0421 103.349 24.0421 103.349C24.6765 92.9634 23.2932 89.5316 23.2932 89.5316Z" fill="#54C146"/>
<path d="M30.1112 84.8206L29.698 84.665L28.7673 84.3068L29.6586 83.9233L29.9471 83.7985C29.9471 83.7985 29.6862 81.4195 29.3226 80.647L28.1547 79.9668L27.4234 80.8243C27.4234 80.8243 28.4096 91.6354 28.3542 92.2523C28.3028 92.871 28.8266 102.933 28.8266 102.933C28.8266 102.933 28.9906 99.4597 29.3206 94.8321C30.1744 89.4953 30.1112 84.8206 30.1112 84.8206Z" fill="#54C146"/>
<path d="M30.8759 69.0346C30.7929 68.9786 30.6941 68.9098 30.6961 68.814C30.6981 68.7362 30.7692 68.6746 30.8344 68.6258C31.2455 68.3164 31.6902 68.0433 32.1586 67.8099C31.5124 67.7086 30.8542 67.6815 30.202 67.7267C30.6664 67.3757 31.2732 67.1876 31.8739 67.2075C31.2455 66.8185 30.5302 66.6159 29.7812 66.5092C30.0835 66.2975 30.5202 66.0623 30.9431 66.0877C30.9431 66.0877 30.1408 65.3079 29.2891 65.6281C28.4373 65.9502 29.038 64.6187 29.7396 64.2514C30.4411 63.8842 26.9828 63.4717 25.8801 64.2514L26.2318 63.4717C26.2318 63.4717 21.4711 61.9575 19.6905 64.6187L19.5462 64.9859C19.0364 64.6965 18.6786 64.322 18.6786 64.322C18.6035 64.6096 18.5957 64.9009 18.6095 65.1325C18.1925 64.9515 17.7478 64.758 17.6688 64.7164C17.8249 64.7942 18.2123 65.9013 18.2123 65.9013C18.2123 65.9013 16.7735 65.8018 16.3585 67.3233C15.7123 69.6895 17.8189 74.3317 17.8189 74.3317C17.8189 74.3317 18.7142 71.6379 19.2142 72.6926C19.7161 73.7473 19.5699 77.4958 20.0719 78.0475C20.5719 78.5993 23.5303 81.1682 24.7338 81.4432C25.9374 81.7182 28.4926 81.3979 28.8938 80.8932C29.295 80.3885 29.5578 77.816 29.5578 77.6332C29.5578 77.4487 28.3009 76.5062 28.3009 76.5062L27.4393 76.6256L25.133 78.0023L24.9335 78.8272C24.9335 78.8272 21.1727 76.9006 21.0225 76.2113C20.9237 75.7608 20.7557 73.6695 20.6569 72.5841L21.9829 71.1133C21.9829 71.1133 21.9177 70.0297 21.8841 69.4978C21.8742 69.344 21.8682 69.1848 21.9374 69.0455C22.0342 68.8538 22.2596 68.747 22.471 68.6656C23.1489 68.4051 23.8959 68.2531 24.6193 68.3635C25.3426 68.4756 26.0381 68.8845 26.3247 69.5032C26.6113 69.1034 26.9374 68.6765 27.4393 68.5462C28.1686 68.3581 28.9749 69.0654 28.799 69.7402C29.793 69.5683 30.8542 69.7402 31.7238 70.216C31.6052 69.7492 31.2988 69.3223 30.8759 69.0346Z" fill="#01000A"/>
<path d="M24.1429 75.9127C23.6686 75.9127 23.3307 75.8168 23.1173 75.6233C22.722 75.2633 22.7952 74.6428 22.8801 73.9228L22.9058 73.6948C22.9177 73.5899 23.0283 73.57 24.3919 73.4126C26.212 73.2027 29.2554 72.8536 30.9075 72.1299L31.0084 72.0847L31.0182 72.186C31.0182 72.1951 31.0973 73.0887 30.9115 74.2665C30.8858 74.4275 30.7712 74.5704 30.6112 74.6391C30.3286 74.7622 29.7792 74.9792 29.2574 75.0661L29.212 75.0733C28.9313 75.1222 28.3503 75.2217 27.9629 74.8942C27.6843 74.6572 27.5756 74.243 27.6388 73.664C27.542 73.6405 27.2674 73.6116 26.7358 73.845C26.7753 74.0186 26.8504 74.5523 26.4946 75.0408C26.1567 75.5039 25.5322 75.7861 24.641 75.882C24.4611 75.9037 24.2951 75.9127 24.1429 75.9127ZM23.056 73.7382L23.0322 73.9372C22.9532 74.6211 22.8841 75.2126 23.226 75.5238C23.471 75.7463 23.9295 75.8187 24.6212 75.7445C25.467 75.6522 26.052 75.3899 26.3642 74.9648C26.7516 74.4365 26.5737 73.8323 26.5717 73.8269L26.5539 73.7708L26.6113 73.7455C27.4136 73.3764 27.7297 73.541 27.7633 73.5609L27.8029 73.5844L27.797 73.6279C27.7278 74.1887 27.8188 74.5812 28.0678 74.7929C28.3958 75.0733 28.9254 74.9811 29.1823 74.9376L29.2297 74.9286C29.7336 74.8454 30.2693 74.6337 30.544 74.5143C30.6586 74.4655 30.7396 74.3624 30.7573 74.2484C30.9056 73.3149 30.8838 72.5659 30.87 72.3018C29.1764 73.0055 26.2022 73.3475 24.4097 73.5537C23.7813 73.6261 23.1864 73.693 23.056 73.7382Z" fill="#01000A"/>
<path d="M22.9195 74.1597C22.9018 74.1597 22.884 74.1543 22.8702 74.1434L19.1568 71.2253C19.1252 71.2 19.1213 71.1548 19.149 71.1259C19.1766 71.0951 19.226 71.0933 19.2576 71.1186L22.969 74.0367C23.0026 74.062 23.0045 74.1072 22.9768 74.1362C22.963 74.1525 22.9413 74.1597 22.9195 74.1597Z" fill="#01000A"/>
<path d="M19.576 72.8246C19.5424 72.2765 19.734 71.1874 18.5938 71.2706C17.0049 71.3864 18.2617 74.5505 18.7894 74.8689C19.3171 75.1873 19.5956 74.6482 19.5956 74.6482C19.5956 74.6482 19.5858 72.9911 19.576 72.8246Z" fill="#FAAB8B"/>
<path d="M25.8266 79.0896C25.793 79.0498 26.2713 78.3099 26.7179 78.1688C27.1625 78.0259 27.8997 77.845 27.8997 77.845C27.8997 77.845 28.9827 78.0982 29.042 78.3099C29.0993 78.5234 28.7712 78.9123 28.7712 78.9123C28.7712 78.9123 26.5025 79.8874 25.8266 79.0896Z" fill="#FAAB8B"/>
<path d="M68.881 45.314C69.1873 45.3429 69.4996 45.3502 69.8059 45.3267C69.962 45.314 70.1162 45.2977 70.2683 45.2778C72.2643 44.9884 74.0626 43.883 75.5527 42.5642C77.0448 41.2454 78.2226 39.7203 79.1554 38.0903C80.0842 36.4676 80.7641 34.7381 80.9913 32.8187C81.2008 31.0078 81.0091 29.0232 79.8234 27.6772C79.8906 27.6845 79.9558 27.6971 80.023 27.7098C80.44 27.784 80.8233 27.9124 81.1731 28.1006C81.5683 28.3086 81.9281 28.5854 82.2305 28.9183C82.6791 29.414 83.0269 30.0453 83.2482 30.769C83.4656 31.4926 83.5584 32.3302 83.5288 33.2185C83.4932 34.1104 83.3332 35.0692 83.0486 36.037C82.9241 36.473 82.7739 36.9072 82.6 37.3432C82.432 37.7738 82.2403 38.2007 82.0268 38.6294C81.8174 39.0528 81.5862 39.4707 81.3333 39.8813C81.0843 40.292 80.8174 40.6954 80.5328 41.0862C80.2542 41.4769 79.9558 41.855 79.6435 42.2169C79.3332 42.5787 79.0092 42.9278 78.6752 43.2535C78.3412 43.5827 77.9954 43.8921 77.6496 44.1815C77.2978 44.471 76.938 44.7387 76.5823 44.9793C76.2226 45.2235 75.8571 45.4424 75.4935 45.6342C75.1298 45.826 74.7642 45.9924 74.4045 46.1299C74.0488 46.2728 73.6891 46.3814 73.3393 46.4628C72.9935 46.5478 72.6457 46.6021 72.3137 46.6256C71.9797 46.6545 71.6556 46.6509 71.3454 46.6165C71.0351 46.584 70.7327 46.5188 70.452 46.4284C70.2208 46.356 69.9996 46.262 69.7901 46.1516C69.3909 45.9399 69.0311 45.6505 68.7228 45.2977C68.7703 45.3049 68.8296 45.305 68.881 45.314Z" fill="#157D5F"/>
<path d="M100.457 33.8154C100.461 33.9619 100.457 34.1013 100.436 34.2478C100.414 34.3943 100.382 34.5246 100.333 34.6675C100.283 34.8104 100.23 34.9316 100.151 35.0619C100.076 35.1958 100.001 35.3025 99.894 35.4165C99.7913 35.5304 99.6905 35.6245 99.566 35.7168C99.4415 35.8054 99.3209 35.8796 99.1786 35.9447C99.0364 36.0098 98.9039 36.0551 98.7478 36.0913C98.734 36.0949 98.726 36.0949 98.7122 36.1003C98.6588 36.1129 98.6055 36.1202 98.5521 36.1292C94.4198 36.728 90.3686 37.3088 86.2402 37.9021C86.3015 37.7158 86.3549 37.5114 86.4142 37.3286C90.6077 36.7226 94.7222 36.1329 98.9217 35.5268C98.9751 35.5178 99.0284 35.5105 99.0818 35.4979C99.313 35.4327 99.6865 35.2048 99.8644 35.0257C99.8723 35.0221 99.8783 35.013 99.8822 35.0094C100.052 34.8267 100.188 34.5988 100.291 34.3455C100.353 34.1791 100.402 33.9999 100.434 33.8172C100.441 33.7684 100.447 33.725 100.447 33.6743C100.453 33.7177 100.457 33.7666 100.457 33.8154Z" fill="#157D5F"/>
<path d="M100.044 33.9168C100.054 34.0633 100.048 34.2099 100.032 34.3528C100.026 34.389 100.022 34.4306 100.018 34.4667C99.9869 34.6458 99.9434 34.8195 99.8801 34.9823C99.8762 34.995 99.8663 35.0113 99.8624 35.024C99.6845 35.2031 99.315 35.431 99.0857 35.4961C99.0324 35.5088 98.975 35.516 98.9217 35.5251C94.7222 36.1311 90.6077 36.7209 86.4141 37.3269C86.4141 37.3179 86.4181 37.3143 86.4181 37.307C86.507 36.9941 86.5959 36.6395 86.6631 36.3301C86.667 36.3102 86.673 36.2939 86.677 36.274C86.7264 36.0497 86.7738 35.7982 86.8054 35.5793C86.841 35.3803 86.8726 35.1524 86.8943 34.9498C86.8943 34.9136 86.9002 34.8756 86.9042 34.8394C86.9259 34.6079 86.9438 34.3438 86.9477 34.1194C86.9517 34.0507 86.9516 33.9801 86.9516 33.9078C86.9516 33.8227 86.9517 33.7359 86.9477 33.6563C86.9517 33.5749 86.9477 33.4935 86.9477 33.4211C86.9438 33.3234 86.9378 33.2185 86.9299 33.1154C86.9437 33.1118 86.9616 33.1117 86.9734 33.1063C87.4892 33.034 87.999 32.9598 88.5109 32.882C89.9496 32.674 91.4752 32.4587 92.9989 32.2398C94.5799 32.0118 96.1629 31.7803 97.7657 31.5523C97.7795 31.5523 97.7913 31.5487 97.8091 31.5487C97.819 31.5487 97.8308 31.5451 97.8407 31.5487C97.983 31.5324 98.1213 31.536 98.2636 31.565C98.4138 31.5885 98.5659 31.6428 98.7122 31.7115C98.8268 31.7694 98.9434 31.8382 99.0501 31.9232C99.0758 31.9431 99.1035 31.9648 99.1291 31.9883C99.2616 32.0987 99.3821 32.2235 99.4928 32.37C99.5995 32.5129 99.6925 32.6703 99.7735 32.8386C99.8091 32.9164 99.8445 32.9978 99.8702 33.0792C99.9058 33.1733 99.9375 33.271 99.9593 33.365C100.009 33.5441 100.034 33.7304 100.044 33.9168Z" fill="#2A9457"/>
<path d="M100.443 33.6727C100.443 33.7215 100.439 33.7668 100.43 33.8156C100.398 33.9983 100.349 34.1774 100.287 34.3439C100.185 34.5953 100.048 34.8233 99.8782 35.0078C99.8742 35.0114 99.8684 35.0205 99.8605 35.0241C99.8644 35.0114 99.8742 34.9951 99.8782 34.9825C99.9395 34.8196 99.9849 34.646 100.017 34.4669C100.042 34.2878 100.052 34.105 100.042 33.9169C100.032 33.7306 100.007 33.5424 99.9572 33.3597C99.9137 33.1806 99.8505 33.0015 99.7714 32.8351C99.6904 32.6687 99.5976 32.5094 99.4909 32.3665C99.3802 32.22 99.2596 32.0934 99.1272 31.9848C98.9988 31.8708 98.8565 31.7804 98.7102 31.708C98.564 31.6393 98.4118 31.5868 98.2616 31.5615C98.1115 31.5326 97.9593 31.5289 97.8091 31.5452C97.9435 31.5289 98.0897 31.5217 98.2221 31.5289C98.3683 31.538 98.5343 31.5615 98.6747 31.5977C98.813 31.6338 98.9671 31.6917 99.0975 31.7514C99.226 31.813 99.3644 31.8943 99.4751 31.9794C99.5897 32.0608 99.7102 32.1675 99.803 32.2634C99.8959 32.3647 99.9948 32.4877 100.07 32.6053C100.145 32.7193 100.216 32.8532 100.269 32.9834C100.323 33.1101 100.366 33.2512 100.398 33.3905C100.422 33.4864 100.436 33.5804 100.443 33.6727Z" fill="#157D5F"/>
<path d="M71.5904 48.4438C69.9461 47.5772 68.3079 46.707 66.6637 45.8405C66.3514 45.674 66.0095 45.4389 65.7486 45.1983C65.6162 45.0807 65.4779 44.9341 65.3573 44.8003C65.2427 44.6664 65.1163 44.5036 65.0155 44.3516C64.9127 44.2015 64.8021 44.0187 64.7171 43.8559C64.6282 43.6931 64.5353 43.4941 64.4642 43.3186C64.397 43.1431 64.3218 42.9279 64.2645 42.7415C64.2112 42.5552 64.1539 42.3272 64.1144 42.1282C64.0748 41.9329 64.0393 41.6923 64.0116 41.486C63.9898 41.278 63.972 41.0265 63.9621 40.8112C63.9542 40.596 63.9542 40.3355 63.9582 40.1111C63.968 39.8868 63.9799 39.619 64.0076 39.3875C64.0293 39.1559 64.061 38.8882 64.1005 38.6476C64.1361 38.4124 64.1895 38.1392 64.2428 37.895C64.2962 37.6508 64.3634 37.3776 64.4286 37.1297C64.4997 36.8819 64.5847 36.6015 64.6697 36.3482C64.7547 36.0968 64.8554 35.8073 64.9582 35.5504C65.1499 35.0547 65.4246 34.4433 65.6736 33.9512C65.9266 33.4501 66.2467 32.8892 66.553 32.4044C66.8692 31.9051 67.211 31.4167 67.5707 30.9445C67.9442 30.456 68.2902 30.0454 68.6992 29.5985C69.1261 29.139 69.468 28.8062 69.9205 28.3991C70.1379 28.2037 70.3296 28.0409 70.5569 27.8582C70.7782 27.6755 70.9739 27.5289 71.2011 27.3607C71.4324 27.1943 71.628 27.064 71.8592 26.9139C72.0905 26.7637 72.286 26.6443 72.5212 26.5104C72.7564 26.3802 72.9521 26.2789 73.1833 26.1613C73.4185 26.0473 73.6141 25.9623 73.8492 25.8646C74.0804 25.7705 74.2761 25.6981 74.5073 25.624C74.7385 25.5462 74.9302 25.4937 75.1555 25.4358C75.3868 25.3798 75.5726 25.3381 75.7959 25.302C76.0232 25.2658 76.2128 25.2459 76.4362 25.2296C76.6575 25.2133 76.8453 25.2097 77.0627 25.2169C77.2761 25.2205 77.4578 25.2368 77.6673 25.2621C77.8709 25.2911 78.0487 25.3237 78.2444 25.3725C78.6495 25.4738 78.9599 25.5914 79.3156 25.7832C80.9598 26.6497 82.6001 27.5163 84.2423 28.3864C83.1139 27.7876 81.6515 27.7515 80.3452 28.0282C79.029 28.3087 77.8709 28.9057 76.8037 29.6184C75.7326 30.3384 74.7603 31.1761 73.8928 32.0951C73.0212 33.0141 72.2564 34.0145 71.5904 35.0692C70.9244 36.1275 70.3593 37.2329 69.9245 38.3852C69.4937 39.5322 69.1814 40.719 69.0391 41.9329C68.8969 43.1323 68.9107 44.3534 69.306 45.5366C69.6972 46.7052 70.4619 47.845 71.5904 48.4438Z" fill="#157D5F"/>
<path d="M71.3157 46.6004C71.622 46.6293 71.9323 46.6366 72.2406 46.613C72.3967 46.6004 72.5509 46.5841 72.703 46.5642C74.699 46.2748 76.4973 45.1694 77.9874 43.8506C79.4795 42.5318 80.6573 41.0067 81.5901 39.3767C82.5189 37.754 83.1988 36.0245 83.426 34.105C83.6355 32.2941 83.4438 30.3096 82.2581 28.9636C82.3253 28.9709 82.3905 28.9835 82.4577 28.9962C82.8747 29.0704 83.2581 29.2006 83.6079 29.3869C84.0032 29.595 84.3648 29.8718 84.6652 30.2047C85.1138 30.7004 85.4616 31.3317 85.683 32.0553C85.9003 32.779 85.9932 33.6166 85.9616 34.5049C85.926 35.3949 85.766 36.3555 85.4814 37.3234C85.3569 37.7594 85.2066 38.1936 85.0327 38.6296C84.8647 39.0601 84.6731 39.4889 84.4596 39.914C84.2501 40.3373 84.0189 40.7552 83.7659 41.1677C83.5169 41.5784 83.2502 41.9818 82.9656 42.3707C82.685 42.7615 82.3885 43.1396 82.0763 43.5014C81.7641 43.8632 81.44 44.2124 81.108 44.538C80.774 44.8673 80.4282 45.1766 80.0823 45.4661C79.7306 45.7555 79.3708 46.0233 79.0151 46.2639C78.6554 46.5081 78.2899 46.727 77.9263 46.9188C77.5626 47.1106 77.197 47.277 76.8373 47.4145C76.4816 47.5574 76.1219 47.6659 75.7702 47.7473C75.4243 47.8324 75.0764 47.8866 74.7444 47.9101C74.4104 47.9391 74.0864 47.9337 73.7761 47.9011C73.4638 47.8686 73.1635 47.8034 72.8829 47.713C72.6517 47.6406 72.4303 47.5465 72.2208 47.4362C71.8196 47.2245 71.46 46.9351 71.1537 46.5823C71.2031 46.5931 71.2603 46.5931 71.3157 46.6004Z" fill="#157D5F"/>
<path d="M70.7189 38.5789C70.5548 39.0222 70.4126 39.4618 70.292 39.9014C70.1715 40.3356 70.0786 40.7679 70.0075 41.1949C69.9403 41.6182 69.8968 42.0325 69.875 42.4395C69.8572 42.8411 69.8613 43.2373 69.8929 43.6118C69.9245 43.9899 69.9818 44.3517 70.0628 44.6936C70.1419 45.0355 70.2486 45.3612 70.377 45.6615C70.5055 45.9618 70.6577 46.2422 70.8355 46.4991C71.0094 46.756 71.209 46.9839 71.4264 47.1902C71.6438 47.3928 71.8849 47.5719 72.1418 47.7238C72.3987 47.874 72.6753 47.9952 72.9639 48.0857C73.2563 48.1797 73.5646 48.2449 73.8848 48.2774C74.2049 48.31 74.537 48.3136 74.8809 48.2901C75.2228 48.2666 75.5784 48.2087 75.9381 48.1237C76.2978 48.0386 76.6635 47.9246 77.031 47.7817C77.4045 47.6388 77.778 47.4688 78.1515 47.2698C78.525 47.0708 78.8985 46.8464 79.2661 46.5986C79.6357 46.3508 80.0032 46.074 80.3629 45.7773C80.7186 45.4842 81.0744 45.164 81.4163 44.8257C81.7582 44.4874 82.0921 44.1346 82.4123 43.7601C82.7324 43.3893 83.0387 43.0003 83.3273 42.5969C83.6198 42.1989 83.8925 41.7828 84.1494 41.3613C84.4063 40.938 84.6435 40.5074 84.8608 40.0714C85.0782 39.6372 85.2778 39.1976 85.4518 38.7526C85.6296 38.3057 85.7798 37.8571 85.9142 37.4139C86.2027 36.4171 86.3668 35.4293 86.4024 34.5175C86.4379 33.6021 86.341 32.7446 86.1137 31.9993C85.8864 31.2557 85.5307 30.6045 85.0683 30.0998C84.6059 29.5914 84.0288 29.2169 83.3707 28.998C82.7185 28.7737 81.9657 28.7049 81.1811 28.7954C80.8333 28.8316 80.4796 28.9003 80.114 28.998C79.7543 29.0957 79.3846 29.2223 79.0111 29.3761C78.6416 29.5299 78.2642 29.7144 77.8966 29.9206C77.5231 30.1287 77.1496 30.3639 76.78 30.6244C76.4105 30.8813 76.0468 31.1653 75.6911 31.471C75.3353 31.7768 74.9856 32.106 74.6477 32.4479C74.3098 32.7935 73.9817 33.1589 73.6655 33.5388C73.3552 33.9169 73.0528 34.3113 72.7682 34.7183C72.4836 35.1254 72.2169 35.5451 71.9679 35.9666C71.7189 36.3936 71.4876 36.8259 71.2801 37.2637C71.0706 37.6961 70.8829 38.1393 70.7189 38.5789ZM69.4126 43.221C69.3987 41.6381 69.7505 40.0768 70.3137 38.5843C70.8769 37.0882 71.6556 35.6518 72.6022 34.3258C73.5528 32.9997 74.6734 31.7786 75.9718 30.742C76.9401 29.9659 78.0072 29.2893 79.2068 28.8099C80.2068 28.4119 81.2997 28.1459 82.3787 28.2237C83.2404 28.2816 84.094 28.5566 84.7699 29.0342C85.4497 29.5136 85.9577 30.1974 86.2897 30.9301C86.7067 31.8491 86.8529 32.8495 86.8628 33.8391C86.8667 35.0313 86.6711 36.2072 86.3331 37.3487C86.2225 37.7305 86.098 38.1049 85.9557 38.4794C85.3905 39.9755 84.6178 41.412 83.6672 42.738C82.7166 44.0641 81.5961 45.2852 80.2997 46.3218C79.3314 47.0997 78.2641 47.7709 77.0646 48.2503C76.0646 48.6501 74.9718 48.9178 73.8927 48.8401C73.0311 48.7822 72.1773 48.5054 71.5015 48.026C70.8216 47.5502 70.3158 46.8663 69.9818 46.1337C69.5687 45.2128 69.4165 44.2124 69.4126 43.221Z" fill="#54C146"/>
<path d="M70.377 45.6614C70.2486 45.3611 70.1419 45.0354 70.0628 44.6935C69.9818 44.3516 69.9245 43.9898 69.8929 43.6117C69.8613 43.2372 69.8572 42.8428 69.875 42.4394C69.8968 42.0324 69.9422 41.6181 70.0075 41.1948C70.0786 40.7678 70.1715 40.3373 70.292 39.9013C70.4126 39.4617 70.5548 39.0221 70.7189 38.5788C70.8829 38.1392 71.0707 37.696 71.2782 37.26C71.4877 36.8204 71.7188 36.3898 71.9658 35.9629C72.2148 35.5396 72.4817 35.1217 72.7663 34.7146C73.0509 34.3076 73.3532 33.9132 73.6634 33.5351C73.9796 33.157 74.3077 32.7897 74.6457 32.4442C74.9836 32.1023 75.3334 31.7731 75.6891 31.4673C76.0449 31.1616 76.4084 30.8776 76.778 30.6207C77.1475 30.3602 77.521 30.125 77.8946 29.9169C78.2621 29.7089 78.6416 29.5262 79.0092 29.3724C79.3827 29.2186 79.7503 29.092 80.1119 28.9943C80.4775 28.8966 80.8313 28.8279 81.1792 28.7917C81.9657 28.703 82.7166 28.7718 83.3688 28.9943C84.0269 29.215 84.6039 29.5877 85.0664 30.096C85.5288 30.6007 85.8845 31.252 86.1118 31.9956C86.339 32.7391 86.4359 33.5984 86.4003 34.5138C86.3647 35.4238 86.2007 36.4134 85.9122 37.4102C85.7778 37.8534 85.6276 38.302 85.4497 38.7489C85.2758 39.1921 85.0763 39.6317 84.8589 40.0677C84.6415 40.5037 84.4063 40.9342 84.1474 41.3576C83.8905 41.7809 83.6178 42.1952 83.3253 42.5932C83.0368 42.9966 82.7305 43.3856 82.4103 43.7564C82.0902 44.1309 81.7561 44.4837 81.4142 44.822C81.0724 45.1603 80.7167 45.4805 80.361 45.7735C80.0013 46.0702 79.6318 46.347 79.2642 46.5949C78.8946 46.8427 78.5231 47.0671 78.1495 47.2661C77.776 47.4651 77.4025 47.6369 77.029 47.778C76.6594 47.9209 76.2958 48.0331 75.9362 48.1199C75.5765 48.205 75.2207 48.2629 74.8788 48.2864C74.5369 48.3117 74.203 48.3063 73.8829 48.2737C73.5627 48.2411 73.2564 48.176 72.9619 48.0819C72.6734 47.9933 72.3967 47.8703 72.1398 47.7201C71.8829 47.57 71.6418 47.3909 71.4244 47.1864C71.207 46.9784 71.0074 46.7504 70.8335 46.4954C70.6576 46.2421 70.5055 45.9617 70.377 45.6614ZM71.0569 37.9004C70.6122 38.9425 70.2921 39.999 70.1142 41.0048C69.9403 42.0052 69.9087 42.9731 70.0213 43.827C70.128 44.6773 70.3849 45.4425 70.7584 46.0485C70.879 46.2403 71.0075 46.4194 71.1537 46.5858C71.46 46.9404 71.8197 47.2281 72.2208 47.4397C72.4283 47.5501 72.6517 47.6423 72.8829 47.7165C73.1635 47.807 73.4639 47.8721 73.7761 47.9047C74.0864 47.9372 74.4105 47.9408 74.7444 47.9137C75.0784 47.8884 75.4244 47.8359 75.7702 47.7509C76.122 47.6695 76.4816 47.5591 76.8373 47.418C77.197 47.2805 77.5626 47.1123 77.9263 46.9223C78.2899 46.7306 78.6554 46.5117 79.0151 46.2674C79.3708 46.0268 79.7306 45.7591 80.0824 45.4696C80.4282 45.1802 80.776 44.8708 81.108 44.5416C81.442 44.2159 81.7661 43.8668 82.0763 43.505C82.3866 43.1431 82.685 42.765 82.9657 42.3743C83.2502 41.9835 83.517 41.5819 83.766 41.1712C84.0189 40.7606 84.2502 40.3409 84.4597 39.9175C84.6731 39.4906 84.8647 39.0637 85.0327 38.6331C85.2066 38.1971 85.3569 37.7629 85.4814 37.3269C85.766 36.3591 85.926 35.3985 85.9616 34.5084C85.9932 33.6219 85.9004 32.7843 85.683 32.0589C85.4597 31.3352 85.1138 30.7039 84.6652 30.2082C84.3628 29.8753 84.0032 29.5985 83.608 29.3905C83.2582 29.2041 82.8747 29.0739 82.4577 28.9997C82.3905 28.9871 82.3253 28.9744 82.2581 28.9672C81.604 28.8821 80.8945 28.931 80.1336 29.1173C79.2937 29.3253 78.4223 29.6944 77.5428 30.219C76.6674 30.7437 75.8018 31.4149 74.9836 32.2036C74.1655 32.9924 73.4066 33.8915 72.7406 34.8594C72.0706 35.8254 71.5015 36.8584 71.0569 37.9004Z" fill="#2A9457"/>
<path d="M71.5903 48.4437C70.4619 47.8449 69.6972 46.707 69.3059 45.5347C68.9106 44.3516 68.8968 43.1304 69.0391 41.931C69.1813 40.7189 69.4916 39.5304 69.9244 38.3834C70.3592 37.2328 70.9243 36.1257 71.5903 35.0673C72.2563 34.0145 73.0212 33.014 73.8927 32.0932C74.7583 31.1742 75.7325 30.3366 76.8036 29.6166C77.8688 28.9038 79.0289 28.3068 80.3451 28.0264C81.6514 27.7496 83.1138 27.7858 84.2422 28.3846C84.4695 28.4986 84.7046 28.6578 84.9141 28.8206C84.9536 28.8532 84.9951 28.8803 85.0307 28.9183C85.0762 28.9508 85.1197 28.987 85.1592 29.025C85.2936 29.1462 85.4339 29.2891 85.5505 29.423C85.6671 29.5605 85.7956 29.7233 85.8983 29.8735C85.9952 30.02 86.1058 30.2027 86.1968 30.3655C86.2817 30.5283 86.3746 30.7274 86.4457 30.9065C86.5169 31.0819 86.588 31.2936 86.6453 31.4799C86.6987 31.6663 86.7559 31.8942 86.7974 32.0932C86.837 32.2922 86.8725 32.5328 86.9002 32.7391C86.914 32.853 86.9259 32.9833 86.9358 33.1099C86.9457 33.2112 86.9497 33.318 86.9536 33.4157C86.9576 33.6309 86.9615 33.8914 86.9536 34.1158C86.9497 34.3401 86.9318 34.6042 86.9101 34.8358C86.8884 35.0674 86.8528 35.3405 86.8132 35.5757C86.7777 35.8163 86.7244 36.0877 86.671 36.3283C86.6038 36.6376 86.5149 36.9922 86.4259 37.3052C86.3686 37.4915 86.3054 37.6996 86.2382 37.8949C86.2126 37.9637 86.1888 38.0324 86.1671 38.0976C86.0782 38.3545 85.9714 38.6385 85.8687 38.8954C85.6651 39.3911 85.3845 39.9971 85.1276 40.4856C84.8647 40.9903 84.5407 41.5439 84.2304 42.0233C83.9063 42.5226 83.5643 43.0038 83.1948 43.4705C82.8134 43.9554 82.4656 44.357 82.0486 44.7966C81.8431 45.0155 81.6573 45.2037 81.4438 45.4063C81.2304 45.6143 81.0387 45.7844 80.8173 45.9761C80.6 46.1715 80.4083 46.3253 80.183 46.5044C79.9557 46.6835 79.7601 46.8264 79.5289 46.9892C79.2977 47.152 79.106 47.2787 78.8708 47.4252C78.6396 47.5717 78.4439 47.6857 78.2087 47.8124C77.9735 47.9426 77.7819 48.0403 77.5467 48.1488C77.3116 48.2556 77.1159 48.3406 76.8847 48.4292C76.6495 48.5179 76.4578 48.583 76.2266 48.6572C75.9953 48.7259 75.8036 48.7784 75.5783 48.8272C75.3511 48.8797 75.1653 48.9123 74.944 48.9448C74.7128 48.9738 74.5271 48.9937 74.3038 49.0027C74.0824 49.0118 73.8947 49.0118 73.6812 48.9991C73.4678 48.9864 73.2899 48.9666 73.0863 48.934C72.8808 48.9014 72.7089 48.8616 72.5133 48.8073C72.1674 48.7115 71.8966 48.6065 71.5903 48.4437ZM70.3157 38.5824C69.7505 40.0749 69.4007 41.638 69.4145 43.2191C69.4185 44.2123 69.5706 45.2127 69.9836 46.1317C70.3176 46.8644 70.8236 47.5482 71.5034 48.024C72.1793 48.5034 73.033 48.7802 73.8946 48.8381C74.9736 48.9159 76.0666 48.6463 77.0666 48.2483C78.2661 47.7689 79.3332 47.0978 80.3016 46.3198C81.598 45.2832 82.7185 44.0621 83.669 42.736C84.6196 41.41 85.3924 39.9736 85.9576 38.4775C86.0999 38.103 86.2243 37.7285 86.335 37.3468C86.6729 36.2035 86.8686 35.0276 86.8646 33.8372C86.8547 32.8494 86.7085 31.8472 86.2916 30.9282C85.9576 30.1955 85.4517 29.5116 84.7719 29.0322C84.096 28.5564 83.2442 28.2797 82.3806 28.2218C81.3016 28.144 80.2087 28.4081 79.2088 28.8079C78.0092 29.2873 76.942 29.9639 75.9736 30.74C74.6752 31.7784 73.5566 32.9978 72.6041 34.3238C71.6575 35.6499 70.8789 37.0863 70.3157 38.5824Z" fill="#2A9457"/>
<path d="M100.044 33.9168C100.054 34.0633 100.048 34.2099 100.032 34.3528C95.5878 34.9914 91.1492 35.63 86.675 36.2722C86.7245 36.0479 86.7718 35.7965 86.8034 35.5776C86.839 35.3786 86.8707 35.1506 86.8924 34.948C91.2421 34.3166 95.5582 33.6997 99.8723 33.0774C99.9079 33.1715 99.9395 33.2691 99.9612 33.3632C100.009 33.5441 100.034 33.7305 100.044 33.9168Z" fill="#3FAA4E"/>
<path d="M86.9457 33.6526C86.9497 33.5712 86.9457 33.4898 86.9457 33.4175C86.9418 33.3198 86.9359 33.2148 86.928 33.1117C86.9418 33.1081 86.9595 33.1081 86.9714 33.1027C87.4872 33.0303 87.9971 32.9561 88.5089 32.8783C89.9476 32.6703 91.4733 32.455 92.997 32.2361C94.6451 32.0009 96.2992 31.7639 97.8407 31.545C97.983 31.5288 98.1213 31.5324 98.2636 31.5613C98.4138 31.5849 98.5659 31.6391 98.7122 31.7079C98.8268 31.7657 98.9434 31.8345 99.0502 31.9195C95.3566 32.4532 90.7223 33.1117 86.9457 33.6526Z" fill="#157D5F"/>
<path opacity="0.75" d="M83.422 34.1048C83.1948 36.0243 82.515 37.7538 81.5862 39.3765C80.6534 41.0083 79.4756 42.5334 77.9835 43.8504C76.4954 45.1692 74.6951 46.2746 72.6991 46.564C72.5489 46.5839 72.3927 46.6002 72.2366 46.6129C71.9303 46.6382 71.618 46.6291 71.3117 46.6002C71.2583 46.593 71.205 46.5875 71.1556 46.5803C71.0094 46.4139 70.8749 46.2384 70.7564 46.0466C70.5884 45.7734 70.4461 45.4731 70.3295 45.1439C70.1832 44.7368 70.0766 44.2936 70.0173 43.8251C69.9066 42.9712 69.9383 42.0033 70.1102 41.0029C70.2881 39.9989 70.6082 38.9405 71.0528 37.9003C71.4975 36.8583 72.0666 35.8253 72.7326 34.8574C73.3986 33.8896 74.1594 32.9904 74.9756 32.2017C75.7938 31.4129 76.6595 30.7418 77.5349 30.2171C78.4144 29.6925 79.2858 29.3216 80.1257 29.1154C80.3708 29.0539 80.6099 29.0105 80.8451 28.9815C81.3392 28.9128 81.8056 28.9092 82.2502 28.9652C83.4399 30.3094 83.6295 32.294 83.422 34.1048Z" fill="url(#paint0_linear_12013_3062)"/>
<path opacity="0.75" d="M71.3098 43.3567C71.2584 42.6892 71.2979 41.9511 71.4303 41.1949C71.5923 40.2813 71.8928 39.2935 72.2979 38.3438C72.7169 37.3632 73.2425 36.4081 73.8631 35.5071C74.4856 34.6044 75.1852 33.774 75.946 33.0395C76.6931 32.3195 77.4736 31.7117 78.2681 31.2359C78.612 31.0314 78.9519 30.8542 79.2859 30.7058C78.7187 34.0544 76.9203 40.417 71.3098 43.3567Z" fill="url(#paint1_linear_12013_3062)"/>
<defs>
<linearGradient id="paint0_linear_12013_3062" x1="68.6494" y1="33.8921" x2="94.6484" y2="48.8332" gradientUnits="userSpaceOnUse">
<stop stop-color="white"/>
<stop offset="1"/>
</linearGradient>
<linearGradient id="paint1_linear_12013_3062" x1="68.7691" y1="33.6246" x2="84.3582" y2="43.3309" gradientUnits="userSpaceOnUse">
<stop stop-color="white"/>
<stop offset="1"/>
</linearGradient>
</defs>
</svg>
