<svg width="132" height="175" viewBox="0 0 132 175" fill="none" xmlns="http://www.w3.org/2000/svg">
<path d="M104.337 0V78.0267L7.33643 117.312V39.2852L104.337 0Z" fill="#FFF6E2"/>
<path d="M56.5473 46.8981L23.4391 60.2881V58.5711L56.5473 45.1812V46.8981Z" fill="#040F36"/>
<path d="M95.5694 31.5661L81.7118 37.1497V35.4328L95.5694 29.8491V31.5661Z" fill="#040F36"/>
<path d="M95.5694 37.351L81.7118 42.9362V41.2193L95.5694 35.634V37.351Z" fill="#040F36"/>
<path d="M95.5694 43.1361L81.7118 48.7214V47.0044L95.5694 41.4192V43.1361Z" fill="#040F36"/>
<path d="M95.5694 48.9211L81.7118 54.5063V52.7893L95.5694 47.2041V48.9211Z" fill="#040F36"/>
<path d="M95.5694 54.7061L81.7118 60.2913V58.5744L95.5694 52.9907V54.7061Z" fill="#040F36"/>
<path d="M95.5694 60.4926L81.7118 66.0762V64.3593L95.5694 58.7756V60.4926Z" fill="#040F36"/>
<path d="M78.6361 38.1088L64.7786 43.694V41.9771L78.6361 36.3918V38.1088Z" fill="#040F36"/>
<path d="M81.5737 28.779L67.7139 34.3626V32.6472L81.5737 27.062V28.779Z" fill="#040F36"/>
<path d="M44.6248 43.6608L30.7673 49.2444V47.5275L44.6248 41.9438V43.6608Z" fill="#040F36"/>
<path d="M78.6361 43.894L64.7786 49.4792V47.7622L78.6361 42.177V43.894Z" fill="#040F36"/>
<path d="M78.6361 49.6789L64.7786 55.2641V53.5472L78.6361 47.9619V49.6789Z" fill="#040F36"/>
<path d="M78.6361 55.4655L64.7786 61.0491V59.3322L78.6361 53.7485V55.4655Z" fill="#040F36"/>
<path d="M78.6361 61.2504L64.7786 66.8356V65.1187L78.6361 59.5334V61.2504Z" fill="#040F36"/>
<path d="M78.6361 67.0353L64.7786 72.6205V70.9036L78.6361 65.3184V67.0353Z" fill="#040F36"/>
<path d="M80.7839 79.2824L66.9263 84.8676V83.1506L80.7839 77.5654V79.2824Z" fill="#040F36"/>
<path d="M56.5473 52.8685L23.4391 66.2585V64.5416L56.5473 51.1516V52.8685Z" fill="#040F36"/>
<path d="M56.5473 58.8391L23.4391 72.2275V70.5121L56.5473 57.1206V58.8391Z" fill="#040F36"/>
<path d="M56.5473 64.808L23.4391 78.198V76.481L56.5473 63.0911V64.808Z" fill="#040F36"/>
<path d="M56.5473 70.7785L23.4391 84.1684V82.4515L56.5473 69.0615V70.7785Z" fill="#040F36"/>
<path d="M56.5473 76.7473L23.4391 90.1389V88.4219L56.5473 75.032V76.7473Z" fill="#040F36"/>
<path d="M99.634 13.5628L89.6375 17.6055V10.603L99.634 6.5603V13.5628Z" fill="#FFC436"/>
<path d="M14.3795 60.4102L14.2573 60.4594V95.6987L20.343 93.2383H20.3679V93.2287L97.2962 62.1161L97.4184 62.0653V26.8259L14.3795 60.4102ZM96.925 56.06L80.3539 62.7629V57.3552L96.925 50.6539V56.06ZM63.5542 69.5577V64.1501L79.8628 57.555V62.9626L63.5542 69.5577ZM79.8605 63.3605V68.7682L63.5542 75.3649V69.9572L79.8605 63.3605ZM14.7484 66.4663L19.8723 64.3942V69.8019L14.7484 71.8739V66.4663ZM63.0608 58.5427V63.9503L20.3656 81.2165V75.8088L63.0608 58.5427ZM20.3656 75.4093V70.0016L63.0608 52.7339V58.1416L20.3656 75.4093ZM63.5542 58.3429L79.8628 51.7478V57.1555L63.5542 63.7505V58.3429ZM63.5542 57.9434V52.5357L79.8628 45.9406V51.3483L63.5542 57.9434ZM63.5542 52.1362V46.7285L79.8628 40.1334V45.5411L63.5542 52.1362ZM63.5542 46.3306V40.9229L79.8628 34.3279V39.7355L63.5542 46.3306ZM63.0608 46.5288L20.3656 63.7965V58.3889L63.0608 41.1211V46.5288ZM63.0608 46.9283V52.336L20.3656 69.6037V64.196L63.0608 46.9283ZM14.7484 72.2735L19.8723 70.2014V75.6091L14.7484 77.6811V72.2735ZM14.7484 78.0806L19.8723 76.0086V81.4162L14.7484 83.4883V78.0806ZM14.7484 83.8878L19.8723 81.8157V87.2234L14.7484 89.2955V83.8878ZM20.3656 81.616L63.0608 64.3498V69.7575L20.3656 87.0236V81.616ZM96.925 50.2544L80.3539 56.9557V51.548L96.925 44.8467V50.2544ZM96.925 44.4472L80.3539 51.1501V45.7425L96.925 39.0411V44.4472ZM96.925 38.64L80.3539 45.3429V39.9353L96.925 33.2324V38.64ZM96.925 32.8329L80.3539 39.5342V34.1265L96.925 27.4236V32.8329ZM19.8723 58.587V63.9947L14.7484 66.0668V60.6591L19.8723 58.587ZM14.7484 89.6934L19.8723 87.6213V93.0306L14.7484 95.1026V89.6934ZM20.3656 87.4232L63.0608 70.1554V75.5583H63.0767L20.3656 92.8308V87.4232ZM80.3539 68.5701V63.1624L96.925 56.4595V61.8671L80.3539 68.5701Z" fill="#617EA1"/>
<path d="M26.8384 51.5671V48.5106L51.0161 38.7336V41.7902L26.8384 51.5671ZM27.3295 48.7103V50.9695L50.5205 41.5889V39.3297L27.3295 48.7103Z" fill="#617EA1"/>
<path d="M62.5538 37.1293V34.0727L86.7338 24.2942V27.3508L62.5538 37.1293ZM63.0472 34.274V36.5332L86.2405 27.1526V24.8935L63.0472 34.274Z" fill="#617EA1"/>
<path d="M62.5538 87.2677V84.2111L86.7338 74.4326V77.4892L62.5538 87.2677ZM63.0472 84.4109V86.67L86.2405 77.2894V75.0303L63.0472 84.4109Z" fill="#617EA1"/>
<path d="M111.213 37.5603L100.981 41.6981C100.555 41.5253 100.13 41.3541 99.7019 41.1812L104.819 39.1123L109.934 37.0435L111.213 37.5603Z" fill="#FF2453"/>
<path d="M100.981 41.698L47.2615 63.4237V135.845L100.981 114.119L111.213 109.981V101.704V45.8357V37.5586L100.981 41.698Z" fill="#D30C44"/>
<path d="M104.819 39.1107L99.7019 41.1796L47.2615 62.3886L39.587 59.2844C57.0679 52.2153 74.5488 45.1446 92.0297 38.0755C93.7339 37.3859 95.4381 36.6962 97.1445 36.0066C97.9978 36.3506 98.8487 36.6962 99.7019 37.0403C101.408 37.7315 103.113 38.4211 104.819 39.1107Z" fill="#F2FDFF"/>
<path d="M100.981 41.6979L47.2615 63.4237L34.4699 58.2507L88.1891 36.5249C88.6168 36.6977 89.0423 36.8705 89.4678 37.0417L37.0273 58.2507L39.5847 59.2859L47.2592 62.39L99.6997 41.1811C100.13 41.3523 100.555 41.5251 100.981 41.6979Z" fill="#FF2453"/>
<path d="M99.7019 32.904L89.47 37.0418C89.0446 36.869 88.6168 36.6978 88.1913 36.525L98.4232 32.3872L99.7019 32.904Z" fill="#FF2453"/>
<path d="M89.47 37.0418L37.0295 58.2508L39.587 59.286C57.0679 52.2169 74.5488 45.1462 92.0297 38.0771C93.7384 37.3859 95.8704 36.5234 97.1468 36.0082C98 36.3522 98.851 36.6978 99.7042 37.0418V32.9041L89.47 37.0418Z" fill="#D30C44"/>
<path d="M47.2615 63.4238V135.845L34.4699 130.672V58.2507L47.2615 63.4238Z" fill="#BD003C"/>
<path d="M101.053 41.7837L100.91 41.6125L111.142 37.4731L111.287 37.6444L101.053 41.7837Z" fill="white"/>
<path d="M89.5402 37.1274L89.3976 36.9562L99.6318 32.8184L99.7744 32.988L89.5402 37.1274Z" fill="white"/>
<path d="M47.189 63.5093L34.3997 58.3363L34.5423 58.165L47.3339 63.3381L47.189 63.5093Z" fill="white"/>
<path d="M47.3339 63.5093L47.189 63.3381L100.91 41.6123L101.053 41.7835L47.3339 63.5093Z" fill="white"/>
<path d="M37.0997 58.3365L36.9571 58.1653L89.3976 36.9563L89.5402 37.1275L37.0997 58.3365Z" fill="white"/>
<path d="M62.6897 89.3095L69.2393 86.6604L68.884 88.5913L59.5687 92.3581V80.915L62.6897 79.6531V89.3095Z" fill="#FFEA3B"/>
<path d="M80.1909 81.4098L74.7774 83.5992L73.7612 86.6605L70.5248 87.97L75.6057 74.4722L79.4599 72.9138L84.5182 82.3102L81.2094 83.6483L80.1909 81.4098ZM79.5505 80.0131L77.4706 75.3902L75.3907 81.6967L79.5505 80.0131Z" fill="#FFEA3B"/>
<path d="M99.8196 76.0813L95.7549 77.7254L93.2722 69.6052L90.7193 79.7625L86.7723 81.359L83.8166 71.1112L86.9126 69.8588L88.9925 78.721L91.6631 67.9373L94.9741 66.5977L97.5972 75.2395L99.8671 64.6192L102.823 63.4238L99.8196 76.0813Z" fill="#FFEA3B"/>
<path d="M96.848 136.512L93.2835 135.046L93.0844 134.962C89.8503 133.614 88.0193 130.943 88.0193 127.38V98.2986L91.903 99.9046L96.7281 135.853L96.848 136.512Z" fill="#FFB133"/>
<path d="M128.105 82.0835L131.998 83.6879C131.998 83.6879 124.771 121.833 119.195 126.87L108.062 136.927L96.9182 135.875C96.8594 135.868 96.7892 135.86 96.7281 135.854L91.903 99.9061L88.0193 98.3001L90.4025 97.6612C96.2098 96.1107 102.146 94.1132 108.064 91.7209C113.971 89.3286 119.919 86.5161 125.726 83.3755L128.105 82.0835Z" fill="#FFEA3B"/>
<path d="M100.815 137.482C95.2367 136.958 91.9052 133.782 91.9052 128.985V99.9014L94.2929 99.2625C100.096 97.712 106.037 95.7128 111.953 93.3205C117.866 90.9282 123.807 88.1221 129.612 84.9784L132 83.6863V112.77C132 117.565 128.669 123.438 123.09 128.473L111.953 138.527L100.815 137.482Z" fill="#FFD738"/>
<path d="M128.997 87.4482V113.984C128.997 118.101 126.134 123.138 121.347 127.464L111.955 135.94L102.554 135.065C97.7669 134.608 94.904 131.887 94.904 127.772V101.236C100.521 99.6872 106.247 97.7357 111.955 95.4274C117.654 93.1238 123.379 90.443 128.997 87.4482Z" fill="#FFC436"/>
<path d="M111.955 95.4275V135.941L102.554 135.066C97.7669 134.61 94.904 131.889 94.904 127.774V101.238C100.521 99.6874 106.249 97.7358 111.955 95.4275Z" fill="#FFEA3B"/>
<path opacity="0.25" d="M36.9707 164.104C43.1334 166.596 43.1334 170.637 36.9707 173.131C30.808 175.623 20.816 175.623 14.6533 173.131C8.49066 170.639 8.49066 166.598 14.6533 164.104C20.816 161.612 30.808 161.612 36.9707 164.104Z" fill="#ADB8E8"/>
<path d="M31.7608 161.784C31.7608 161.784 32.9241 164.605 35.5087 165.572C37.5727 166.344 41.1712 168.649 41.058 169.378C41.058 169.378 39.1637 170.794 33.7864 168.968C33.1798 168.762 32.6322 168.478 32.175 168.132C31.5187 167.638 30.2875 166.858 28.6602 166.502L27.4087 167.007C27.4087 167.007 24.883 166.395 23.6111 165.743V164.491C23.6111 163.772 23.8351 163.062 24.2674 162.411L31.7608 161.784Z" fill="#01000A"/>
<path d="M37.0567 141.203C37.6021 136.866 36.294 119.132 36.294 119.132L31.272 121.752L23.5522 122.41C23.5522 122.41 25.3809 125.514 25.0618 127.189C24.3149 131.114 25.9241 142.965 25.9241 142.965C23.8894 147.54 23.1539 161.624 23.1539 161.624C23.1335 162.176 23.6201 162.731 24.6137 163.151C26.56 163.975 29.7126 163.975 31.6567 163.151C32.5756 162.761 33.0441 162.257 33.0961 161.746H33.1165C33.1142 161.724 33.1142 161.7 33.112 161.678C33.112 161.658 33.1074 161.637 33.1074 161.616C32.5032 154.522 37.0567 141.203 37.0567 141.203Z" fill="#061D47"/>
<path d="M24.935 173.611C24.8762 173.694 24.935 172.446 22.7171 169.635C20.4992 166.824 20.3498 165.383 20.0579 165.301C19.7659 165.218 13.3769 165.207 13.3769 165.207C13.2592 165.331 13.3769 168.173 13.3769 168.173V168.735L14.5832 170.011H15.0109C15.1897 170.372 15.3549 170.856 15.4206 171.484C15.5948 173.159 20.4403 174.754 22.7171 174.304C24.9939 173.857 24.9939 173.53 24.935 173.611Z" fill="#01000A"/>
<path d="M30.6179 122.304C30.6179 122.304 30.4052 128.343 30.2219 129.611C30.1381 130.252 29.4637 130.667 28.8639 130.902C28.753 131.341 28.6422 131.744 28.5177 132.086C25.2655 141.449 22.527 146.015 21.8096 149.213C21.0967 152.405 21.5448 164.177 21.5448 164.177C21.6896 164.73 21.2325 165.31 20.1869 165.732C18.7769 166.3 16.6993 166.436 14.9838 166.139C14.7167 166.094 14.4474 166.033 14.2007 165.97C13.9518 165.902 13.7164 165.819 13.5014 165.732C12.6074 165.371 12.1502 164.904 12.1299 164.429C12.1299 164.429 11.0322 155.752 10.9213 152.372C10.8172 148.987 12.0778 145.877 12.8473 144.339C13.6168 142.803 14.3026 130.8 14.3026 130.8C13.1144 122.33 16.4775 120.142 16.4775 120.142L18.9353 120.394L25.8064 121.34C25.8064 121.34 28.2099 120.161 29.6198 121.683C29.7443 121.816 29.8168 122.168 29.8484 122.67L30.6179 122.304Z" fill="#0A3B78"/>
<path d="M19.6505 85.3462C19.6505 85.3462 21.667 88.9941 21.5131 89.6742C21.5131 89.6742 22.5858 89.3651 22.6628 88.8831C22.9298 87.1979 22.4976 83.4073 22.3889 83.4231C22.2464 83.4438 19.6505 85.3462 19.6505 85.3462Z" fill="#01000A"/>
<path d="M21.0288 90.0056C21.0288 90.0056 21.6738 89.557 22.1241 89.5633C22.5745 89.5696 21.1872 90.9616 21.1872 90.9616L20.6259 91.4182L20.4041 90.8126L21.0288 90.0056Z" fill="#C92B0D"/>
<path d="M31.2652 110.143C22.4274 107.159 19.4875 92.0049 19.4875 92.0049C21.3637 91.0728 22.1468 87.688 22.1468 87.688C25.9716 87.2552 26.9991 89.6713 28.6897 90.8207C29.7873 91.5705 32.4353 92.1492 32.4353 92.1492C34.0602 95.9351 31.2652 110.143 31.2652 110.143Z" fill="#F99B79"/>
<path d="M33.8294 108.556L32.6208 96.734L33.4786 94.2624L33.069 92.9434L32.1275 91.8606L31.3806 91.7417C31.3806 91.7417 31.7835 95.3277 29.3211 97.0066C29.3211 97.0066 21.9997 94.2037 20.1167 91.5784L19.8972 91.7417L19.0326 92.2918V95.1993L21.3388 100.041L22.6017 122.242L30.1743 122.049L34.9791 120.335L33.8294 108.556Z" fill="#E6F8FF"/>
<path d="M43.8938 118.384C43.2103 117.631 42.038 116.209 42.2666 116.128L41.7211 115.674L39.0687 116.613C39.0687 116.613 39.587 117.924 39.3131 119.113C39.0302 120.305 39.2701 121.215 39.7318 121.965C40.2003 122.712 40.9268 124.503 40.9268 124.503L41.5944 124.739L42.1217 125.47C42.1217 125.47 43.9549 125.066 44.1609 125.145C44.3555 125.223 45.5957 124.186 45.9895 123.753C46.3856 123.314 45.6863 120.481 45.6863 120.481C45.6863 120.481 44.575 119.137 43.8938 118.384ZM43.0519 123.403L42.0606 123.997C42.0606 123.997 42.4001 123.481 42.0561 122.808C41.7121 122.136 41.5491 121.32 41.5491 121.32C43.6222 121.342 43.0519 123.403 43.0519 123.403Z" fill="#F99B79"/>
<path d="M35.0945 82.6798C35.0945 82.6798 35.1104 85.1339 34.5581 85.5826C34.0059 86.0296 34.1168 82.3928 34.1168 82.3928L35.0945 82.6798Z" fill="#01000A"/>
<path d="M44.8308 118.563L42.5789 113.287C40.6778 108.851 39.5507 104.268 39.2067 99.6415C39.0053 96.9131 38.5866 94.4685 37.0725 93.4253L35.357 95.2199L34.669 108.266L38.1362 118.769H38.1521C38.1883 119.089 38.4825 119.411 39.0732 119.673C40.3655 120.243 42.5065 120.3 43.8576 119.803C44.7244 119.481 45.048 119.01 44.8308 118.563Z" fill="#157D5F"/>
<path d="M34.8297 85.7299C34.2775 86.762 34.2707 87.523 34.2707 87.5595C33.9131 89.6759 32.9784 91.0362 32.1275 91.859C32.0098 91.9779 31.8921 92.0825 31.7767 92.1776C31.745 92.2093 31.7042 92.241 31.6658 92.268C31.4055 92.4773 31.1724 92.6358 30.9846 92.7452C30.8804 92.8086 30.7899 92.8498 30.7243 92.8863C30.1336 93.159 28.0673 92.3488 26.1707 91.721C25.2677 91.4293 24.3647 90.5923 23.6563 89.7869C23.6495 89.7774 23.6495 89.7726 23.6495 89.7726C22.2169 88.7405 22.0336 87.3137 22.0336 87.3137C20.6961 86.7002 22.149 86.938 19.2521 84.1208C20.3702 77.5812 27.3001 78.3184 27.3001 78.3184C35.5313 78.5499 34.8297 85.7299 34.8297 85.7299Z" fill="#FAAB8B"/>
<path d="M17.6657 101.03C17.6589 101.388 17.5615 101.698 17.3895 101.943C17.5072 101.422 17.6045 101.01 17.6521 100.788C17.6657 100.87 17.6657 100.948 17.6657 101.03Z" fill="#868E46"/>
<path d="M17.6928 100.604C17.6928 100.604 17.6792 100.667 17.6521 100.788C17.6521 100.705 17.6385 100.627 17.6249 100.547L17.6928 100.604Z" fill="#868E46"/>
<path d="M31.3829 92.7134C31.3761 92.8735 31.3421 93.3824 31.3082 93.5378C29.604 93.5093 28.0175 93.403 26.9131 92.7213C25.6095 91.9128 23.0679 90.0437 22.9864 89.8788C24.0162 89.7329 25.5733 90.4796 26.4763 90.7745C28.3751 91.3992 30.464 93.1716 31.3829 92.7134Z" fill="#F99B79"/>
<path d="M21.4656 148.35C21.4723 148.472 21.4203 148.605 21.3162 148.737C21.2053 148.868 21.0695 148.973 20.9201 149.033L18.4193 150.038C18.2699 150.102 18.1341 150.111 18.03 150.065C17.9259 150.019 17.8671 149.934 17.8671 149.815L17.978 147.83L18.0164 146.942L18.4646 138.483V138.456C18.4713 138.419 18.4442 138.388 18.4125 138.378L17.8988 138.164L17.9237 137.882C17.9576 137.578 18.2609 137.222 18.6252 137.077L20.171 136.454C20.1778 136.454 20.1914 136.449 20.1982 136.444C20.3226 136.398 20.4313 136.39 20.5241 136.417C20.5376 136.417 20.5444 136.422 20.5625 136.431C20.5829 136.441 20.601 136.45 20.6214 136.463C20.635 136.476 20.6531 136.49 20.6666 136.509C20.6734 136.519 20.6802 136.528 20.687 136.536C20.6938 136.55 20.7006 136.563 20.7074 136.582C20.7142 136.604 20.7187 136.633 20.7187 136.66L20.7775 137.533L20.7843 137.66L21.4656 148.35Z" fill="#00679C"/>
<path d="M21.4656 148.35C21.4723 148.472 21.4203 148.605 21.3162 148.737C21.2053 148.868 21.0695 148.973 20.9201 149.033L18.4193 150.038C18.2699 150.102 18.1341 150.111 18.03 150.065C17.9259 150.019 17.8671 149.934 17.8671 149.815L17.978 147.83L18.0164 146.942L18.4646 138.483V138.456C18.4713 138.419 18.4442 138.388 18.4125 138.378L17.8988 138.164L17.9237 137.882C17.9576 137.578 18.2609 137.222 18.6252 137.077L20.171 136.454C20.1778 136.454 20.1914 136.449 20.1982 136.444C20.3226 136.398 20.4313 136.39 20.5241 136.417C20.5376 136.417 20.5444 136.422 20.5625 136.431C20.5829 136.441 20.601 136.45 20.6214 136.463C20.635 136.476 20.6531 136.49 20.6666 136.509C20.6734 136.519 20.6802 136.528 20.687 136.536C20.6938 136.55 20.7006 136.563 20.7074 136.582C20.7142 136.604 20.7187 136.633 20.7187 136.66L20.7775 137.533L20.7843 137.66L21.4656 148.35Z" fill="#00679C"/>
<path d="M21.4656 148.35C21.4723 148.472 21.4203 148.605 21.3162 148.737C21.2053 148.868 21.0695 148.973 20.9201 149.033L18.4193 150.038C18.2699 150.102 18.1341 150.111 18.03 150.065C17.9259 150.019 17.8671 149.934 17.8671 149.815L17.978 147.83L18.0164 146.942L18.4646 138.483V138.456C18.4713 138.419 18.4442 138.388 18.4125 138.378L17.8988 138.164L17.9237 137.882C17.9576 137.578 18.2609 137.222 18.6252 137.077L20.171 136.454C20.1778 136.454 20.1914 136.449 20.1982 136.444C20.3226 136.398 20.4313 136.39 20.5241 136.417C20.5376 136.417 20.5444 136.422 20.5625 136.431C20.5829 136.441 20.601 136.45 20.6214 136.463C20.635 136.476 20.6531 136.49 20.6666 136.509C20.6734 136.519 20.6802 136.528 20.687 136.536C20.6938 136.55 20.7006 136.563 20.7074 136.582C20.7142 136.604 20.7187 136.633 20.7187 136.66L20.7775 137.533L20.7843 137.66L21.4656 148.35Z" fill="#040F36"/>
<path d="M18.4125 138.378C18.3786 138.369 18.3356 138.369 18.2835 138.388C18.202 138.421 18.1296 138.513 18.1251 138.583L17.6928 146.816L17.6453 147.699L17.5434 149.684L17.5344 149.864L17.5299 149.939C17.5253 150.134 17.6159 150.284 17.7833 150.354L0.886321 143.475C0.718845 143.406 0.628318 143.253 0.632845 143.058L0.825214 139.428L4.54138 140.939L16.9346 145.986C16.9641 145.996 17.0161 146.001 17.0682 145.983C17.1496 145.95 17.2266 145.863 17.2311 145.788L17.8739 138.48L17.892 138.228L17.8965 138.164L18.4125 138.378Z" fill="#040F36"/>
<path d="M16.946 145.993C16.9369 145.986 16.9165 145.975 16.912 145.966C16.9211 145.975 16.9301 145.986 16.946 145.993Z" fill="#868E46"/>
<path d="M16.946 145.993C16.9369 145.986 16.9165 145.975 16.912 145.966C16.9211 145.975 16.9301 145.986 16.946 145.993Z" fill="#868E46"/>
<path d="M20.7662 136.125C20.7617 136.125 20.7617 136.125 20.7572 136.125C20.6508 136.089 20.5218 136.089 20.377 136.119C20.3091 136.132 20.2389 136.152 20.1665 136.183L20.0556 136.227L19.8542 136.308L18.623 136.809L3.88052 130.807L1.72823 129.93L3.27173 129.305C3.52068 129.207 3.747 129.197 3.90995 129.261L20.7662 136.125Z" fill="#061D47"/>
<path d="M18.6207 136.806C18.0821 137.024 17.6272 137.547 17.5887 137.998V138.039L17.5819 138.102L17.5615 138.353L16.8984 145.907V145.92C16.8984 145.939 16.8984 145.951 16.912 145.966C16.9188 145.975 16.9256 145.983 16.9369 145.988L9.82368 143.093L9.45477 142.942L6.4402 141.719L4.54365 140.945L0.827474 139.429L0.0466693 139.111C0.0127214 139.096 -0.00537655 139.069 0.00141304 139.028L0.689418 131.12C0.727892 130.675 1.18959 130.147 1.7237 129.928L3.88052 130.802L18.6207 136.806Z" fill="#061D47"/>
<path d="M21.8073 148.203C21.8163 148.391 21.7303 148.615 21.5629 148.827C21.3909 149.038 21.1645 149.206 20.9201 149.304L18.4261 150.316C18.1817 150.414 17.9553 150.427 17.7833 150.356C17.6159 150.286 17.5231 150.134 17.5299 149.94L17.5344 149.866L17.5434 149.685L17.6453 147.7L17.6928 146.817L18.1251 138.584C18.1296 138.514 18.202 138.423 18.2835 138.389C18.3356 138.369 18.3786 138.369 18.4125 138.38C18.4464 138.389 18.4691 138.419 18.4646 138.461L18.0187 146.947L17.9757 147.833L17.8693 149.812C17.8648 149.929 17.9214 150.019 18.0278 150.067C18.1341 150.111 18.2722 150.1 18.4216 150.04L20.9201 149.033C21.0695 148.973 21.2075 148.868 21.3184 148.738C21.418 148.607 21.4723 148.474 21.4678 148.352L20.7187 136.661C20.7187 136.631 20.7142 136.607 20.7029 136.584C20.6983 136.566 20.6938 136.553 20.6848 136.541C20.6802 136.531 20.6757 136.52 20.6666 136.511C20.6576 136.493 20.6372 136.48 20.6236 136.468C20.6055 136.455 20.5852 136.441 20.5603 136.434C20.5467 136.428 20.5354 136.425 20.5263 136.422C20.4358 136.398 20.3249 136.404 20.2004 136.452C20.1914 136.455 20.1801 136.458 20.171 136.461L18.6275 137.083C18.2631 137.23 17.9553 137.584 17.9282 137.888L17.901 138.17L17.8965 138.234L17.8784 138.486L17.2356 145.794C17.2311 145.869 17.1542 145.956 17.0727 145.989C17.0206 146.007 16.9776 146.007 16.9482 145.996C16.9346 145.989 16.9233 145.978 16.9143 145.969C16.9052 145.956 16.9007 145.942 16.9007 145.924V145.912L17.5615 138.358L17.5864 138.105L17.591 138.042L17.5932 138.002C17.6317 137.552 18.0866 137.029 18.6252 136.81L19.8564 136.309L20.0578 136.228L20.1687 136.184C20.2412 136.154 20.3113 136.133 20.3792 136.121C20.5241 136.09 20.6531 136.094 20.7594 136.127C20.764 136.127 20.764 136.127 20.7685 136.127C20.9405 136.184 21.0514 136.316 21.0604 136.509L21.8073 148.203Z" fill="#020024"/>
<path d="M16.9459 145.993C16.9369 145.986 16.9165 145.975 16.912 145.966C16.9211 145.975 16.9301 145.986 16.9459 145.993Z" fill="#868E46"/>
<path d="M9.45477 142.923L9.44799 144.021C9.44799 144.047 9.4412 144.076 9.43441 144.093C9.42083 144.111 9.41404 144.125 9.40272 144.139C9.39593 144.149 9.38914 144.154 9.37782 144.158L9.35066 144.171C9.29182 144.198 9.2013 144.198 9.10398 144.158L6.77742 143.217C6.58957 143.139 6.43341 142.952 6.43341 142.803L6.4402 141.701L9.45477 142.923Z" fill="#FFD738"/>
<path d="M9.38235 144.152L9.71731 144.044C9.78068 144.017 9.81915 143.964 9.81915 143.883V143.567L9.83273 143.098L9.4593 142.946V143.413L9.44573 144.018C9.44573 144.035 9.44572 144.054 9.43214 144.071C9.43214 144.079 9.43214 144.089 9.43214 144.089C9.41857 144.106 9.41856 144.125 9.40725 144.133C9.39367 144.143 9.39366 144.152 9.38235 144.152Z" fill="#FFB133"/>
<path d="M7.4609 130.574L8.28244 130.241L8.28017 131.566L7.45863 131.899L7.4609 130.574Z" fill="#020024"/>
<path d="M7.99275 129.765L8.81202 129.431C8.48386 129.564 8.28243 129.844 8.28017 130.241L7.45863 130.575C7.46316 130.179 7.66458 129.898 7.99275 129.765Z" fill="#020024"/>
<path d="M7.56274 129.435L8.38202 129.101C8.74639 128.953 9.24656 128.961 9.80556 129.161L8.98629 129.496C8.42728 129.296 7.92712 129.286 7.56274 129.435Z" fill="#35374F"/>
<path d="M8.98629 129.496L9.80557 129.161C9.85988 129.179 9.9142 129.201 9.96852 129.223L9.14698 129.557C9.09493 129.537 9.04061 129.515 8.98629 129.496Z" fill="#35374F"/>
<path d="M9.15829 129.559L9.97757 129.225L12.7092 130.33L11.89 130.664L9.15829 129.559Z" fill="#061D47"/>
<path d="M14.0762 133.246L14.8955 132.914L14.8932 134.239L14.074 134.572L14.0762 133.246Z" fill="#00679C"/>
<path d="M11.89 130.664L12.7093 130.33C12.7636 130.352 12.8179 130.374 12.8722 130.399L12.0507 130.732C11.9986 130.707 11.9443 130.686 11.89 130.664Z" fill="#061D47"/>
<path d="M12.0529 130.734L12.8745 130.401C14.0106 130.913 14.9 132.018 14.8955 132.914L14.0762 133.248C14.0785 132.352 13.189 131.246 12.0529 130.734Z" fill="#00679C"/>
<path d="M14.0762 133.246L14.8955 132.914L14.8932 134.239L14.074 134.572L14.0762 133.246Z" fill="#020024"/>
<path d="M12.0529 130.734L12.8745 130.401C14.0106 130.913 14.9 132.018 14.8955 132.914L14.0762 133.248C14.0785 132.352 13.189 131.246 12.0529 130.734Z" fill="#061D47"/>
<path d="M11.89 130.664C11.9443 130.686 11.9986 130.709 12.0529 130.734C13.189 131.246 14.0785 132.353 14.0762 133.247L14.074 134.572L13.5082 134.348L13.5104 133.023C13.524 132.451 12.9582 131.722 11.9647 131.273C11.9171 131.252 11.8673 131.23 11.8175 131.209L9.08814 129.974C9.03835 129.955 8.98856 129.936 8.9433 129.919C7.94975 129.562 7.52427 129.943 7.46996 130.574L7.46769 131.899L6.95621 131.693L6.95847 130.368C6.96073 129.472 7.85696 129.087 8.99309 129.496C9.0474 129.515 9.10172 129.535 9.15603 129.558L11.89 130.664Z" fill="#040F36"/>
<path d="M18.4646 138.484V138.458C18.4713 138.421 18.4442 138.389 18.4125 138.38L17.8988 138.166L17.9237 137.884C17.9576 137.579 18.2609 137.224 18.6253 137.078L20.171 136.455C20.1778 136.455 20.1914 136.45 20.1982 136.446C20.3226 136.4 20.4313 136.392 20.5241 136.419C20.5376 136.419 20.5444 136.424 20.5625 136.433C20.5829 136.443 20.601 136.452 20.6214 136.465C20.635 136.477 20.6531 136.492 20.6666 136.511C20.6734 136.52 20.6802 136.53 20.687 136.538C20.6938 136.552 20.7006 136.565 20.7074 136.584C20.7142 136.606 20.7187 136.634 20.7187 136.661L20.7776 137.535L20.7843 137.662C19.7636 138.125 18.5687 138.458 18.4646 138.484Z" fill="#020024"/>
<path d="M15.2101 132.403C14.857 133.706 14.1554 132.692 14.1554 132.692C14.1554 132.692 13.8295 130.853 13.0306 130.271C12.5757 129.943 11.7474 130.478 11.7542 130.564C11.761 130.629 11.8425 130.918 12.0235 131.303L12.1955 131.39C13.1347 131.9 13.3497 132.463 13.3497 132.463L12.6549 132.516L12.6414 132.511C12.3969 132.419 9.23525 131.289 8.8754 131.06C8.58797 130.878 7.72117 130.12 7.66233 129.408C7.60575 128.696 8.39108 126.149 8.47708 126.128L8.62192 125.876C8.86635 125.962 9.13341 126.028 9.42309 126.073C9.99342 126.154 10.6203 126.163 11.1974 126.098C11.6297 126.043 12.0416 125.946 12.3947 125.805C12.6187 125.714 12.7907 125.613 12.922 125.502C13.3407 126.077 13.7435 126.842 13.8092 127.064C13.911 127.43 15.5631 131.098 15.2101 132.403Z" fill="#FAAB8B"/>
<path d="M36.3619 118.81C36.3619 119.902 35.3254 120.99 33.2681 121.825C29.1468 123.492 22.4682 123.492 18.3446 121.825C16.4639 121.063 15.4409 120.091 15.2848 119.094C15.2644 118.997 15.2576 118.905 15.2576 118.808C15.2576 118.593 15.3051 118.377 15.3821 118.162C15.7102 119.029 16.6925 119.864 18.3446 120.53C22.4682 122.196 29.1446 122.196 33.2681 120.53C34.9202 119.864 35.9093 119.029 36.2374 118.162C36.3166 118.377 36.3619 118.594 36.3619 118.81Z" fill="#020024"/>
<path d="M37.3622 117.429C37.9801 121.239 37.4414 125.794 37.4414 125.794C34.7664 126.59 34.0308 124.8 33.7253 123.444C33.6121 122.938 33.4944 121.914 33.4944 121.914L32.5348 101.945L31.4032 92.4725L32.1275 91.8606C32.1275 91.8606 37.0658 93.4079 37.0703 93.4269C37.2785 93.6727 38.6998 94.1736 37.369 101.276C37.3373 101.512 37.2785 101.753 37.2129 102.004C36.681 103.928 36.3687 105.88 36.4909 107.843C36.6923 110.977 37.0047 115.208 37.3622 117.429Z" fill="#2A9457"/>
<path d="M26.5736 125.347C26.5668 125.351 26.5668 125.361 26.5668 125.366C26.4763 126.28 25.4805 127.04 24.1814 127.163C21.4656 127.419 19.2386 127.222 17.5231 127.013C15.6786 126.786 14.1577 126.513 13.5353 125.784C13.4561 125.694 13.3927 125.597 13.3407 125.492C13.3475 125.261 13.4584 124.405 13.567 123.517C13.5738 123.495 13.5738 123.471 13.5738 123.449V123.435C13.6847 122.525 13.8024 121.605 13.8069 121.359C13.8522 119.926 13.8974 118.392 13.9314 116.873C13.945 116.045 13.9585 115.216 13.9631 114.406C14.0151 109.323 11.6048 101.092 10.5004 97.5917C10.2016 96.6405 9.99342 96.0349 9.96626 95.9445C14.2211 93.7551 19.7636 91.2344 20.2299 91.0347C22.6402 93.3049 24.29 95.8351 26.4989 99.7256C28.5154 103.381 27.2684 118.626 26.5736 125.347Z" fill="#2A9457"/>
<path d="M17.6657 100.688C17.6136 100.911 17.5231 101.325 17.4054 101.844C17.1519 102.95 16.7943 104.542 16.4888 105.875C16.3258 106.598 16.1765 107.245 16.0678 107.69C16.061 107.722 16.061 107.736 16.061 107.736C16.0475 107.785 16.0362 107.846 16.0226 107.904C16.0226 107.909 16.0226 107.909 16.0226 107.909C16.0158 107.922 16.0158 107.941 16.009 107.96C15.5609 109.812 14.4564 113.339 13.9314 116.874C13.911 116.952 13.9042 117.028 13.8929 117.106C13.7232 118.271 13.6258 119.504 13.5874 120.66C13.5806 120.692 13.5806 120.719 13.5806 120.751C13.5353 121.938 13.5489 122.702 13.5738 123.436V123.45C13.5942 124.1 13.6123 124.728 13.6055 125.606C13.6055 125.665 13.5783 125.725 13.5331 125.784C13.4538 125.898 13.3113 126.003 13.1891 126.088C13.137 126.125 13.0736 126.166 13.008 126.198C12.9243 126.249 12.8247 126.288 12.7296 126.329C12.105 126.58 11.2925 126.702 10.4823 126.697C9.9821 126.692 9.49552 126.643 9.0474 126.547C9.03382 126.547 9.03383 126.547 9.02704 126.542C8.78714 126.483 8.55403 126.415 8.34582 126.328C8.18966 126.264 8.06065 126.196 7.93617 126.123C7.92938 126.119 7.92939 126.119 7.9226 126.119C7.89092 126.101 7.85696 126.077 7.82528 126.05C7.75964 126.009 7.70759 125.963 7.66233 125.919C7.52654 125.782 7.44733 125.637 7.44054 125.491C7.44054 125.491 6.73216 112.908 6.74574 112.873C6.68689 111.912 6.74574 110.944 6.91548 109.988L9.16962 97.3411C9.18999 96.7085 9.48194 96.2266 9.96853 95.9444C10.0274 95.9079 10.0862 95.881 10.1518 95.854C10.6656 95.6226 11.3468 95.5623 12.1389 95.7082C12.1457 95.7129 12.1457 95.713 12.1525 95.713C12.5803 95.7906 13.0352 95.927 13.5036 96.122C15.622 97.0225 17.3624 98.8662 17.6408 100.445C17.6521 100.529 17.6657 100.605 17.6657 100.688Z" fill="#54C146"/>
<path d="M26.6754 100.101C25.5778 97.0747 22.7963 93.7677 21.7122 92.4376C20.6802 91.182 20.9903 90.1214 21.0242 90.012L18.7769 91.6956L20.2774 95.9555H22.3889L20.9133 97.0208C20.9133 97.0208 23.817 100.293 24.9735 103.023C26.6166 107.429 27.5332 112.21 27.5332 112.21C28.2619 103.109 26.6754 100.101 26.6754 100.101Z" fill="#54C146"/>
<path d="M34.4857 95.973L34.0127 95.8367L32.9467 95.5228L33.9674 95.1867L34.2979 95.0773C34.2979 95.0773 33.9991 92.9941 33.5827 92.3156L32.2451 91.7195L31.4078 92.4709C31.4078 92.4709 32.5371 101.945 32.4737 102.486C32.4149 103.028 33.0124 111.846 33.0124 111.846C33.0124 111.846 33.2002 108.802 33.5782 104.746C34.5559 100.07 34.4857 95.973 34.4857 95.973Z" fill="#54C146"/>
<path d="M35.3593 82.1391C35.2643 82.09 35.1511 82.0297 35.1534 81.9457C35.1556 81.8775 35.2371 81.8236 35.3118 81.7792C35.7825 81.5081 36.2917 81.2688 36.8281 81.0642C36.0903 80.9755 35.3344 80.9517 34.5876 80.9913C35.1194 80.6837 35.8142 80.5189 36.5022 80.5363C35.7825 80.1954 34.9633 80.0179 34.1055 79.9244C34.4518 79.7389 34.9497 79.5328 35.4363 79.555C35.4363 79.555 34.5174 78.8717 33.542 79.1539C32.5665 79.4345 33.2545 78.2692 34.058 77.9474C34.8614 77.6256 30.9008 77.2641 29.6379 77.9474L30.0385 77.2641C30.0385 77.2641 24.5865 75.9372 22.5474 78.2692L22.3844 78.5911C21.8005 78.3374 21.3909 78.0092 21.3909 78.0092C21.3049 78.2613 21.2958 78.5166 21.3117 78.7195C20.8341 78.5609 20.3249 78.3913 20.2344 78.3549C20.4132 78.423 20.8568 79.3933 20.8568 79.3933C20.8568 79.3933 19.2091 79.3061 18.7339 80.6394C17.9938 82.713 20.4064 86.7811 20.4064 86.7811C20.4064 86.7811 21.4316 84.4189 22.0042 85.3447C22.5791 86.269 22.4116 89.5539 22.9864 90.0374C23.5613 90.5209 26.947 92.7721 28.3253 93.0131C29.7036 93.2541 32.6299 92.9735 33.0893 92.5312C33.5488 92.0888 33.8498 89.8345 33.8498 89.6743C33.8498 89.5126 32.4104 88.6867 32.4104 88.6867L31.4236 88.7913L28.7825 89.9977L28.5539 90.7207C28.5539 90.7207 24.2493 89.0323 24.075 88.4298C23.9619 88.0351 23.7718 86.2024 23.6563 85.2512L25.1727 83.9623C25.1727 83.9623 25.098 83.0126 25.0595 82.5465C25.0482 82.4118 25.0414 82.2723 25.1206 82.1502C25.2315 81.9822 25.4895 81.8886 25.7317 81.8173C26.508 81.589 27.3634 81.4558 28.1918 81.5541C29.0201 81.6524 29.8145 82.0107 30.1449 82.5529C30.4731 82.2025 30.8465 81.8284 31.4214 81.7142C32.2565 81.5494 33.1799 82.1692 32.9784 82.7606C34.1168 82.61 35.3321 82.7606 36.328 83.1775C36.1967 82.7653 35.8436 82.3912 35.3593 82.1391Z" fill="#01000A"/>
<path d="M27.6509 88.1669C27.1077 88.1669 26.7207 88.0828 26.4763 87.9132C26.0236 87.5977 26.1074 87.054 26.2047 86.423L26.2341 86.2232C26.2477 86.1313 26.3744 86.1138 27.936 85.9759C30.0204 85.7936 33.5058 85.486 35.3978 84.8519L35.5132 84.8123L35.5245 84.901C35.5245 84.909 35.615 85.6921 35.4023 86.7242C35.3729 86.8653 35.2416 86.9905 35.0583 87.0508C34.7347 87.1586 34.1055 87.3488 33.508 87.4249L33.456 87.4313C33.1346 87.4741 32.4692 87.5613 32.0256 87.2743C31.7065 87.0666 31.582 86.7036 31.6545 86.1963C31.5436 86.1757 31.2267 86.1503 30.6202 86.3548C30.6654 86.5086 30.7514 86.9747 30.3418 87.4027C29.9548 87.807 29.2396 88.0559 28.2189 88.1399C28.013 88.159 27.8229 88.1669 27.6509 88.1669ZM26.4038 86.2613L26.3767 86.4357C26.2862 87.0349 26.2047 87.5533 26.5985 87.826C26.8791 88.021 27.4019 88.0844 28.1963 88.0194C29.1649 87.9386 29.8349 87.7087 30.1924 87.3361C30.636 86.8732 30.4323 86.3437 30.4301 86.339L30.4097 86.2898L30.4753 86.2676C31.3942 85.9442 31.7563 86.0885 31.7948 86.1059L31.84 86.1265L31.8332 86.1646C31.754 86.656 31.8581 87 32.1433 87.1855C32.519 87.4313 33.1255 87.3504 33.4197 87.3124L33.4741 87.3045C34.0534 87.2315 34.6645 87.046 34.9791 86.9414C35.1104 86.8986 35.2031 86.8082 35.2235 86.7083C35.3933 85.8903 35.3684 85.234 35.3525 85.0025C33.413 85.6192 30.0046 85.9188 27.9541 86.0996C27.2367 86.163 26.5532 86.2216 26.4038 86.2613Z" fill="#01000A"/>
<path d="M26.2499 86.6321C26.2296 86.6321 26.2092 86.6274 26.1934 86.6163L21.9431 84.0591C21.9046 84.0369 21.9023 83.9973 21.934 83.9719C21.9657 83.945 22.0223 83.9434 22.0585 83.9656L26.3088 86.5228C26.3473 86.5449 26.3495 86.5846 26.3178 86.61C26.2997 86.6242 26.2748 86.6321 26.2499 86.6321Z" fill="#01000A"/>
<path d="M22.4206 85.4605C22.3821 84.9801 22.6017 84.0258 21.2958 84.0987C19.4762 84.2001 20.9156 86.9729 21.5199 87.252C22.1241 87.531 22.4433 87.0585 22.4433 87.0585C22.4433 87.0585 22.4319 85.6063 22.4206 85.4605Z" fill="#FAAB8B"/>
<path d="M29.5768 90.9506C29.5384 90.9157 30.0861 90.2673 30.5975 90.1436C31.1068 90.0184 31.9509 89.8599 31.9509 89.8599C31.9509 89.8599 33.1934 90.0818 33.2591 90.2673C33.3247 90.4544 32.949 90.7952 32.949 90.7952C32.949 90.7952 30.3531 91.6497 29.5768 90.9506Z" fill="#FAAB8B"/>
</svg>
